  0
SECTION
  2
HEADER
  9
$ACADVER
  1
AC1009
  9
$EXTMIN
 10
793.59261
 20
149.91249
 30
0.0
  9
$EXTMAX
 10
1050.90717
 20
332.620125
 30
0.0
  9
$LIMMIN
 10
780.726882
 20
140.777108
  9
$LIMMAX
 10
1063.772898
 20
341.755507
  0
ENDSEC
  0
SECTION
  2
TABLES
  0
TABLE
  2
LTYPE
 70
     3
  0
LTYPE
  2
CONTINUOUS
 70
     0
  3
Solid Line
 72
    65
 73
     0
 40
0.0
  0
LTYPE
  2
DASHED
 70
     0
  3
_ _ _ _ _
 72
    65
 73
     2
 40
0.75
 49
0.5
 49
-0.25
  0
LTYPE
  2
DOT
 70
     0
  3
. . . . .
 72
    65
 73
     2
 40
1.0
 49
0.0
 49
-1.0
  0
ENDTAB
  0
ENDSEC
  0
SECTION
  2
BLOCKS
  0
ENDSEC
  0
SECTION
  2
ENTITIES
  0
POLYLINE
  8
0
  6
CONTINUOUS
 62
     1
 66
     1
  0
VERTEX
  8
0
 10
812.176070
 20
332.620125
 30
0.0
  0
VERTEX
  8
0
 10
1050.90717
 20
293.616360
 30
0.0
  0
VERTEX
  8
0
 10
1021.52666
 20
149.91249
 30
0.0
  0
VERTEX
  8
0
 10
892.7374
 20
175.22493
 30
0.0
  0
VERTEX
  8
0
 10
797.30435
 20
197.227055
 30
0.0
  0
VERTEX
  8
0
 10
793.59261
 20
281.185160
 30
0.0
  0
VERTEX
  8
0
 10
812.176070
 20
332.620125
 30
0.0
  0
SEQEND
  8
0
 62
     1
  0
POLYLINE
  8
0
  6
CONTINUOUS
 62
     1
 66
     1
  0
VERTEX
  8
0
 10
990.49648
 20
235.000705
 30
0.0
  0
VERTEX
  8
0
 10
990.48823
 20
234.9907
 30
0.0
  0
VERTEX
  8
0
 10
990.463490
 20
234.9607
 30
0.0
  0
VERTEX
  8
0
 10
990.45524
 20
234.940695
 30
0.0
  0
VERTEX
  8
0
 10
990.45524
 20
234.920695
 30
0.0
  0
VERTEX
  8
0
 10
990.463490
 20
234.89069
 30
0.0
  0
VERTEX
  8
0
 10
990.47174
 20
234.860690
 30
0.0
  0
VERTEX
  8
0
 10
990.49648
 20
234.85069
 30
0.0
  0
VERTEX
  8
0
 10
990.52947
 20
234.840685
 30
0.0
  0
VERTEX
  8
0
 10
990.55422
 20
234.840685
 30
0.0
  0
VERTEX
  8
0
 10
990.578960
 20
234.85069
 30
0.0
  0
VERTEX
  8
0
 10
990.59546
 20
234.870690
 30
0.0
  0
VERTEX
  8
0
 10
990.620210
 20
234.89069
 30
0.0
  0
VERTEX
  8
0
 10
990.620210
 20
234.920695
 30
0.0
  0
VERTEX
  8
0
 10
990.620210
 20
234.940695
 30
0.0
  0
VERTEX
  8
0
 10
990.61196
 20
234.9607
 30
0.0
  0
VERTEX
  8
0
 10
990.59546
 20
234.980700
 30
0.0
  0
VERTEX
  8
0
 10
990.578960
 20
234.9907
 30
0.0
  0
VERTEX
  8
0
 10
990.55422
 20
235.000705
 30
0.0
  0
VERTEX
  8
0
 10
990.537720
 20
235.010705
 30
0.0
  0
VERTEX
  8
0
 10
990.512980
 20
235.000705
 30
0.0
  0
VERTEX
  8
0
 10
990.49648
 20
235.000705
 30
0.0
  0
SEQEND
  8
0
 62
     1
  0
POLYLINE
  8
0
  6
CONTINUOUS
 62
     1
 66
     1
  0
VERTEX
  8
0
 10
1002.39056
 20
220.219275
 30
0.0
  0
VERTEX
  8
0
 10
1002.35756
 20
220.199275
 30
0.0
  0
VERTEX
  8
0
 10
1002.341070
 20
220.169270
 30
0.0
  0
VERTEX
  8
0
 10
1002.332820
 20
220.13927
 30
0.0
  0
VERTEX
  8
0
 10
1002.332820
 20
220.089265
 30
0.0
  0
VERTEX
  8
0
 10
1002.341070
 20
220.04926
 30
0.0
  0
VERTEX
  8
0
 10
1002.365810
 20
220.009255
 30
0.0
  0
VERTEX
  8
0
 10
1002.39056
 20
219.989255
 30
0.0
  0
VERTEX
  8
0
 10
1002.4318
 20
219.979255
 30
0.0
  0
VERTEX
  8
0
 10
1002.47304
 20
219.979255
 30
0.0
  0
VERTEX
  8
0
 10
1002.50603
 20
219.989255
 30
0.0
  0
VERTEX
  8
0
 10
1002.53903
 20
220.019255
 30
0.0
  0
VERTEX
  8
0
 10
1002.56377
 20
220.04926
 30
0.0
  0
VERTEX
  8
0
 10
1002.57202
 20
220.089265
 30
0.0
  0
VERTEX
  8
0
 10
1002.56377
 20
220.13927
 30
0.0
  0
VERTEX
  8
0
 10
1002.555520
 20
220.169270
 30
0.0
  0
VERTEX
  8
0
 10
1002.53903
 20
220.189275
 30
0.0
  0
VERTEX
  8
0
 10
1002.51428
 20
220.209275
 30
0.0
  0
VERTEX
  8
0
 10
1002.481290
 20
220.219275
 30
0.0
  0
VERTEX
  8
0
 10
1002.448290
 20
220.229275
 30
0.0
  0
VERTEX
  8
0
 10
1002.423550
 20
220.229275
 30
0.0
  0
VERTEX
  8
0
 10
1002.39056
 20
220.219275
 30
0.0
  0
SEQEND
  8
0
 62
     1
  0
POLYLINE
  8
0
  6
CONTINUOUS
 62
     1
 66
     1
  0
VERTEX
  8
0
 10
1001.65646
 20
216.208890
 30
0.0
  0
VERTEX
  8
0
 10
1001.62346
 20
216.188885
 30
0.0
  0
VERTEX
  8
0
 10
1001.60697
 20
216.158885
 30
0.0
  0
VERTEX
  8
0
 10
1001.59872
 20
216.128880
 30
0.0
  0
VERTEX
  8
0
 10
1001.59872
 20
216.078875
 30
0.0
  0
VERTEX
  8
0
 10
1001.60697
 20
216.03887
 30
0.0
  0
VERTEX
  8
0
 10
1001.63171
 20
215.99887
 30
0.0
  0
VERTEX
  8
0
 10
1001.65646
 20
215.978865
 30
0.0
  0
VERTEX
  8
0
 10
1001.6977
 20
215.968865
 30
0.0
  0
VERTEX
  8
0
 10
1001.738940
 20
215.968865
 30
0.0
  0
VERTEX
  8
0
 10
1001.771930
 20
215.978865
 30
0.0
  0
VERTEX
  8
0
 10
1001.80493
 20
216.00887
 30
0.0
  0
VERTEX
  8
0
 10
1001.82967
 20
216.03887
 30
0.0
  0
VERTEX
  8
0
 10
1001.837920
 20
216.078875
 30
0.0
  0
VERTEX
  8
0
 10
1001.82967
 20
216.128880
 30
0.0
  0
VERTEX
  8
0
 10
1001.821420
 20
216.158885
 30
0.0
  0
VERTEX
  8
0
 10
1001.80493
 20
216.178885
 30
0.0
  0
VERTEX
  8
0
 10
1001.780180
 20
216.198890
 30
0.0
  0
VERTEX
  8
0
 10
1001.747190
 20
216.208890
 30
0.0
  0
VERTEX
  8
0
 10
1001.71419
 20
216.218890
 30
0.0
  0
VERTEX
  8
0
 10
1001.68945
 20
216.218890
 30
0.0
  0
VERTEX
  8
0
 10
1001.65646
 20
216.208890
 30
0.0
  0
SEQEND
  8
0
 62
     1
  0
POLYLINE
  8
0
  6
CONTINUOUS
 62
     1
 66
     1
  0
VERTEX
  8
0
 10
996.31155
 20
217.178980
 30
0.0
  0
VERTEX
  8
0
 10
996.27855
 20
217.158980
 30
0.0
  0
VERTEX
  8
0
 10
996.262060
 20
217.128975
 30
0.0
  0
VERTEX
  8
0
 10
996.25381
 20
217.098975
 30
0.0
  0
VERTEX
  8
0
 10
996.25381
 20
217.04897
 30
0.0
  0
VERTEX
  8
0
 10
996.262060
 20
217.008965
 30
0.0
  0
VERTEX
  8
0
 10
996.2868
 20
216.96896
 30
0.0
  0
VERTEX
  8
0
 10
996.31155
 20
216.94896
 30
0.0
  0
VERTEX
  8
0
 10
996.35279
 20
216.93896
 30
0.0
  0
VERTEX
  8
0
 10
996.39403
 20
216.93896
 30
0.0
  0
VERTEX
  8
0
 10
996.42702
 20
216.94896
 30
0.0
  0
VERTEX
  8
0
 10
996.46002
 20
216.978965
 30
0.0
  0
VERTEX
  8
0
 10
996.484760
 20
217.008965
 30
0.0
  0
VERTEX
  8
0
 10
996.49301
 20
217.04897
 30
0.0
  0
VERTEX
  8
0
 10
996.484760
 20
217.098975
 30
0.0
  0
VERTEX
  8
0
 10
996.476510
 20
217.128975
 30
0.0
  0
VERTEX
  8
0
 10
996.46002
 20
217.14898
 30
0.0
  0
VERTEX
  8
0
 10
996.43527
 20
217.168980
 30
0.0
  0
VERTEX
  8
0
 10
996.40228
 20
217.178980
 30
0.0
  0
VERTEX
  8
0
 10
996.36928
 20
217.188985
 30
0.0
  0
VERTEX
  8
0
 10
996.34454
 20
217.188985
 30
0.0
  0
VERTEX
  8
0
 10
996.31155
 20
217.178980
 30
0.0
  0
SEQEND
  8
0
 62
     1
  0
POLYLINE
  8
0
  6
CONTINUOUS
 62
     1
 66
     1
  0
VERTEX
  8
0
 10
997.04565
 20
221.18937
 30
0.0
  0
VERTEX
  8
0
 10
997.01265
 20
221.169365
 30
0.0
  0
VERTEX
  8
0
 10
996.996160
 20
221.139365
 30
0.0
  0
VERTEX
  8
0
 10
996.98791
 20
221.10936
 30
0.0
  0
VERTEX
  8
0
 10
996.98791
 20
221.059355
 30
0.0
  0
VERTEX
  8
0
 10
996.996160
 20
221.019355
 30
0.0
  0
VERTEX
  8
0
 10
997.0209
 20
220.97935
 30
0.0
  0
VERTEX
  8
0
 10
997.04565
 20
220.959345
 30
0.0
  0
VERTEX
  8
0
 10
997.086890
 20
220.949345
 30
0.0
  0
VERTEX
  8
0
 10
997.12813
 20
220.949345
 30
0.0
  0
VERTEX
  8
0
 10
997.16112
 20
220.959345
 30
0.0
  0
VERTEX
  8
0
 10
997.19412
 20
220.98935
 30
0.0
  0
VERTEX
  8
0
 10
997.21886
 20
221.019355
 30
0.0
  0
VERTEX
  8
0
 10
997.22711
 20
221.059355
 30
0.0
  0
VERTEX
  8
0
 10
997.21886
 20
221.10936
 30
0.0
  0
VERTEX
  8
0
 10
997.210610
 20
221.139365
 30
0.0
  0
VERTEX
  8
0
 10
997.19412
 20
221.159365
 30
0.0
  0
VERTEX
  8
0
 10
997.169370
 20
221.17937
 30
0.0
  0
VERTEX
  8
0
 10
997.13638
 20
221.18937
 30
0.0
  0
VERTEX
  8
0
 10
997.10338
 20
221.19937
 30
0.0
  0
VERTEX
  8
0
 10
997.078640
 20
221.19937
 30
0.0
  0
VERTEX
  8
0
 10
997.04565
 20
221.18937
 30
0.0
  0
SEQEND
  8
0
 62
     1
  0
POLYLINE
  8
0
  6
CONTINUOUS
 62
     1
 66
     1
  0
VERTEX
  8
0
 10
1012.67621
 20
213.388615
 30
0.0
  0
VERTEX
  8
0
 10
1012.643220
 20
213.368615
 30
0.0
  0
VERTEX
  8
0
 10
1012.626720
 20
213.338610
 30
0.0
  0
VERTEX
  8
0
 10
1012.61847
 20
213.30861
 30
0.0
  0
VERTEX
  8
0
 10
1012.61847
 20
213.258605
 30
0.0
  0
VERTEX
  8
0
 10
1012.626720
 20
213.2186
 30
0.0
  0
VERTEX
  8
0
 10
1012.65147
 20
213.178595
 30
0.0
  0
VERTEX
  8
0
 10
1012.67621
 20
213.158595
 30
0.0
  0
VERTEX
  8
0
 10
1012.71745
 20
213.148595
 30
0.0
  0
VERTEX
  8
0
 10
1012.75869
 20
213.148595
 30
0.0
  0
VERTEX
  8
0
 10
1012.791690
 20
213.158595
 30
0.0
  0
VERTEX
  8
0
 10
1012.824680
 20
213.188595
 30
0.0
  0
VERTEX
  8
0
 10
1012.849430
 20
213.2186
 30
0.0
  0
VERTEX
  8
0
 10
1012.85767
 20
213.258605
 30
0.0
  0
VERTEX
  8
0
 10
1012.849430
 20
213.30861
 30
0.0
  0
VERTEX
  8
0
 10
1012.84118
 20
213.338610
 30
0.0
  0
VERTEX
  8
0
 10
1012.824680
 20
213.358615
 30
0.0
  0
VERTEX
  8
0
 10
1012.79994
 20
213.378615
 30
0.0
  0
VERTEX
  8
0
 10
1012.766940
 20
213.388615
 30
0.0
  0
VERTEX
  8
0
 10
1012.73395
 20
213.398615
 30
0.0
  0
VERTEX
  8
0
 10
1012.709200
 20
213.398615
 30
0.0
  0
VERTEX
  8
0
 10
1012.67621
 20
213.388615
 30
0.0
  0
SEQEND
  8
0
 62
     1
  0
POLYLINE
  8
0
  6
CONTINUOUS
 62
     1
 66
     1
  0
VERTEX
  8
0
 10
1013.46805
 20
218.999160
 30
0.0
  0
VERTEX
  8
0
 10
1013.43506
 20
218.979155
 30
0.0
  0
VERTEX
  8
0
 10
1013.418560
 20
218.949155
 30
0.0
  0
VERTEX
  8
0
 10
1013.410310
 20
218.91915
 30
0.0
  0
VERTEX
  8
0
 10
1013.410310
 20
218.869145
 30
0.0
  0
VERTEX
  8
0
 10
1013.418560
 20
218.829140
 30
0.0
  0
VERTEX
  8
0
 10
1013.443300
 20
218.789140
 30
0.0
  0
VERTEX
  8
0
 10
1013.46805
 20
218.769135
 30
0.0
  0
VERTEX
  8
0
 10
1013.50929
 20
218.759135
 30
0.0
  0
VERTEX
  8
0
 10
1013.55053
 20
218.759135
 30
0.0
  0
VERTEX
  8
0
 10
1013.58353
 20
218.769135
 30
0.0
  0
VERTEX
  8
0
 10
1013.61652
 20
218.799140
 30
0.0
  0
VERTEX
  8
0
 10
1013.64126
 20
218.829140
 30
0.0
  0
VERTEX
  8
0
 10
1013.64951
 20
218.869145
 30
0.0
  0
VERTEX
  8
0
 10
1013.64126
 20
218.91915
 30
0.0
  0
VERTEX
  8
0
 10
1013.63302
 20
218.949155
 30
0.0
  0
VERTEX
  8
0
 10
1013.61652
 20
218.969155
 30
0.0
  0
VERTEX
  8
0
 10
1013.59177
 20
218.989155
 30
0.0
  0
VERTEX
  8
0
 10
1013.55878
 20
218.999160
 30
0.0
  0
VERTEX
  8
0
 10
1013.52579
 20
219.00916
 30
0.0
  0
VERTEX
  8
0
 10
1013.501040
 20
219.00916
 30
0.0
  0
VERTEX
  8
0
 10
1013.46805
 20
218.999160
 30
0.0
  0
SEQEND
  8
0
 62
     1
  0
POLYLINE
  8
0
  6
CONTINUOUS
 62
     1
 66
     1
  0
VERTEX
  8
0
 10
973.26574
 20
231.26034
 30
0.0
  0
VERTEX
  8
0
 10
973.208
 20
231.230340
 30
0.0
  0
VERTEX
  8
0
 10
973.18326
 20
231.180335
 30
0.0
  0
VERTEX
  8
0
 10
973.16676
 20
231.13033
 30
0.0
  0
VERTEX
  8
0
 10
973.16676
 20
231.04032
 30
0.0
  0
VERTEX
  8
0
 10
973.18326
 20
230.980315
 30
0.0
  0
VERTEX
  8
0
 10
973.224500
 20
230.91031
 30
0.0
  0
VERTEX
  8
0
 10
973.26574
 20
230.880305
 30
0.0
  0
VERTEX
  8
0
 10
973.33173
 20
230.860305
 30
0.0
  0
VERTEX
  8
0
 10
973.405960
 20
230.860305
 30
0.0
  0
VERTEX
  8
0
 10
973.45545
 20
230.880305
 30
0.0
  0
VERTEX
  8
0
 10
973.51319
 20
230.93031
 30
0.0
  0
VERTEX
  8
0
 10
973.554430
 20
230.980315
 30
0.0
  0
VERTEX
  8
0
 10
973.57093
 20
231.04032
 30
0.0
  0
VERTEX
  8
0
 10
973.554430
 20
231.13033
 30
0.0
  0
VERTEX
  8
0
 10
973.54618
 20
231.180335
 30
0.0
  0
VERTEX
  8
0
 10
973.51319
 20
231.210335
 30
0.0
  0
VERTEX
  8
0
 10
973.47195
 20
231.25034
 30
0.0
  0
VERTEX
  8
0
 10
973.41421
 20
231.26034
 30
0.0
  0
VERTEX
  8
0
 10
973.36472
 20
231.280345
 30
0.0
  0
VERTEX
  8
0
 10
973.32348
 20
231.280345
 30
0.0
  0
VERTEX
  8
0
 10
973.26574
 20
231.26034
 30
0.0
  0
SEQEND
  8
0
 62
     1
  0
POLYLINE
  8
0
  6
CONTINUOUS
 62
     1
 66
     1
  0
VERTEX
  8
0
 10
970.55205
 20
216.22889
 30
0.0
  0
VERTEX
  8
0
 10
970.494310
 20
216.198890
 30
0.0
  0
VERTEX
  8
0
 10
970.46956
 20
216.148885
 30
0.0
  0
VERTEX
  8
0
 10
970.453070
 20
216.09888
 30
0.0
  0
VERTEX
  8
0
 10
970.453070
 20
216.00887
 30
0.0
  0
VERTEX
  8
0
 10
970.46956
 20
215.948865
 30
0.0
  0
VERTEX
  8
0
 10
970.5108
 20
215.878855
 30
0.0
  0
VERTEX
  8
0
 10
970.55205
 20
215.848855
 30
0.0
  0
VERTEX
  8
0
 10
970.61803
 20
215.828850
 30
0.0
  0
VERTEX
  8
0
 10
970.692270
 20
215.828850
 30
0.0
  0
VERTEX
  8
0
 10
970.74176
 20
215.848855
 30
0.0
  0
VERTEX
  8
0
 10
970.79949
 20
215.89886
 30
0.0
  0
VERTEX
  8
0
 10
970.84074
 20
215.948865
 30
0.0
  0
VERTEX
  8
0
 10
970.85723
 20
216.00887
 30
0.0
  0
VERTEX
  8
0
 10
970.84074
 20
216.09888
 30
0.0
  0
VERTEX
  8
0
 10
970.83249
 20
216.148885
 30
0.0
  0
VERTEX
  8
0
 10
970.79949
 20
216.178885
 30
0.0
  0
VERTEX
  8
0
 10
970.758250
 20
216.218890
 30
0.0
  0
VERTEX
  8
0
 10
970.70051
 20
216.22889
 30
0.0
  0
VERTEX
  8
0
 10
970.651020
 20
216.24889
 30
0.0
  0
VERTEX
  8
0
 10
970.60978
 20
216.24889
 30
0.0
  0
VERTEX
  8
0
 10
970.55205
 20
216.22889
 30
0.0
  0
SEQEND
  8
0
 62
     1
  0
POLYLINE
  8
0
  6
CONTINUOUS
 62
     1
 66
     1
  0
VERTEX
  8
0
 10
960.835530
 20
221.649415
 30
0.0
  0
VERTEX
  8
0
 10
960.7118
 20
221.579405
 30
0.0
  0
VERTEX
  8
0
 10
960.654060
 20
221.479395
 30
0.0
  0
VERTEX
  8
0
 10
960.62107
 20
221.369385
 30
0.0
  0
VERTEX
  8
0
 10
960.62107
 20
221.17937
 30
0.0
  0
VERTEX
  8
0
 10
960.654060
 20
221.049355
 30
0.0
  0
VERTEX
  8
0
 10
960.744790
 20
220.899340
 30
0.0
  0
VERTEX
  8
0
 10
960.835530
 20
220.829335
 30
0.0
  0
VERTEX
  8
0
 10
960.97575
 20
220.789330
 30
0.0
  0
VERTEX
  8
0
 10
961.14071
 20
220.789330
 30
0.0
  0
VERTEX
  8
0
 10
961.247940
 20
220.829335
 30
0.0
  0
VERTEX
  8
0
 10
961.371670
 20
220.939345
 30
0.0
  0
VERTEX
  8
0
 10
961.4624
 20
221.049355
 30
0.0
  0
VERTEX
  8
0
 10
961.49539
 20
221.17937
 30
0.0
  0
VERTEX
  8
0
 10
961.4624
 20
221.369385
 30
0.0
  0
VERTEX
  8
0
 10
961.445900
 20
221.479395
 30
0.0
  0
VERTEX
  8
0
 10
961.371670
 20
221.539405
 30
0.0
  0
VERTEX
  8
0
 10
961.28093
 20
221.629410
 30
0.0
  0
VERTEX
  8
0
 10
961.15721
 20
221.649415
 30
0.0
  0
VERTEX
  8
0
 10
961.04998
 20
221.68942
 30
0.0
  0
VERTEX
  8
0
 10
960.95925
 20
221.68942
 30
0.0
  0
VERTEX
  8
0
 10
960.835530
 20
221.649415
 30
0.0
  0
SEQEND
  8
0
 62
     1
  0
POLYLINE
  8
0
  6
CONTINUOUS
 62
     1
 66
     1
  0
VERTEX
  8
0
 10
962.452200
 20
230.060225
 30
0.0
  0
VERTEX
  8
0
 10
962.328470
 20
229.99022
 30
0.0
  0
VERTEX
  8
0
 10
962.27073
 20
229.890210
 30
0.0
  0
VERTEX
  8
0
 10
962.23774
 20
229.7802
 30
0.0
  0
VERTEX
  8
0
 10
962.23774
 20
229.59018
 30
0.0
  0
VERTEX
  8
0
 10
962.27073
 20
229.460170
 30
0.0
  0
VERTEX
  8
0
 10
962.36146
 20
229.310155
 30
0.0
  0
VERTEX
  8
0
 10
962.452200
 20
229.240145
 30
0.0
  0
VERTEX
  8
0
 10
962.59242
 20
229.200145
 30
0.0
  0
VERTEX
  8
0
 10
962.75738
 20
229.200145
 30
0.0
  0
VERTEX
  8
0
 10
962.86461
 20
229.240145
 30
0.0
  0
VERTEX
  8
0
 10
962.98834
 20
229.350155
 30
0.0
  0
VERTEX
  8
0
 10
963.07907
 20
229.460170
 30
0.0
  0
VERTEX
  8
0
 10
963.112060
 20
229.59018
 30
0.0
  0
VERTEX
  8
0
 10
963.07907
 20
229.7802
 30
0.0
  0
VERTEX
  8
0
 10
963.062570
 20
229.890210
 30
0.0
  0
VERTEX
  8
0
 10
962.98834
 20
229.950215
 30
0.0
  0
VERTEX
  8
0
 10
962.89761
 20
230.040225
 30
0.0
  0
VERTEX
  8
0
 10
962.773880
 20
230.060225
 30
0.0
  0
VERTEX
  8
0
 10
962.66665
 20
230.100230
 30
0.0
  0
VERTEX
  8
0
 10
962.575920
 20
230.100230
 30
0.0
  0
VERTEX
  8
0
 10
962.452200
 20
230.060225
 30
0.0
  0
SEQEND
  8
0
 62
     1
  0
POLYLINE
  8
0
  6
CONTINUOUS
 62
     1
 66
     1
  0
VERTEX
  8
0
 10
910.92495
 20
245.691735
 30
0.0
  0
VERTEX
  8
0
 10
910.850710
 20
245.3217
 30
0.0
  0
VERTEX
  8
0
 10
911.35386
 20
245.23169
 30
0.0
  0
VERTEX
  8
0
 10
911.41985
 20
245.601725
 30
0.0
  0
VERTEX
  8
0
 10
910.92495
 20
245.691735
 30
0.0
  0
SEQEND
  8
0
 62
     1
  0
POLYLINE
  8
0
  6
CONTINUOUS
 62
     1
 66
     1
  0
VERTEX
  8
0
 10
960.010690
 20
240.641245
 30
0.0
  0
VERTEX
  8
0
 10
959.98595
 20
240.631245
 30
0.0
  0
VERTEX
  8
0
 10
959.96945
 20
240.601245
 30
0.0
  0
VERTEX
  8
0
 10
959.9612
 20
240.581240
 30
0.0
  0
VERTEX
  8
0
 10
959.9612
 20
240.531235
 30
0.0
  0
VERTEX
  8
0
 10
959.96945
 20
240.501235
 30
0.0
  0
VERTEX
  8
0
 10
959.994200
 20
240.47123
 30
0.0
  0
VERTEX
  8
0
 10
960.010690
 20
240.451230
 30
0.0
  0
VERTEX
  8
0
 10
960.051940
 20
240.44123
 30
0.0
  0
VERTEX
  8
0
 10
960.08493
 20
240.44123
 30
0.0
  0
VERTEX
  8
0
 10
960.117920
 20
240.451230
 30
0.0
  0
VERTEX
  8
0
 10
960.14267
 20
240.48123
 30
0.0
  0
VERTEX
  8
0
 10
960.167410
 20
240.501235
 30
0.0
  0
VERTEX
  8
0
 10
960.17566
 20
240.531235
 30
0.0
  0
VERTEX
  8
0
 10
960.167410
 20
240.581240
 30
0.0
  0
VERTEX
  8
0
 10
960.15916
 20
240.601245
 30
0.0
  0
VERTEX
  8
0
 10
960.14267
 20
240.621245
 30
0.0
  0
VERTEX
  8
0
 10
960.12617
 20
240.641245
 30
0.0
  0
VERTEX
  8
0
 10
960.093180
 20
240.641245
 30
0.0
  0
VERTEX
  8
0
 10
960.06843
 20
240.65125
 30
0.0
  0
VERTEX
  8
0
 10
960.04369
 20
240.65125
 30
0.0
  0
VERTEX
  8
0
 10
960.010690
 20
240.641245
 30
0.0
  0
SEQEND
  8
0
 62
     1
  0
POLYLINE
  8
0
  6
CONTINUOUS
 62
     1
 66
     1
  0
VERTEX
  8
0
 10
961.998540
 20
241.251305
 30
0.0
  0
VERTEX
  8
0
 10
961.97379
 20
241.241305
 30
0.0
  0
VERTEX
  8
0
 10
961.9573
 20
241.2113
 30
0.0
  0
VERTEX
  8
0
 10
961.94905
 20
241.1913
 30
0.0
  0
VERTEX
  8
0
 10
961.94905
 20
241.141295
 30
0.0
  0
VERTEX
  8
0
 10
961.9573
 20
241.111295
 30
0.0
  0
VERTEX
  8
0
 10
961.98204
 20
241.08129
 30
0.0
  0
VERTEX
  8
0
 10
961.998540
 20
241.06129
 30
0.0
  0
VERTEX
  8
0
 10
962.039780
 20
241.051285
 30
0.0
  0
VERTEX
  8
0
 10
962.07277
 20
241.051285
 30
0.0
  0
VERTEX
  8
0
 10
962.10577
 20
241.06129
 30
0.0
  0
VERTEX
  8
0
 10
962.13051
 20
241.09129
 30
0.0
  0
VERTEX
  8
0
 10
962.155260
 20
241.111295
 30
0.0
  0
VERTEX
  8
0
 10
962.1635
 20
241.141295
 30
0.0
  0
VERTEX
  8
0
 10
962.155260
 20
241.1913
 30
0.0
  0
VERTEX
  8
0
 10
962.14701
 20
241.2113
 30
0.0
  0
VERTEX
  8
0
 10
962.13051
 20
241.231305
 30
0.0
  0
VERTEX
  8
0
 10
962.114010
 20
241.251305
 30
0.0
  0
VERTEX
  8
0
 10
962.08102
 20
241.251305
 30
0.0
  0
VERTEX
  8
0
 10
962.05628
 20
241.261305
 30
0.0
  0
VERTEX
  8
0
 10
962.03153
 20
241.261305
 30
0.0
  0
VERTEX
  8
0
 10
961.998540
 20
241.251305
 30
0.0
  0
SEQEND
  8
0
 62
     1
  0
POLYLINE
  8
0
  6
CONTINUOUS
 62
     1
 66
     1
  0
VERTEX
  8
0
 10
964.794720
 20
240.731255
 30
0.0
  0
VERTEX
  8
0
 10
964.76997
 20
240.721255
 30
0.0
  0
VERTEX
  8
0
 10
964.75348
 20
240.69125
 30
0.0
  0
VERTEX
  8
0
 10
964.745230
 20
240.671250
 30
0.0
  0
VERTEX
  8
0
 10
964.745230
 20
240.621245
 30
0.0
  0
VERTEX
  8
0
 10
964.75348
 20
240.591245
 30
0.0
  0
VERTEX
  8
0
 10
964.77822
 20
240.56124
 30
0.0
  0
VERTEX
  8
0
 10
964.794720
 20
240.541240
 30
0.0
  0
VERTEX
  8
0
 10
964.83596
 20
240.531235
 30
0.0
  0
VERTEX
  8
0
 10
964.86895
 20
240.531235
 30
0.0
  0
VERTEX
  8
0
 10
964.90195
 20
240.541240
 30
0.0
  0
VERTEX
  8
0
 10
964.92669
 20
240.57124
 30
0.0
  0
VERTEX
  8
0
 10
964.951440
 20
240.591245
 30
0.0
  0
VERTEX
  8
0
 10
964.95968
 20
240.621245
 30
0.0
  0
VERTEX
  8
0
 10
964.951440
 20
240.671250
 30
0.0
  0
VERTEX
  8
0
 10
964.943190
 20
240.69125
 30
0.0
  0
VERTEX
  8
0
 10
964.92669
 20
240.711255
 30
0.0
  0
VERTEX
  8
0
 10
964.910190
 20
240.731255
 30
0.0
  0
VERTEX
  8
0
 10
964.8772
 20
240.731255
 30
0.0
  0
VERTEX
  8
0
 10
964.852460
 20
240.741255
 30
0.0
  0
VERTEX
  8
0
 10
964.82771
 20
240.741255
 30
0.0
  0
VERTEX
  8
0
 10
964.794720
 20
240.731255
 30
0.0
  0
SEQEND
  8
0
 62
     1
  0
POLYLINE
  8
0
  6
CONTINUOUS
 62
     1
 66
     1
  0
VERTEX
  8
0
 10
964.629750
 20
239.811165
 30
0.0
  0
VERTEX
  8
0
 10
964.60501
 20
239.801165
 30
0.0
  0
VERTEX
  8
0
 10
964.58851
 20
239.771165
 30
0.0
  0
VERTEX
  8
0
 10
964.580260
 20
239.751160
 30
0.0
  0
VERTEX
  8
0
 10
964.580260
 20
239.701155
 30
0.0
  0
VERTEX
  8
0
 10
964.58851
 20
239.671155
 30
0.0
  0
VERTEX
  8
0
 10
964.61326
 20
239.64115
 30
0.0
  0
VERTEX
  8
0
 10
964.629750
 20
239.621150
 30
0.0
  0
VERTEX
  8
0
 10
964.67099
 20
239.611150
 30
0.0
  0
VERTEX
  8
0
 10
964.70399
 20
239.611150
 30
0.0
  0
VERTEX
  8
0
 10
964.73698
 20
239.621150
 30
0.0
  0
VERTEX
  8
0
 10
964.76173
 20
239.65115
 30
0.0
  0
VERTEX
  8
0
 10
964.78647
 20
239.671155
 30
0.0
  0
VERTEX
  8
0
 10
964.794720
 20
239.701155
 30
0.0
  0
VERTEX
  8
0
 10
964.78647
 20
239.751160
 30
0.0
  0
VERTEX
  8
0
 10
964.77822
 20
239.771165
 30
0.0
  0
VERTEX
  8
0
 10
964.76173
 20
239.791165
 30
0.0
  0
VERTEX
  8
0
 10
964.745230
 20
239.811165
 30
0.0
  0
VERTEX
  8
0
 10
964.71224
 20
239.811165
 30
0.0
  0
VERTEX
  8
0
 10
964.68749
 20
239.821170
 30
0.0
  0
VERTEX
  8
0
 10
964.66275
 20
239.821170
 30
0.0
  0
VERTEX
  8
0
 10
964.629750
 20
239.811165
 30
0.0
  0
SEQEND
  8
0
 62
     1
  0
POLYLINE
  8
0
  6
CONTINUOUS
 62
     1
 66
     1
  0
VERTEX
  8
0
 10
965.520570
 20
244.681635
 30
0.0
  0
VERTEX
  8
0
 10
965.495830
 20
244.671635
 30
0.0
  0
VERTEX
  8
0
 10
965.479330
 20
244.641635
 30
0.0
  0
VERTEX
  8
0
 10
965.47108
 20
244.62163
 30
0.0
  0
VERTEX
  8
0
 10
965.47108
 20
244.571625
 30
0.0
  0
VERTEX
  8
0
 10
965.479330
 20
244.541625
 30
0.0
  0
VERTEX
  8
0
 10
965.50407
 20
244.51162
 30
0.0
  0
VERTEX
  8
0
 10
965.520570
 20
244.49162
 30
0.0
  0
VERTEX
  8
0
 10
965.56181
 20
244.481620
 30
0.0
  0
VERTEX
  8
0
 10
965.594810
 20
244.481620
 30
0.0
  0
VERTEX
  8
0
 10
965.6278
 20
244.49162
 30
0.0
  0
VERTEX
  8
0
 10
965.65254
 20
244.521620
 30
0.0
  0
VERTEX
  8
0
 10
965.677290
 20
244.541625
 30
0.0
  0
VERTEX
  8
0
 10
965.68554
 20
244.571625
 30
0.0
  0
VERTEX
  8
0
 10
965.677290
 20
244.62163
 30
0.0
  0
VERTEX
  8
0
 10
965.669040
 20
244.641635
 30
0.0
  0
VERTEX
  8
0
 10
965.65254
 20
244.661635
 30
0.0
  0
VERTEX
  8
0
 10
965.636050
 20
244.681635
 30
0.0
  0
VERTEX
  8
0
 10
965.60305
 20
244.681635
 30
0.0
  0
VERTEX
  8
0
 10
965.578310
 20
244.691640
 30
0.0
  0
VERTEX
  8
0
 10
965.553560
 20
244.691640
 30
0.0
  0
VERTEX
  8
0
 10
965.520570
 20
244.681635
 30
0.0
  0
SEQEND
  8
0
 62
     1
  0
POLYLINE
  8
0
  6
CONTINUOUS
 62
     1
 66
     1
  0
VERTEX
  8
0
 10
962.633660
 20
245.171685
 30
0.0
  0
VERTEX
  8
0
 10
962.60891
 20
245.161685
 30
0.0
  0
VERTEX
  8
0
 10
962.59242
 20
245.131680
 30
0.0
  0
VERTEX
  8
0
 10
962.58417
 20
245.111680
 30
0.0
  0
VERTEX
  8
0
 10
962.58417
 20
245.061675
 30
0.0
  0
VERTEX
  8
0
 10
962.59242
 20
245.031670
 30
0.0
  0
VERTEX
  8
0
 10
962.61716
 20
245.00167
 30
0.0
  0
VERTEX
  8
0
 10
962.633660
 20
244.981665
 30
0.0
  0
VERTEX
  8
0
 10
962.6749
 20
244.971665
 30
0.0
  0
VERTEX
  8
0
 10
962.70789
 20
244.971665
 30
0.0
  0
VERTEX
  8
0
 10
962.740890
 20
244.981665
 30
0.0
  0
VERTEX
  8
0
 10
962.76563
 20
245.01167
 30
0.0
  0
VERTEX
  8
0
 10
962.79038
 20
245.031670
 30
0.0
  0
VERTEX
  8
0
 10
962.79863
 20
245.061675
 30
0.0
  0
VERTEX
  8
0
 10
962.79038
 20
245.111680
 30
0.0
  0
VERTEX
  8
0
 10
962.782130
 20
245.131680
 30
0.0
  0
VERTEX
  8
0
 10
962.76563
 20
245.151685
 30
0.0
  0
VERTEX
  8
0
 10
962.74914
 20
245.171685
 30
0.0
  0
VERTEX
  8
0
 10
962.71614
 20
245.171685
 30
0.0
  0
VERTEX
  8
0
 10
962.691400
 20
245.181685
 30
0.0
  0
VERTEX
  8
0
 10
962.66665
 20
245.181685
 30
0.0
  0
VERTEX
  8
0
 10
962.633660
 20
245.171685
 30
0.0
  0
SEQEND
  8
0
 62
     1
  0
POLYLINE
  8
0
  6
CONTINUOUS
 62
     1
 66
     1
  0
VERTEX
  8
0
 10
967.74762
 20
245.891755
 30
0.0
  0
VERTEX
  8
0
 10
967.72287
 20
245.881755
 30
0.0
  0
VERTEX
  8
0
 10
967.70638
 20
245.85175
 30
0.0
  0
VERTEX
  8
0
 10
967.698130
 20
245.831750
 30
0.0
  0
VERTEX
  8
0
 10
967.698130
 20
245.781745
 30
0.0
  0
VERTEX
  8
0
 10
967.70638
 20
245.751740
 30
0.0
  0
VERTEX
  8
0
 10
967.73112
 20
245.72174
 30
0.0
  0
VERTEX
  8
0
 10
967.74762
 20
245.701735
 30
0.0
  0
VERTEX
  8
0
 10
967.78886
 20
245.691735
 30
0.0
  0
VERTEX
  8
0
 10
967.82185
 20
245.691735
 30
0.0
  0
VERTEX
  8
0
 10
967.85484
 20
245.701735
 30
0.0
  0
VERTEX
  8
0
 10
967.87959
 20
245.73174
 30
0.0
  0
VERTEX
  8
0
 10
967.904330
 20
245.751740
 30
0.0
  0
VERTEX
  8
0
 10
967.91258
 20
245.781745
 30
0.0
  0
VERTEX
  8
0
 10
967.904330
 20
245.831750
 30
0.0
  0
VERTEX
  8
0
 10
967.89609
 20
245.85175
 30
0.0
  0
VERTEX
  8
0
 10
967.87959
 20
245.871750
 30
0.0
  0
VERTEX
  8
0
 10
967.86309
 20
245.891755
 30
0.0
  0
VERTEX
  8
0
 10
967.8301
 20
245.891755
 30
0.0
  0
VERTEX
  8
0
 10
967.80535
 20
245.901755
 30
0.0
  0
VERTEX
  8
0
 10
967.78061
 20
245.901755
 30
0.0
  0
VERTEX
  8
0
 10
967.74762
 20
245.891755
 30
0.0
  0
SEQEND
  8
0
 62
     1
  0
POLYLINE
  8
0
  6
CONTINUOUS
 62
     1
 66
     1
  0
VERTEX
  8
0
 10
963.35951
 20
249.08206
 30
0.0
  0
VERTEX
  8
0
 10
963.33477
 20
249.07206
 30
0.0
  0
VERTEX
  8
0
 10
963.31827
 20
249.04206
 30
0.0
  0
VERTEX
  8
0
 10
963.31002
 20
249.022055
 30
0.0
  0
VERTEX
  8
0
 10
963.31002
 20
248.97205
 30
0.0
  0
VERTEX
  8
0
 10
963.31827
 20
248.94205
 30
0.0
  0
VERTEX
  8
0
 10
963.34301
 20
248.912045
 30
0.0
  0
VERTEX
  8
0
 10
963.35951
 20
248.892045
 30
0.0
  0
VERTEX
  8
0
 10
963.40075
 20
248.882045
 30
0.0
  0
VERTEX
  8
0
 10
963.43375
 20
248.882045
 30
0.0
  0
VERTEX
  8
0
 10
963.46674
 20
248.892045
 30
0.0
  0
VERTEX
  8
0
 10
963.49148
 20
248.922045
 30
0.0
  0
VERTEX
  8
0
 10
963.51623
 20
248.94205
 30
0.0
  0
VERTEX
  8
0
 10
963.52448
 20
248.97205
 30
0.0
  0
VERTEX
  8
0
 10
963.51623
 20
249.022055
 30
0.0
  0
VERTEX
  8
0
 10
963.50798
 20
249.04206
 30
0.0
  0
VERTEX
  8
0
 10
963.49148
 20
249.06206
 30
0.0
  0
VERTEX
  8
0
 10
963.47499
 20
249.08206
 30
0.0
  0
VERTEX
  8
0
 10
963.44199
 20
249.08206
 30
0.0
  0
VERTEX
  8
0
 10
963.41725
 20
249.092065
 30
0.0
  0
VERTEX
  8
0
 10
963.392500
 20
249.092065
 30
0.0
  0
VERTEX
  8
0
 10
963.35951
 20
249.08206
 30
0.0
  0
SEQEND
  8
0
 62
     1
  0
POLYLINE
  8
0
  6
CONTINUOUS
 62
     1
 66
     1
  0
VERTEX
  8
0
 10
966.254670
 20
248.582015
 30
0.0
  0
VERTEX
  8
0
 10
966.229930
 20
248.572015
 30
0.0
  0
VERTEX
  8
0
 10
966.213430
 20
248.54201
 30
0.0
  0
VERTEX
  8
0
 10
966.20518
 20
248.52201
 30
0.0
  0
VERTEX
  8
0
 10
966.20518
 20
248.472005
 30
0.0
  0
VERTEX
  8
0
 10
966.213430
 20
248.442
 30
0.0
  0
VERTEX
  8
0
 10
966.23817
 20
248.412000
 30
0.0
  0
VERTEX
  8
0
 10
966.254670
 20
248.391995
 30
0.0
  0
VERTEX
  8
0
 10
966.29591
 20
248.381995
 30
0.0
  0
VERTEX
  8
0
 10
966.32891
 20
248.381995
 30
0.0
  0
VERTEX
  8
0
 10
966.3619
 20
248.391995
 30
0.0
  0
VERTEX
  8
0
 10
966.38664
 20
248.422000
 30
0.0
  0
VERTEX
  8
0
 10
966.411390
 20
248.442
 30
0.0
  0
VERTEX
  8
0
 10
966.419640
 20
248.472005
 30
0.0
  0
VERTEX
  8
0
 10
966.411390
 20
248.52201
 30
0.0
  0
VERTEX
  8
0
 10
966.40314
 20
248.54201
 30
0.0
  0
VERTEX
  8
0
 10
966.38664
 20
248.56201
 30
0.0
  0
VERTEX
  8
0
 10
966.37015
 20
248.582015
 30
0.0
  0
VERTEX
  8
0
 10
966.33715
 20
248.582015
 30
0.0
  0
VERTEX
  8
0
 10
966.312410
 20
248.592015
 30
0.0
  0
VERTEX
  8
0
 10
966.28766
 20
248.592015
 30
0.0
  0
VERTEX
  8
0
 10
966.254670
 20
248.582015
 30
0.0
  0
SEQEND
  8
0
 62
     1
  0
POLYLINE
  8
0
  6
CONTINUOUS
 62
     1
 66
     1
  0
VERTEX
  8
0
 10
950.18695
 20
242.401415
 30
0.0
  0
VERTEX
  8
0
 10
950.1622
 20
242.391415
 30
0.0
  0
VERTEX
  8
0
 10
950.1457
 20
242.361415
 30
0.0
  0
VERTEX
  8
0
 10
950.137460
 20
242.34141
 30
0.0
  0
VERTEX
  8
0
 10
950.137460
 20
242.291405
 30
0.0
  0
VERTEX
  8
0
 10
950.1457
 20
242.261405
 30
0.0
  0
VERTEX
  8
0
 10
950.17045
 20
242.2314
 30
0.0
  0
VERTEX
  8
0
 10
950.18695
 20
242.2114
 30
0.0
  0
VERTEX
  8
0
 10
950.22819
 20
242.2014
 30
0.0
  0
VERTEX
  8
0
 10
950.261180
 20
242.2014
 30
0.0
  0
VERTEX
  8
0
 10
950.29417
 20
242.2114
 30
0.0
  0
VERTEX
  8
0
 10
950.318920
 20
242.2414
 30
0.0
  0
VERTEX
  8
0
 10
950.343660
 20
242.261405
 30
0.0
  0
VERTEX
  8
0
 10
950.35191
 20
242.291405
 30
0.0
  0
VERTEX
  8
0
 10
950.343660
 20
242.34141
 30
0.0
  0
VERTEX
  8
0
 10
950.335420
 20
242.361415
 30
0.0
  0
VERTEX
  8
0
 10
950.318920
 20
242.381415
 30
0.0
  0
VERTEX
  8
0
 10
950.30242
 20
242.401415
 30
0.0
  0
VERTEX
  8
0
 10
950.26943
 20
242.401415
 30
0.0
  0
VERTEX
  8
0
 10
950.244680
 20
242.411420
 30
0.0
  0
VERTEX
  8
0
 10
950.219940
 20
242.411420
 30
0.0
  0
VERTEX
  8
0
 10
950.18695
 20
242.401415
 30
0.0
  0
SEQEND
  8
0
 62
     1
  0
POLYLINE
  8
0
  6
CONTINUOUS
 62
     1
 66
     1
  0
VERTEX
  8
0
 10
950.6406
 20
243.491525
 30
0.0
  0
VERTEX
  8
0
 10
950.615860
 20
243.48152
 30
0.0
  0
VERTEX
  8
0
 10
950.59936
 20
243.451520
 30
0.0
  0
VERTEX
  8
0
 10
950.591110
 20
243.431515
 30
0.0
  0
VERTEX
  8
0
 10
950.591110
 20
243.381510
 30
0.0
  0
VERTEX
  8
0
 10
950.59936
 20
243.35151
 30
0.0
  0
VERTEX
  8
0
 10
950.624110
 20
243.321505
 30
0.0
  0
VERTEX
  8
0
 10
950.6406
 20
243.301505
 30
0.0
  0
VERTEX
  8
0
 10
950.68184
 20
243.291505
 30
0.0
  0
VERTEX
  8
0
 10
950.71484
 20
243.291505
 30
0.0
  0
VERTEX
  8
0
 10
950.74783
 20
243.301505
 30
0.0
  0
VERTEX
  8
0
 10
950.77258
 20
243.331505
 30
0.0
  0
VERTEX
  8
0
 10
950.797320
 20
243.35151
 30
0.0
  0
VERTEX
  8
0
 10
950.805570
 20
243.381510
 30
0.0
  0
VERTEX
  8
0
 10
950.797320
 20
243.431515
 30
0.0
  0
VERTEX
  8
0
 10
950.789070
 20
243.451520
 30
0.0
  0
VERTEX
  8
0
 10
950.77258
 20
243.47152
 30
0.0
  0
VERTEX
  8
0
 10
950.756080
 20
243.491525
 30
0.0
  0
VERTEX
  8
0
 10
950.723090
 20
243.491525
 30
0.0
  0
VERTEX
  8
0
 10
950.69834
 20
243.501525
 30
0.0
  0
VERTEX
  8
0
 10
950.673600
 20
243.501525
 30
0.0
  0
VERTEX
  8
0
 10
950.6406
 20
243.491525
 30
0.0
  0
SEQEND
  8
0
 62
     1
  0
POLYLINE
  8
0
  6
CONTINUOUS
 62
     1
 66
     1
  0
VERTEX
  8
0
 10
951.20974
 20
247.01186
 30
0.0
  0
VERTEX
  8
0
 10
951.18499
 20
247.001860
 30
0.0
  0
VERTEX
  8
0
 10
951.168500
 20
246.97186
 30
0.0
  0
VERTEX
  8
0
 10
951.160250
 20
246.951855
 30
0.0
  0
VERTEX
  8
0
 10
951.160250
 20
246.90185
 30
0.0
  0
VERTEX
  8
0
 10
951.168500
 20
246.87185
 30
0.0
  0
VERTEX
  8
0
 10
951.19324
 20
246.841845
 30
0.0
  0
VERTEX
  8
0
 10
951.20974
 20
246.821845
 30
0.0
  0
VERTEX
  8
0
 10
951.25098
 20
246.811845
 30
0.0
  0
VERTEX
  8
0
 10
951.28397
 20
246.811845
 30
0.0
  0
VERTEX
  8
0
 10
951.31697
 20
246.821845
 30
0.0
  0
VERTEX
  8
0
 10
951.34171
 20
246.851845
 30
0.0
  0
VERTEX
  8
0
 10
951.366460
 20
246.87185
 30
0.0
  0
VERTEX
  8
0
 10
951.3747
 20
246.90185
 30
0.0
  0
VERTEX
  8
0
 10
951.366460
 20
246.951855
 30
0.0
  0
VERTEX
  8
0
 10
951.35821
 20
246.97186
 30
0.0
  0
VERTEX
  8
0
 10
951.34171
 20
246.99186
 30
0.0
  0
VERTEX
  8
0
 10
951.32521
 20
247.01186
 30
0.0
  0
VERTEX
  8
0
 10
951.292220
 20
247.01186
 30
0.0
  0
VERTEX
  8
0
 10
951.26748
 20
247.021865
 30
0.0
  0
VERTEX
  8
0
 10
951.242730
 20
247.021865
 30
0.0
  0
VERTEX
  8
0
 10
951.20974
 20
247.01186
 30
0.0
  0
SEQEND
  8
0
 62
     1
  0
POLYLINE
  8
0
  6
CONTINUOUS
 62
     1
 66
     1
  0
VERTEX
  8
0
 10
954.014170
 20
242.831460
 30
0.0
  0
VERTEX
  8
0
 10
953.989420
 20
242.82146
 30
0.0
  0
VERTEX
  8
0
 10
953.972920
 20
242.791455
 30
0.0
  0
VERTEX
  8
0
 10
953.96468
 20
242.771455
 30
0.0
  0
VERTEX
  8
0
 10
953.96468
 20
242.72145
 30
0.0
  0
VERTEX
  8
0
 10
953.972920
 20
242.691445
 30
0.0
  0
VERTEX
  8
0
 10
953.99767
 20
242.66144
 30
0.0
  0
VERTEX
  8
0
 10
954.014170
 20
242.64144
 30
0.0
  0
VERTEX
  8
0
 10
954.055410
 20
242.63144
 30
0.0
  0
VERTEX
  8
0
 10
954.0884
 20
242.63144
 30
0.0
  0
VERTEX
  8
0
 10
954.121390
 20
242.64144
 30
0.0
  0
VERTEX
  8
0
 10
954.14614
 20
242.671445
 30
0.0
  0
VERTEX
  8
0
 10
954.17088
 20
242.691445
 30
0.0
  0
VERTEX
  8
0
 10
954.17913
 20
242.72145
 30
0.0
  0
VERTEX
  8
0
 10
954.17088
 20
242.771455
 30
0.0
  0
VERTEX
  8
0
 10
954.162640
 20
242.791455
 30
0.0
  0
VERTEX
  8
0
 10
954.14614
 20
242.811455
 30
0.0
  0
VERTEX
  8
0
 10
954.129640
 20
242.831460
 30
0.0
  0
VERTEX
  8
0
 10
954.096650
 20
242.831460
 30
0.0
  0
VERTEX
  8
0
 10
954.0719
 20
242.84146
 30
0.0
  0
VERTEX
  8
0
 10
954.04716
 20
242.84146
 30
0.0
  0
VERTEX
  8
0
 10
954.014170
 20
242.831460
 30
0.0
  0
SEQEND
  8
0
 62
     1
  0
POLYLINE
  8
0
  6
CONTINUOUS
 62
     1
 66
     1
  0
VERTEX
  8
0
 10
954.65753
 20
246.3818
 30
0.0
  0
VERTEX
  8
0
 10
954.63279
 20
246.3718
 30
0.0
  0
VERTEX
  8
0
 10
954.616290
 20
246.3418
 30
0.0
  0
VERTEX
  8
0
 10
954.608040
 20
246.321795
 30
0.0
  0
VERTEX
  8
0
 10
954.608040
 20
246.27179
 30
0.0
  0
VERTEX
  8
0
 10
954.616290
 20
246.24179
 30
0.0
  0
VERTEX
  8
0
 10
954.64104
 20
246.211785
 30
0.0
  0
VERTEX
  8
0
 10
954.65753
 20
246.191785
 30
0.0
  0
VERTEX
  8
0
 10
954.69878
 20
246.18178
 30
0.0
  0
VERTEX
  8
0
 10
954.73177
 20
246.18178
 30
0.0
  0
VERTEX
  8
0
 10
954.76476
 20
246.191785
 30
0.0
  0
VERTEX
  8
0
 10
954.78951
 20
246.221785
 30
0.0
  0
VERTEX
  8
0
 10
954.81425
 20
246.24179
 30
0.0
  0
VERTEX
  8
0
 10
954.8225
 20
246.27179
 30
0.0
  0
VERTEX
  8
0
 10
954.81425
 20
246.321795
 30
0.0
  0
VERTEX
  8
0
 10
954.806
 20
246.3418
 30
0.0
  0
VERTEX
  8
0
 10
954.78951
 20
246.3618
 30
0.0
  0
VERTEX
  8
0
 10
954.77301
 20
246.3818
 30
0.0
  0
VERTEX
  8
0
 10
954.74002
 20
246.3818
 30
0.0
  0
VERTEX
  8
0
 10
954.71527
 20
246.391805
 30
0.0
  0
VERTEX
  8
0
 10
954.69053
 20
246.391805
 30
0.0
  0
VERTEX
  8
0
 10
954.65753
 20
246.3818
 30
0.0
  0
SEQEND
  8
0
 62
     1
  0
POLYLINE
  8
0
  6
CONTINUOUS
 62
     1
 66
     1
  0
VERTEX
  8
0
 10
945.32869
 20
243.371510
 30
0.0
  0
VERTEX
  8
0
 10
945.303940
 20
243.361510
 30
0.0
  0
VERTEX
  8
0
 10
945.287440
 20
243.331505
 30
0.0
  0
VERTEX
  8
0
 10
945.2792
 20
243.311505
 30
0.0
  0
VERTEX
  8
0
 10
945.2792
 20
243.2615
 30
0.0
  0
VERTEX
  8
0
 10
945.287440
 20
243.231495
 30
0.0
  0
VERTEX
  8
0
 10
945.312190
 20
243.201495
 30
0.0
  0
VERTEX
  8
0
 10
945.32869
 20
243.181495
 30
0.0
  0
VERTEX
  8
0
 10
945.36993
 20
243.17149
 30
0.0
  0
VERTEX
  8
0
 10
945.402920
 20
243.17149
 30
0.0
  0
VERTEX
  8
0
 10
945.43591
 20
243.181495
 30
0.0
  0
VERTEX
  8
0
 10
945.46066
 20
243.211495
 30
0.0
  0
VERTEX
  8
0
 10
945.4854
 20
243.231495
 30
0.0
  0
VERTEX
  8
0
 10
945.49365
 20
243.2615
 30
0.0
  0
VERTEX
  8
0
 10
945.4854
 20
243.311505
 30
0.0
  0
VERTEX
  8
0
 10
945.47716
 20
243.331505
 30
0.0
  0
VERTEX
  8
0
 10
945.46066
 20
243.35151
 30
0.0
  0
VERTEX
  8
0
 10
945.44416
 20
243.371510
 30
0.0
  0
VERTEX
  8
0
 10
945.41117
 20
243.371510
 30
0.0
  0
VERTEX
  8
0
 10
945.38642
 20
243.381510
 30
0.0
  0
VERTEX
  8
0
 10
945.36168
 20
243.381510
 30
0.0
  0
VERTEX
  8
0
 10
945.32869
 20
243.371510
 30
0.0
  0
SEQEND
  8
0
 62
     1
  0
POLYLINE
  8
0
  6
CONTINUOUS
 62
     1
 66
     1
  0
VERTEX
  8
0
 10
947.159810
 20
239.94118
 30
0.0
  0
VERTEX
  8
0
 10
947.135070
 20
239.93118
 30
0.0
  0
VERTEX
  8
0
 10
947.118570
 20
239.901175
 30
0.0
  0
VERTEX
  8
0
 10
947.11032
 20
239.881175
 30
0.0
  0
VERTEX
  8
0
 10
947.11032
 20
239.831170
 30
0.0
  0
VERTEX
  8
0
 10
947.118570
 20
239.801165
 30
0.0
  0
VERTEX
  8
0
 10
947.14332
 20
239.771165
 30
0.0
  0
VERTEX
  8
0
 10
947.159810
 20
239.751160
 30
0.0
  0
VERTEX
  8
0
 10
947.20105
 20
239.741160
 30
0.0
  0
VERTEX
  8
0
 10
947.23405
 20
239.741160
 30
0.0
  0
VERTEX
  8
0
 10
947.26704
 20
239.751160
 30
0.0
  0
VERTEX
  8
0
 10
947.29179
 20
239.781165
 30
0.0
  0
VERTEX
  8
0
 10
947.316530
 20
239.801165
 30
0.0
  0
VERTEX
  8
0
 10
947.32478
 20
239.831170
 30
0.0
  0
VERTEX
  8
0
 10
947.316530
 20
239.881175
 30
0.0
  0
VERTEX
  8
0
 10
947.30828
 20
239.901175
 30
0.0
  0
VERTEX
  8
0
 10
947.29179
 20
239.921180
 30
0.0
  0
VERTEX
  8
0
 10
947.275290
 20
239.94118
 30
0.0
  0
VERTEX
  8
0
 10
947.2423
 20
239.94118
 30
0.0
  0
VERTEX
  8
0
 10
947.21755
 20
239.95118
 30
0.0
  0
VERTEX
  8
0
 10
947.192810
 20
239.95118
 30
0.0
  0
VERTEX
  8
0
 10
947.159810
 20
239.94118
 30
0.0
  0
SEQEND
  8
0
 62
     1
  0
POLYLINE
  8
0
  6
CONTINUOUS
 62
     1
 66
     1
  0
VERTEX
  8
0
 10
952.084060
 20
239.061095
 30
0.0
  0
VERTEX
  8
0
 10
952.05931
 20
239.051095
 30
0.0
  0
VERTEX
  8
0
 10
952.042820
 20
239.02109
 30
0.0
  0
VERTEX
  8
0
 10
952.03457
 20
239.001090
 30
0.0
  0
VERTEX
  8
0
 10
952.03457
 20
238.951085
 30
0.0
  0
VERTEX
  8
0
 10
952.042820
 20
238.921080
 30
0.0
  0
VERTEX
  8
0
 10
952.06756
 20
238.89108
 30
0.0
  0
VERTEX
  8
0
 10
952.084060
 20
238.871075
 30
0.0
  0
VERTEX
  8
0
 10
952.1253
 20
238.861075
 30
0.0
  0
VERTEX
  8
0
 10
952.15829
 20
238.861075
 30
0.0
  0
VERTEX
  8
0
 10
952.191290
 20
238.871075
 30
0.0
  0
VERTEX
  8
0
 10
952.21603
 20
238.901080
 30
0.0
  0
VERTEX
  8
0
 10
952.240780
 20
238.921080
 30
0.0
  0
VERTEX
  8
0
 10
952.249030
 20
238.951085
 30
0.0
  0
VERTEX
  8
0
 10
952.240780
 20
239.001090
 30
0.0
  0
VERTEX
  8
0
 10
952.23253
 20
239.02109
 30
0.0
  0
VERTEX
  8
0
 10
952.21603
 20
239.041095
 30
0.0
  0
VERTEX
  8
0
 10
952.19954
 20
239.061095
 30
0.0
  0
VERTEX
  8
0
 10
952.166540
 20
239.061095
 30
0.0
  0
VERTEX
  8
0
 10
952.1418
 20
239.071095
 30
0.0
  0
VERTEX
  8
0
 10
952.11705
 20
239.071095
 30
0.0
  0
VERTEX
  8
0
 10
952.084060
 20
239.061095
 30
0.0
  0
SEQEND
  8
0
 62
     1
  0
POLYLINE
  8
0
  6
CONTINUOUS
 62
     1
 66
     1
  0
VERTEX
  8
0
 10
942.268560
 20
240.85127
 30
0.0
  0
VERTEX
  8
0
 10
942.243810
 20
240.841265
 30
0.0
  0
VERTEX
  8
0
 10
942.22732
 20
240.811265
 30
0.0
  0
VERTEX
  8
0
 10
942.21907
 20
240.79126
 30
0.0
  0
VERTEX
  8
0
 10
942.21907
 20
240.741255
 30
0.0
  0
VERTEX
  8
0
 10
942.22732
 20
240.711255
 30
0.0
  0
VERTEX
  8
0
 10
942.252060
 20
240.68125
 30
0.0
  0
VERTEX
  8
0
 10
942.268560
 20
240.66125
 30
0.0
  0
VERTEX
  8
0
 10
942.3098
 20
240.65125
 30
0.0
  0
VERTEX
  8
0
 10
942.34279
 20
240.65125
 30
0.0
  0
VERTEX
  8
0
 10
942.37579
 20
240.66125
 30
0.0
  0
VERTEX
  8
0
 10
942.40053
 20
240.69125
 30
0.0
  0
VERTEX
  8
0
 10
942.42528
 20
240.711255
 30
0.0
  0
VERTEX
  8
0
 10
942.43353
 20
240.741255
 30
0.0
  0
VERTEX
  8
0
 10
942.42528
 20
240.79126
 30
0.0
  0
VERTEX
  8
0
 10
942.417030
 20
240.811265
 30
0.0
  0
VERTEX
  8
0
 10
942.40053
 20
240.831265
 30
0.0
  0
VERTEX
  8
0
 10
942.38404
 20
240.85127
 30
0.0
  0
VERTEX
  8
0
 10
942.351040
 20
240.85127
 30
0.0
  0
VERTEX
  8
0
 10
942.3263
 20
240.861270
 30
0.0
  0
VERTEX
  8
0
 10
942.30155
 20
240.861270
 30
0.0
  0
VERTEX
  8
0
 10
942.268560
 20
240.85127
 30
0.0
  0
SEQEND
  8
0
 62
     1
  0
POLYLINE
  8
0
  6
CONTINUOUS
 62
     1
 66
     1
  0
VERTEX
  8
0
 10
940.346700
 20
244.221595
 30
0.0
  0
VERTEX
  8
0
 10
940.32196
 20
244.21159
 30
0.0
  0
VERTEX
  8
0
 10
940.30546
 20
244.18159
 30
0.0
  0
VERTEX
  8
0
 10
940.29721
 20
244.161585
 30
0.0
  0
VERTEX
  8
0
 10
940.29721
 20
244.11158
 30
0.0
  0
VERTEX
  8
0
 10
940.30546
 20
244.08158
 30
0.0
  0
VERTEX
  8
0
 10
940.3302
 20
244.051575
 30
0.0
  0
VERTEX
  8
0
 10
940.346700
 20
244.031575
 30
0.0
  0
VERTEX
  8
0
 10
940.387940
 20
244.021575
 30
0.0
  0
VERTEX
  8
0
 10
940.420940
 20
244.021575
 30
0.0
  0
VERTEX
  8
0
 10
940.45393
 20
244.031575
 30
0.0
  0
VERTEX
  8
0
 10
940.47867
 20
244.06158
 30
0.0
  0
VERTEX
  8
0
 10
940.503420
 20
244.08158
 30
0.0
  0
VERTEX
  8
0
 10
940.511670
 20
244.11158
 30
0.0
  0
VERTEX
  8
0
 10
940.503420
 20
244.161585
 30
0.0
  0
VERTEX
  8
0
 10
940.49517
 20
244.18159
 30
0.0
  0
VERTEX
  8
0
 10
940.47867
 20
244.201590
 30
0.0
  0
VERTEX
  8
0
 10
940.46218
 20
244.221595
 30
0.0
  0
VERTEX
  8
0
 10
940.429180
 20
244.221595
 30
0.0
  0
VERTEX
  8
0
 10
940.40444
 20
244.231595
 30
0.0
  0
VERTEX
  8
0
 10
940.379690
 20
244.231595
 30
0.0
  0
VERTEX
  8
0
 10
940.346700
 20
244.221595
 30
0.0
  0
SEQEND
  8
0
 62
     1
  0
POLYLINE
  8
0
  6
CONTINUOUS
 62
     1
 66
     1
  0
VERTEX
  8
0
 10
956.983560
 20
238.151005
 30
0.0
  0
VERTEX
  8
0
 10
956.95882
 20
238.141005
 30
0.0
  0
VERTEX
  8
0
 10
956.94232
 20
238.111005
 30
0.0
  0
VERTEX
  8
0
 10
956.934070
 20
238.091
 30
0.0
  0
VERTEX
  8
0
 10
956.934070
 20
238.040995
 30
0.0
  0
VERTEX
  8
0
 10
956.94232
 20
238.010995
 30
0.0
  0
VERTEX
  8
0
 10
956.96706
 20
237.98099
 30
0.0
  0
VERTEX
  8
0
 10
956.983560
 20
237.96099
 30
0.0
  0
VERTEX
  8
0
 10
957.0248
 20
237.950990
 30
0.0
  0
VERTEX
  8
0
 10
957.057800
 20
237.950990
 30
0.0
  0
VERTEX
  8
0
 10
957.09079
 20
237.96099
 30
0.0
  0
VERTEX
  8
0
 10
957.11553
 20
237.990990
 30
0.0
  0
VERTEX
  8
0
 10
957.140280
 20
238.010995
 30
0.0
  0
VERTEX
  8
0
 10
957.14853
 20
238.040995
 30
0.0
  0
VERTEX
  8
0
 10
957.140280
 20
238.091
 30
0.0
  0
VERTEX
  8
0
 10
957.132030
 20
238.111005
 30
0.0
  0
VERTEX
  8
0
 10
957.11553
 20
238.131005
 30
0.0
  0
VERTEX
  8
0
 10
957.099040
 20
238.151005
 30
0.0
  0
VERTEX
  8
0
 10
957.06604
 20
238.151005
 30
0.0
  0
VERTEX
  8
0
 10
957.0413
 20
238.161010
 30
0.0
  0
VERTEX
  8
0
 10
957.016550
 20
238.161010
 30
0.0
  0
VERTEX
  8
0
 10
956.983560
 20
238.151005
 30
0.0
  0
SEQEND
  8
0
 62
     1
  0
POLYLINE
  8
0
  6
CONTINUOUS
 62
     1
 66
     1
  0
VERTEX
  8
0
 10
964.19259
 20
253.512490
 30
0.0
  0
VERTEX
  8
0
 10
964.16785
 20
253.50249
 30
0.0
  0
VERTEX
  8
0
 10
964.15135
 20
253.472485
 30
0.0
  0
VERTEX
  8
0
 10
964.1431
 20
253.452485
 30
0.0
  0
VERTEX
  8
0
 10
964.1431
 20
253.40248
 30
0.0
  0
VERTEX
  8
0
 10
964.15135
 20
253.372475
 30
0.0
  0
VERTEX
  8
0
 10
964.17609
 20
253.342475
 30
0.0
  0
VERTEX
  8
0
 10
964.19259
 20
253.32247
 30
0.0
  0
VERTEX
  8
0
 10
964.23383
 20
253.31247
 30
0.0
  0
VERTEX
  8
0
 10
964.266830
 20
253.31247
 30
0.0
  0
VERTEX
  8
0
 10
964.299820
 20
253.32247
 30
0.0
  0
VERTEX
  8
0
 10
964.324560
 20
253.352475
 30
0.0
  0
VERTEX
  8
0
 10
964.34931
 20
253.372475
 30
0.0
  0
VERTEX
  8
0
 10
964.35756
 20
253.40248
 30
0.0
  0
VERTEX
  8
0
 10
964.34931
 20
253.452485
 30
0.0
  0
VERTEX
  8
0
 10
964.341060
 20
253.472485
 30
0.0
  0
VERTEX
  8
0
 10
964.324560
 20
253.49249
 30
0.0
  0
VERTEX
  8
0
 10
964.308070
 20
253.512490
 30
0.0
  0
VERTEX
  8
0
 10
964.275070
 20
253.512490
 30
0.0
  0
VERTEX
  8
0
 10
964.250330
 20
253.522490
 30
0.0
  0
VERTEX
  8
0
 10
964.22558
 20
253.522490
 30
0.0
  0
VERTEX
  8
0
 10
964.19259
 20
253.512490
 30
0.0
  0
SEQEND
  8
0
 62
     1
  0
POLYLINE
  8
0
  6
CONTINUOUS
 62
     1
 66
     1
  0
VERTEX
  8
0
 10
968.06105
 20
258.012925
 30
0.0
  0
VERTEX
  8
0
 10
968.03631
 20
258.002925
 30
0.0
  0
VERTEX
  8
0
 10
968.019810
 20
257.972920
 30
0.0
  0
VERTEX
  8
0
 10
968.011560
 20
257.95292
 30
0.0
  0
VERTEX
  8
0
 10
968.011560
 20
257.902915
 30
0.0
  0
VERTEX
  8
0
 10
968.019810
 20
257.87291
 30
0.0
  0
VERTEX
  8
0
 10
968.044560
 20
257.842910
 30
0.0
  0
VERTEX
  8
0
 10
968.06105
 20
257.822905
 30
0.0
  0
VERTEX
  8
0
 10
968.102290
 20
257.812905
 30
0.0
  0
VERTEX
  8
0
 10
968.135290
 20
257.812905
 30
0.0
  0
VERTEX
  8
0
 10
968.16828
 20
257.822905
 30
0.0
  0
VERTEX
  8
0
 10
968.19303
 20
257.85291
 30
0.0
  0
VERTEX
  8
0
 10
968.21777
 20
257.87291
 30
0.0
  0
VERTEX
  8
0
 10
968.226020
 20
257.902915
 30
0.0
  0
VERTEX
  8
0
 10
968.21777
 20
257.95292
 30
0.0
  0
VERTEX
  8
0
 10
968.20952
 20
257.972920
 30
0.0
  0
VERTEX
  8
0
 10
968.19303
 20
257.992925
 30
0.0
  0
VERTEX
  8
0
 10
968.176530
 20
258.012925
 30
0.0
  0
VERTEX
  8
0
 10
968.14354
 20
258.012925
 30
0.0
  0
VERTEX
  8
0
 10
968.118790
 20
258.022925
 30
0.0
  0
VERTEX
  8
0
 10
968.09405
 20
258.022925
 30
0.0
  0
VERTEX
  8
0
 10
968.06105
 20
258.012925
 30
0.0
  0
SEQEND
  8
0
 62
     1
  0
POLYLINE
  8
0
  6
CONTINUOUS
 62
     1
 66
     1
  0
VERTEX
  8
0
 10
965.22363
 20
258.522975
 30
0.0
  0
VERTEX
  8
0
 10
965.198890
 20
258.512975
 30
0.0
  0
VERTEX
  8
0
 10
965.182390
 20
258.48297
 30
0.0
  0
VERTEX
  8
0
 10
965.174140
 20
258.462970
 30
0.0
  0
VERTEX
  8
0
 10
965.174140
 20
258.412965
 30
0.0
  0
VERTEX
  8
0
 10
965.182390
 20
258.38296
 30
0.0
  0
VERTEX
  8
0
 10
965.207130
 20
258.352955
 30
0.0
  0
VERTEX
  8
0
 10
965.22363
 20
258.332955
 30
0.0
  0
VERTEX
  8
0
 10
965.26487
 20
258.322955
 30
0.0
  0
VERTEX
  8
0
 10
965.29787
 20
258.322955
 30
0.0
  0
VERTEX
  8
0
 10
965.330860
 20
258.332955
 30
0.0
  0
VERTEX
  8
0
 10
965.3556
 20
258.36296
 30
0.0
  0
VERTEX
  8
0
 10
965.38035
 20
258.38296
 30
0.0
  0
VERTEX
  8
0
 10
965.3886
 20
258.412965
 30
0.0
  0
VERTEX
  8
0
 10
965.38035
 20
258.462970
 30
0.0
  0
VERTEX
  8
0
 10
965.372100
 20
258.48297
 30
0.0
  0
VERTEX
  8
0
 10
965.3556
 20
258.502970
 30
0.0
  0
VERTEX
  8
0
 10
965.339110
 20
258.522975
 30
0.0
  0
VERTEX
  8
0
 10
965.306110
 20
258.522975
 30
0.0
  0
VERTEX
  8
0
 10
965.28137
 20
258.532975
 30
0.0
  0
VERTEX
  8
0
 10
965.25662
 20
258.532975
 30
0.0
  0
VERTEX
  8
0
 10
965.22363
 20
258.522975
 30
0.0
  0
SEQEND
  8
0
 62
     1
  0
POLYLINE
  8
0
  6
CONTINUOUS
 62
     1
 66
     1
  0
VERTEX
  8
0
 10
967.087750
 20
253.012440
 30
0.0
  0
VERTEX
  8
0
 10
967.06301
 20
253.002440
 30
0.0
  0
VERTEX
  8
0
 10
967.04651
 20
252.97244
 30
0.0
  0
VERTEX
  8
0
 10
967.03826
 20
252.952435
 30
0.0
  0
VERTEX
  8
0
 10
967.03826
 20
252.902430
 30
0.0
  0
VERTEX
  8
0
 10
967.04651
 20
252.87243
 30
0.0
  0
VERTEX
  8
0
 10
967.07125
 20
252.842425
 30
0.0
  0
VERTEX
  8
0
 10
967.087750
 20
252.822425
 30
0.0
  0
VERTEX
  8
0
 10
967.12899
 20
252.81242
 30
0.0
  0
VERTEX
  8
0
 10
967.16199
 20
252.81242
 30
0.0
  0
VERTEX
  8
0
 10
967.19498
 20
252.822425
 30
0.0
  0
VERTEX
  8
0
 10
967.219720
 20
252.852425
 30
0.0
  0
VERTEX
  8
0
 10
967.24447
 20
252.87243
 30
0.0
  0
VERTEX
  8
0
 10
967.25272
 20
252.902430
 30
0.0
  0
VERTEX
  8
0
 10
967.24447
 20
252.952435
 30
0.0
  0
VERTEX
  8
0
 10
967.23622
 20
252.97244
 30
0.0
  0
VERTEX
  8
0
 10
967.219720
 20
252.99244
 30
0.0
  0
VERTEX
  8
0
 10
967.203230
 20
253.012440
 30
0.0
  0
VERTEX
  8
0
 10
967.170230
 20
253.012440
 30
0.0
  0
VERTEX
  8
0
 10
967.14549
 20
253.022445
 30
0.0
  0
VERTEX
  8
0
 10
967.12074
 20
253.022445
 30
0.0
  0
VERTEX
  8
0
 10
967.087750
 20
253.012440
 30
0.0
  0
SEQEND
  8
0
 62
     1
  0
POLYLINE
  8
0
  6
CONTINUOUS
 62
     1
 66
     1
  0
VERTEX
  8
0
 10
964.53902
 20
255.57269
 30
0.0
  0
VERTEX
  8
0
 10
964.51428
 20
255.56269
 30
0.0
  0
VERTEX
  8
0
 10
964.49778
 20
255.532685
 30
0.0
  0
VERTEX
  8
0
 10
964.48953
 20
255.512685
 30
0.0
  0
VERTEX
  8
0
 10
964.48953
 20
255.46268
 30
0.0
  0
VERTEX
  8
0
 10
964.49778
 20
255.432675
 30
0.0
  0
VERTEX
  8
0
 10
964.52252
 20
255.402675
 30
0.0
  0
VERTEX
  8
0
 10
964.53902
 20
255.382670
 30
0.0
  0
VERTEX
  8
0
 10
964.580260
 20
255.372670
 30
0.0
  0
VERTEX
  8
0
 10
964.61326
 20
255.372670
 30
0.0
  0
VERTEX
  8
0
 10
964.64625
 20
255.382670
 30
0.0
  0
VERTEX
  8
0
 10
964.67099
 20
255.412675
 30
0.0
  0
VERTEX
  8
0
 10
964.69574
 20
255.432675
 30
0.0
  0
VERTEX
  8
0
 10
964.70399
 20
255.46268
 30
0.0
  0
VERTEX
  8
0
 10
964.69574
 20
255.512685
 30
0.0
  0
VERTEX
  8
0
 10
964.68749
 20
255.532685
 30
0.0
  0
VERTEX
  8
0
 10
964.67099
 20
255.552685
 30
0.0
  0
VERTEX
  8
0
 10
964.6545
 20
255.57269
 30
0.0
  0
VERTEX
  8
0
 10
964.6215
 20
255.57269
 30
0.0
  0
VERTEX
  8
0
 10
964.59676
 20
255.58269
 30
0.0
  0
VERTEX
  8
0
 10
964.57201
 20
255.58269
 30
0.0
  0
VERTEX
  8
0
 10
964.53902
 20
255.57269
 30
0.0
  0
SEQEND
  8
0
 62
     1
  0
POLYLINE
  8
0
  6
CONTINUOUS
 62
     1
 66
     1
  0
VERTEX
  8
0
 10
917.960760
 20
253.752515
 30
0.0
  0
VERTEX
  8
0
 10
949.56007
 20
247.82194
 30
0.0
  0
VERTEX
  8
0
 10
949.60131
 20
247.981955
 30
0.0
  0
VERTEX
  8
0
 10
954.03066
 20
247.141875
 30
0.0
  0
VERTEX
  8
0
 10
959.301340
 20
250.802230
 30
0.0
  0
VERTEX
  8
0
 10
960.30763
 20
256.22275
 30
0.0
  0
VERTEX
  8
0
 10
964.423540
 20
255.492680
 30
0.0
  0
SEQEND
  8
0
 62
     1
  0
POLYLINE
  8
0
  6
CONTINUOUS
 62
     1
 66
     1
  0
VERTEX
  8
0
 10
935.16676
 20
245.161685
 30
0.0
  0
VERTEX
  8
0
 10
935.15026
 20
245.151685
 30
0.0
  0
VERTEX
  8
0
 10
935.13376
 20
245.131680
 30
0.0
  0
VERTEX
  8
0
 10
935.12551
 20
245.121680
 30
0.0
  0
VERTEX
  8
0
 10
935.12551
 20
245.071675
 30
0.0
  0
VERTEX
  8
0
 10
935.13376
 20
245.051675
 30
0.0
  0
VERTEX
  8
0
 10
935.15851
 20
245.02167
 30
0.0
  0
VERTEX
  8
0
 10
935.16676
 20
245.01167
 30
0.0
  0
VERTEX
  8
0
 10
935.208
 20
245.00167
 30
0.0
  0
VERTEX
  8
0
 10
935.22449
 20
245.00167
 30
0.0
  0
VERTEX
  8
0
 10
935.25749
 20
245.01167
 30
0.0
  0
VERTEX
  8
0
 10
935.273980
 20
245.031670
 30
0.0
  0
VERTEX
  8
0
 10
935.29873
 20
245.051675
 30
0.0
  0
VERTEX
  8
0
 10
935.306980
 20
245.071675
 30
0.0
  0
VERTEX
  8
0
 10
935.29873
 20
245.121680
 30
0.0
  0
VERTEX
  8
0
 10
935.29048
 20
245.131680
 30
0.0
  0
VERTEX
  8
0
 10
935.273980
 20
245.151685
 30
0.0
  0
VERTEX
  8
0
 10
935.26574
 20
245.161685
 30
0.0
  0
VERTEX
  8
0
 10
935.23274
 20
245.161685
 30
0.0
  0
VERTEX
  8
0
 10
935.216250
 20
245.171685
 30
0.0
  0
VERTEX
  8
0
 10
935.199750
 20
245.171685
 30
0.0
  0
VERTEX
  8
0
 10
935.16676
 20
245.161685
 30
0.0
  0
SEQEND
  8
0
 62
     1
  0
POLYLINE
  8
0
  6
CONTINUOUS
 62
     1
 66
     1
  0
VERTEX
  8
0
 10
940.346700
 20
244.221595
 30
0.0
  0
VERTEX
  8
0
 10
940.32196
 20
244.21159
 30
0.0
  0
VERTEX
  8
0
 10
940.30546
 20
244.18159
 30
0.0
  0
VERTEX
  8
0
 10
940.29721
 20
244.161585
 30
0.0
  0
VERTEX
  8
0
 10
940.29721
 20
244.11158
 30
0.0
  0
VERTEX
  8
0
 10
940.30546
 20
244.08158
 30
0.0
  0
VERTEX
  8
0
 10
940.3302
 20
244.051575
 30
0.0
  0
VERTEX
  8
0
 10
940.346700
 20
244.031575
 30
0.0
  0
VERTEX
  8
0
 10
940.387940
 20
244.021575
 30
0.0
  0
VERTEX
  8
0
 10
940.420940
 20
244.021575
 30
0.0
  0
VERTEX
  8
0
 10
940.45393
 20
244.031575
 30
0.0
  0
VERTEX
  8
0
 10
940.47867
 20
244.06158
 30
0.0
  0
VERTEX
  8
0
 10
940.503420
 20
244.08158
 30
0.0
  0
VERTEX
  8
0
 10
940.511670
 20
244.11158
 30
0.0
  0
VERTEX
  8
0
 10
940.503420
 20
244.161585
 30
0.0
  0
VERTEX
  8
0
 10
940.49517
 20
244.18159
 30
0.0
  0
VERTEX
  8
0
 10
940.47867
 20
244.201590
 30
0.0
  0
VERTEX
  8
0
 10
940.46218
 20
244.221595
 30
0.0
  0
VERTEX
  8
0
 10
940.429180
 20
244.221595
 30
0.0
  0
VERTEX
  8
0
 10
940.40444
 20
244.231595
 30
0.0
  0
VERTEX
  8
0
 10
940.379690
 20
244.231595
 30
0.0
  0
VERTEX
  8
0
 10
940.346700
 20
244.221595
 30
0.0
  0
SEQEND
  8
0
 62
     1
  0
POLYLINE
  8
0
  6
CONTINUOUS
 62
     1
 66
     1
  0
VERTEX
  8
0
 10
974.75869
 20
202.547570
 30
0.0
  0
VERTEX
  8
0
 10
974.55248
 20
202.437560
 30
0.0
  0
VERTEX
  8
0
 10
974.46175
 20
202.267545
 30
0.0
  0
VERTEX
  8
0
 10
974.40401
 20
202.087525
 30
0.0
  0
VERTEX
  8
0
 10
974.40401
 20
201.777495
 30
0.0
  0
VERTEX
  8
0
 10
974.46175
 20
201.557475
 30
0.0
  0
VERTEX
  8
0
 10
974.610220
 20
201.307450
 30
0.0
  0
VERTEX
  8
0
 10
974.75869
 20
201.19744
 30
0.0
  0
VERTEX
  8
0
 10
974.989640
 20
201.127435
 30
0.0
  0
VERTEX
  8
0
 10
975.26184
 20
201.127435
 30
0.0
  0
VERTEX
  8
0
 10
975.443300
 20
201.19744
 30
0.0
  0
VERTEX
  8
0
 10
975.64126
 20
201.377455
 30
0.0
  0
VERTEX
  8
0
 10
975.78973
 20
201.557475
 30
0.0
  0
VERTEX
  8
0
 10
975.84747
 20
201.777495
 30
0.0
  0
VERTEX
  8
0
 10
975.78973
 20
202.087525
 30
0.0
  0
VERTEX
  8
0
 10
975.76498
 20
202.267545
 30
0.0
  0
VERTEX
  8
0
 10
975.64126
 20
202.36755
 30
0.0
  0
VERTEX
  8
0
 10
975.49279
 20
202.517565
 30
0.0
  0
VERTEX
  8
0
 10
975.286580
 20
202.547570
 30
0.0
  0
VERTEX
  8
0
 10
975.11337
 20
202.617575
 30
0.0
  0
VERTEX
  8
0
 10
974.9649
 20
202.617575
 30
0.0
  0
VERTEX
  8
0
 10
974.75869
 20
202.547570
 30
0.0
  0
SEQEND
  8
0
 62
     1
  0
POLYLINE
  8
0
  6
CONTINUOUS
 62
     1
 66
     1
  0
VERTEX
  8
0
 10
818.189100
 20
292.046210
 30
0.0
  0
VERTEX
  8
0
 10
819.855260
 20
291.83619
 30
0.0
  0
VERTEX
  8
0
 10
817.62821
 20
277.054765
 30
0.0
  0
SEQEND
  8
0
 62
     1
  0
POLYLINE
  8
0
  6
CONTINUOUS
 62
     1
 66
     1
  0
VERTEX
  8
0
 10
911.72503
 20
263.86349
 30
0.0
  0
VERTEX
  8
0
 10
911.95599
 20
260.25314
 30
0.0
  0
VERTEX
  8
0
 10
915.51926
 20
255.102645
 30
0.0
  0
VERTEX
  8
0
 10
918.11748
 20
254.572590
 30
0.0
  0
VERTEX
  8
0
 10
917.960760
 20
253.752515
 30
0.0
  0
SEQEND
  8
0
 62
     1
  0
POLYLINE
  8
0
  6
CONTINUOUS
 62
     1
 66
     1
  0
VERTEX
  8
0
 10
897.24923
 20
184.475825
 30
0.0
  0
VERTEX
  8
0
 10
900.25162
 20
200.737395
 30
0.0
  0
VERTEX
  8
0
 10
905.464560
 20
199.807305
 30
0.0
  0
VERTEX
  8
0
 10
906.81728
 20
207.458045
 30
0.0
  0
VERTEX
  8
0
 10
910.14136
 20
209.778270
 30
0.0
  0
VERTEX
  8
0
 10
917.83704
 20
208.388135
 30
0.0
  0
VERTEX
  8
0
 10
918.785590
 20
213.608640
 30
0.0
  0
VERTEX
  8
0
 10
967.24447
 20
204.73778
 30
0.0
  0
VERTEX
  8
0
 10
966.8238
 20
202.187535
 30
0.0
  0
VERTEX
  8
0
 10
969.86743
 20
201.587475
 30
0.0
  0
VERTEX
  8
0
 10
978.00028
 20
189.876345
 30
0.0
  0
VERTEX
  8
0
 10
977.43114
 20
186.836055
 30
0.0
  0
VERTEX
  8
0
 10
980.02112
 20
186.356005
 30
0.0
  0
VERTEX
  8
0
 10
981.382090
 20
194.17676
 30
0.0
  0
SEQEND
  8
0
 62
     1
  0
POLYLINE
  8
0
  6
CONTINUOUS
 62
     1
 66
     1
  0
VERTEX
  8
0
 10
898.45349
 20
223.239565
 30
0.0
  0
VERTEX
  8
0
 10
899.3608
 20
221.479395
 30
0.0
  0
VERTEX
  8
0
 10
900.24337
 20
221.889435
 30
0.0
  0
VERTEX
  8
0
 10
899.3608
 20
223.699610
 30
0.0
  0
VERTEX
  8
0
 10
898.45349
 20
223.239565
 30
0.0
  0
SEQEND
  8
0
 62
     1
  0
POLYLINE
  8
0
  6
CONTINUOUS
 62
     1
 66
     1
  0
VERTEX
  8
0
 10
877.46976
 20
226.229855
 30
0.0
  0
VERTEX
  8
0
 10
878.113130
 20
225.45978
 30
0.0
  0
VERTEX
  8
0
 10
879.59783
 20
226.799910
 30
0.0
  0
VERTEX
  8
0
 10
878.946210
 20
227.52998
 30
0.0
  0
VERTEX
  8
0
 10
877.46976
 20
226.229855
 30
0.0
  0
SEQEND
  8
0
 62
     1
  0
POLYLINE
  8
0
  6
CONTINUOUS
 62
     1
 66
     1
  0
VERTEX
  8
0
 10
882.600220
 20
254.562590
 30
0.0
  0
VERTEX
  8
0
 10
883.4498
 20
252.822425
 30
0.0
  0
VERTEX
  8
0
 10
884.348860
 20
253.252465
 30
0.0
  0
VERTEX
  8
0
 10
883.49104
 20
254.992635
 30
0.0
  0
VERTEX
  8
0
 10
882.600220
 20
254.562590
 30
0.0
  0
SEQEND
  8
0
 62
     1
  0
POLYLINE
  8
0
  6
CONTINUOUS
 62
     1
 66
     1
  0
VERTEX
  8
0
 10
903.25401
 20
249.812135
 30
0.0
  0
VERTEX
  8
0
 10
903.92212
 20
249.102065
 30
0.0
  0
VERTEX
  8
0
 10
905.448060
 20
250.5122
 30
0.0
  0
VERTEX
  8
0
 10
904.771700
 20
251.23227
 30
0.0
  0
VERTEX
  8
0
 10
903.25401
 20
249.812135
 30
0.0
  0
SEQEND
  8
0
 62
     1
  0
POLYLINE
  8
0
  6
CONTINUOUS
 62
     1
 66
     1
  0
VERTEX
  8
0
 10
911.72503
 20
263.86349
 30
0.0
  0
VERTEX
  8
0
 10
914.80991
 20
278.854935
 30
0.0
  0
VERTEX
  8
0
 10
918.892820
 20
298.44683
 30
0.0
  0
SEQEND
  8
0
 62
     1
  0
LINE
  8
0
  6
CONTINUOUS
 62
     1
 10
964.69574
 20
255.512685
 30
0.0
 11
966.28766
 21
263.803485
 31
0.0
  0
POLYLINE
  8
0
  6
CONTINUOUS
 62
     1
 66
     1
  0
VERTEX
  8
0
 10
969.51276
 20
250.772225
 30
0.0
  0
VERTEX
  8
0
 10
968.75391
 20
246.601825
 30
0.0
  0
VERTEX
  8
0
 10
969.727210
 20
246.46181
 30
0.0
  0
VERTEX
  8
0
 10
969.760210
 20
246.741835
 30
0.0
  0
VERTEX
  8
0
 10
969.380780
 20
246.811845
 30
0.0
  0
VERTEX
  8
0
 10
969.826190
 20
249.332085
 30
0.0
  0
VERTEX
  8
0
 10
971.91302
 20
248.94205
 30
0.0
  0
VERTEX
  8
0
 10
971.50885
 20
246.441805
 30
0.0
  0
VERTEX
  8
0
 10
970.947960
 20
246.531815
 30
0.0
  0
VERTEX
  8
0
 10
970.90672
 20
246.25179
 30
0.0
  0
VERTEX
  8
0
 10
971.904770
 20
246.061770
 30
0.0
  0
VERTEX
  8
0
 10
972.655370
 20
250.252175
 30
0.0
  0
VERTEX
  8
0
 10
969.51276
 20
250.772225
 30
0.0
  0
SEQEND
  8
0
 62
     1
  0
POLYLINE
  8
0
  6
CONTINUOUS
 62
     1
 66
     1
  0
VERTEX
  8
0
 10
903.99636
 20
235.980795
 30
0.0
  0
VERTEX
  8
0
 10
904.0376
 20
235.88079
 30
0.0
  0
VERTEX
  8
0
 10
904.210820
 20
235.830785
 30
0.0
  0
VERTEX
  8
0
 10
904.32629
 20
235.930795
 30
0.0
  0
VERTEX
  8
0
 10
904.32629
 20
236.080805
 30
0.0
  0
VERTEX
  8
0
 10
904.20257
 20
236.150815
 30
0.0
  0
VERTEX
  8
0
 10
904.054100
 20
236.12081
 30
0.0
  0
VERTEX
  8
0
 10
903.99636
 20
235.980795
 30
0.0
  0
SEQEND
  8
0
 62
     1
  0
POLYLINE
  8
0
  6
CONTINUOUS
 62
     1
 66
     1
  0
VERTEX
  8
0
 10
1007.51276
 20
202.917605
 30
0.0
  0
VERTEX
  8
0
 10
1008.63453
 20
202.707585
 30
0.0
  0
VERTEX
  8
0
 10
1008.56855
 20
202.35755
 30
0.0
  0
VERTEX
  8
0
 10
1007.87569
 20
202.45756
 30
0.0
  0
VERTEX
  8
0
 10
1007.48802
 20
200.38736
 30
0.0
  0
VERTEX
  8
0
 10
1009.96251
 20
199.997325
 30
0.0
  0
VERTEX
  8
0
 10
1010.2677
 20
202.04752
 30
0.0
  0
VERTEX
  8
0
 10
1009.739810
 20
202.15753
 30
0.0
  0
VERTEX
  8
0
 10
1009.805800
 20
202.487565
 30
0.0
  0
VERTEX
  8
0
 10
1010.7626
 20
202.277545
 30
0.0
  0
SEQEND
  8
0
 62
     1
  0
POLYLINE
  8
0
  6
CONTINUOUS
 62
     1
 66
     1
  0
VERTEX
  8
0
 10
1007.40553
 20
205.36784
 30
0.0
  0
VERTEX
  8
0
 10
1007.41378
 20
205.32784
 30
0.0
  0
VERTEX
  8
0
 10
1007.430280
 20
205.307835
 30
0.0
  0
VERTEX
  8
0
 10
1007.47152
 20
205.287835
 30
0.0
  0
VERTEX
  8
0
 10
1007.51276
 20
205.287835
 30
0.0
  0
VERTEX
  8
0
 10
1007.54576
 20
205.317835
 30
0.0
  0
VERTEX
  8
0
 10
1007.562250
 20
205.34784
 30
0.0
  0
VERTEX
  8
0
 10
1007.562250
 20
205.377845
 30
0.0
  0
VERTEX
  8
0
 10
1007.54576
 20
205.417845
 30
0.0
  0
VERTEX
  8
0
 10
1007.52101
 20
205.437850
 30
0.0
  0
VERTEX
  8
0
 10
1007.48802
 20
205.447850
 30
0.0
  0
VERTEX
  8
0
 10
1007.44678
 20
205.437850
 30
0.0
  0
VERTEX
  8
0
 10
1007.422030
 20
205.417845
 30
0.0
  0
VERTEX
  8
0
 10
1007.40553
 20
205.387845
 30
0.0
  0
VERTEX
  8
0
 10
1007.40553
 20
205.36784
 30
0.0
  0
SEQEND
  8
0
 62
     1
  0
POLYLINE
  8
0
  6
CONTINUOUS
 62
     1
 66
     1
  0
VERTEX
  8
0
 10
1010.67187
 20
204.787785
 30
0.0
  0
VERTEX
  8
0
 10
1010.68012
 20
204.747780
 30
0.0
  0
VERTEX
  8
0
 10
1010.696610
 20
204.72778
 30
0.0
  0
VERTEX
  8
0
 10
1010.737860
 20
204.70778
 30
0.0
  0
VERTEX
  8
0
 10
1010.779100
 20
204.70778
 30
0.0
  0
VERTEX
  8
0
 10
1010.81209
 20
204.73778
 30
0.0
  0
VERTEX
  8
0
 10
1010.82859
 20
204.767785
 30
0.0
  0
VERTEX
  8
0
 10
1010.82859
 20
204.797785
 30
0.0
  0
VERTEX
  8
0
 10
1010.81209
 20
204.83779
 30
0.0
  0
VERTEX
  8
0
 10
1010.78735
 20
204.857795
 30
0.0
  0
VERTEX
  8
0
 10
1010.75435
 20
204.867795
 30
0.0
  0
VERTEX
  8
0
 10
1010.71311
 20
204.857795
 30
0.0
  0
VERTEX
  8
0
 10
1010.68837
 20
204.83779
 30
0.0
  0
VERTEX
  8
0
 10
1010.67187
 20
204.807790
 30
0.0
  0
VERTEX
  8
0
 10
1010.67187
 20
204.787785
 30
0.0
  0
SEQEND
  8
0
 62
     1
  0
POLYLINE
  8
0
  6
CONTINUOUS
 62
     1
 66
     1
  0
VERTEX
  8
0
 10
1010.39143
 20
202.847600
 30
0.0
  0
VERTEX
  8
0
 10
1010.399670
 20
202.807595
 30
0.0
  0
VERTEX
  8
0
 10
1010.41617
 20
202.787595
 30
0.0
  0
VERTEX
  8
0
 10
1010.45741
 20
202.767590
 30
0.0
  0
VERTEX
  8
0
 10
1010.49865
 20
202.767590
 30
0.0
  0
VERTEX
  8
0
 10
1010.531650
 20
202.797595
 30
0.0
  0
VERTEX
  8
0
 10
1010.548140
 20
202.827595
 30
0.0
  0
VERTEX
  8
0
 10
1010.548140
 20
202.857600
 30
0.0
  0
VERTEX
  8
0
 10
1010.531650
 20
202.897605
 30
0.0
  0
VERTEX
  8
0
 10
1010.5069
 20
202.917605
 30
0.0
  0
VERTEX
  8
0
 10
1010.47391
 20
202.927605
 30
0.0
  0
VERTEX
  8
0
 10
1010.43267
 20
202.917605
 30
0.0
  0
VERTEX
  8
0
 10
1010.407920
 20
202.897605
 30
0.0
  0
VERTEX
  8
0
 10
1010.39143
 20
202.867600
 30
0.0
  0
VERTEX
  8
0
 10
1010.39143
 20
202.847600
 30
0.0
  0
SEQEND
  8
0
 62
     1
  0
POLYLINE
  8
0
  6
CONTINUOUS
 62
     1
 66
     1
  0
VERTEX
  8
0
 10
1006.852900
 20
202.417555
 30
0.0
  0
VERTEX
  8
0
 10
1006.86115
 20
202.377555
 30
0.0
  0
VERTEX
  8
0
 10
1006.877640
 20
202.35755
 30
0.0
  0
VERTEX
  8
0
 10
1006.91888
 20
202.33755
 30
0.0
  0
VERTEX
  8
0
 10
1006.96013
 20
202.33755
 30
0.0
  0
VERTEX
  8
0
 10
1006.99312
 20
202.36755
 30
0.0
  0
VERTEX
  8
0
 10
1007.00962
 20
202.397555
 30
0.0
  0
VERTEX
  8
0
 10
1007.00962
 20
202.42756
 30
0.0
  0
VERTEX
  8
0
 10
1006.99312
 20
202.46756
 30
0.0
  0
VERTEX
  8
0
 10
1006.968370
 20
202.487565
 30
0.0
  0
VERTEX
  8
0
 10
1006.93538
 20
202.497565
 30
0.0
  0
VERTEX
  8
0
 10
1006.894140
 20
202.487565
 30
0.0
  0
VERTEX
  8
0
 10
1006.86939
 20
202.46756
 30
0.0
  0
VERTEX
  8
0
 10
1006.852900
 20
202.437560
 30
0.0
  0
VERTEX
  8
0
 10
1006.852900
 20
202.417555
 30
0.0
  0
SEQEND
  8
0
 62
     1
  0
POLYLINE
  8
0
  6
CONTINUOUS
 62
     1
 66
     1
  0
VERTEX
  8
0
 10
1002.9267
 20
203.157630
 30
0.0
  0
VERTEX
  8
0
 10
1002.93495
 20
203.117625
 30
0.0
  0
VERTEX
  8
0
 10
1002.951440
 20
203.097625
 30
0.0
  0
VERTEX
  8
0
 10
1002.992680
 20
203.07762
 30
0.0
  0
VERTEX
  8
0
 10
1003.033930
 20
203.07762
 30
0.0
  0
VERTEX
  8
0
 10
1003.066920
 20
203.107625
 30
0.0
  0
VERTEX
  8
0
 10
1003.083420
 20
203.137625
 30
0.0
  0
VERTEX
  8
0
 10
1003.083420
 20
203.16763
 30
0.0
  0
VERTEX
  8
0
 10
1003.066920
 20
203.207635
 30
0.0
  0
VERTEX
  8
0
 10
1003.042170
 20
203.227635
 30
0.0
  0
VERTEX
  8
0
 10
1003.00918
 20
203.237635
 30
0.0
  0
VERTEX
  8
0
 10
1002.96794
 20
203.227635
 30
0.0
  0
VERTEX
  8
0
 10
1002.943190
 20
203.207635
 30
0.0
  0
VERTEX
  8
0
 10
1002.9267
 20
203.17763
 30
0.0
  0
VERTEX
  8
0
 10
1002.9267
 20
203.157630
 30
0.0
  0
SEQEND
  8
0
 62
     1
  0
POLYLINE
  8
0
  6
CONTINUOUS
 62
     1
 66
     1
  0
VERTEX
  8
0
 10
1003.46284
 20
206.067910
 30
0.0
  0
VERTEX
  8
0
 10
1003.47109
 20
206.027905
 30
0.0
  0
VERTEX
  8
0
 10
1003.48758
 20
206.007905
 30
0.0
  0
VERTEX
  8
0
 10
1003.52882
 20
205.987900
 30
0.0
  0
VERTEX
  8
0
 10
1003.57007
 20
205.987900
 30
0.0
  0
VERTEX
  8
0
 10
1003.60306
 20
206.017905
 30
0.0
  0
VERTEX
  8
0
 10
1003.61956
 20
206.04791
 30
0.0
  0
VERTEX
  8
0
 10
1003.61956
 20
206.07791
 30
0.0
  0
VERTEX
  8
0
 10
1003.60306
 20
206.117915
 30
0.0
  0
VERTEX
  8
0
 10
1003.578310
 20
206.137915
 30
0.0
  0
VERTEX
  8
0
 10
1003.545320
 20
206.147915
 30
0.0
  0
VERTEX
  8
0
 10
1003.50408
 20
206.137915
 30
0.0
  0
VERTEX
  8
0
 10
1003.479330
 20
206.117915
 30
0.0
  0
VERTEX
  8
0
 10
1003.46284
 20
206.08791
 30
0.0
  0
VERTEX
  8
0
 10
1003.46284
 20
206.067910
 30
0.0
  0
SEQEND
  8
0
 62
     1
  0
POLYLINE
  8
0
  6
CONTINUOUS
 62
     1
 66
     1
  0
VERTEX
  8
0
 10
999.01699
 20
203.857695
 30
0.0
  0
VERTEX
  8
0
 10
999.02524
 20
203.81769
 30
0.0
  0
VERTEX
  8
0
 10
999.04174
 20
203.79769
 30
0.0
  0
VERTEX
  8
0
 10
999.08298
 20
203.77769
 30
0.0
  0
VERTEX
  8
0
 10
999.124220
 20
203.77769
 30
0.0
  0
VERTEX
  8
0
 10
999.157220
 20
203.80769
 30
0.0
  0
VERTEX
  8
0
 10
999.17371
 20
203.837695
 30
0.0
  0
VERTEX
  8
0
 10
999.17371
 20
203.867695
 30
0.0
  0
VERTEX
  8
0
 10
999.157220
 20
203.9077
 30
0.0
  0
VERTEX
  8
0
 10
999.13247
 20
203.927705
 30
0.0
  0
VERTEX
  8
0
 10
999.09948
 20
203.937705
 30
0.0
  0
VERTEX
  8
0
 10
999.05824
 20
203.927705
 30
0.0
  0
VERTEX
  8
0
 10
999.03349
 20
203.9077
 30
0.0
  0
VERTEX
  8
0
 10
999.01699
 20
203.8777
 30
0.0
  0
VERTEX
  8
0
 10
999.01699
 20
203.857695
 30
0.0
  0
SEQEND
  8
0
 62
     1
  0
POLYLINE
  8
0
  6
CONTINUOUS
 62
     1
 66
     1
  0
VERTEX
  8
0
 10
999.53664
 20
206.81798
 30
0.0
  0
VERTEX
  8
0
 10
999.54489
 20
206.777980
 30
0.0
  0
VERTEX
  8
0
 10
999.561380
 20
206.757975
 30
0.0
  0
VERTEX
  8
0
 10
999.60262
 20
206.737975
 30
0.0
  0
VERTEX
  8
0
 10
999.64387
 20
206.737975
 30
0.0
  0
VERTEX
  8
0
 10
999.676860
 20
206.767975
 30
0.0
  0
VERTEX
  8
0
 10
999.693360
 20
206.797980
 30
0.0
  0
VERTEX
  8
0
 10
999.693360
 20
206.827985
 30
0.0
  0
VERTEX
  8
0
 10
999.676860
 20
206.867985
 30
0.0
  0
VERTEX
  8
0
 10
999.65211
 20
206.88799
 30
0.0
  0
VERTEX
  8
0
 10
999.61912
 20
206.89799
 30
0.0
  0
VERTEX
  8
0
 10
999.57788
 20
206.88799
 30
0.0
  0
VERTEX
  8
0
 10
999.55313
 20
206.867985
 30
0.0
  0
VERTEX
  8
0
 10
999.53664
 20
206.837985
 30
0.0
  0
VERTEX
  8
0
 10
999.53664
 20
206.81798
 30
0.0
  0
SEQEND
  8
0
 62
     1
  0
POLYLINE
  8
0
  6
CONTINUOUS
 62
     1
 66
     1
  0
VERTEX
  8
0
 10
994.58765
 20
207.778075
 30
0.0
  0
VERTEX
  8
0
 10
994.595900
 20
207.738070
 30
0.0
  0
VERTEX
  8
0
 10
994.61239
 20
207.71807
 30
0.0
  0
VERTEX
  8
0
 10
994.65363
 20
207.698065
 30
0.0
  0
VERTEX
  8
0
 10
994.694870
 20
207.698065
 30
0.0
  0
VERTEX
  8
0
 10
994.727870
 20
207.72807
 30
0.0
  0
VERTEX
  8
0
 10
994.74436
 20
207.758075
 30
0.0
  0
VERTEX
  8
0
 10
994.74436
 20
207.788075
 30
0.0
  0
VERTEX
  8
0
 10
994.727870
 20
207.828080
 30
0.0
  0
VERTEX
  8
0
 10
994.70312
 20
207.848080
 30
0.0
  0
VERTEX
  8
0
 10
994.67013
 20
207.858080
 30
0.0
  0
VERTEX
  8
0
 10
994.628890
 20
207.848080
 30
0.0
  0
VERTEX
  8
0
 10
994.60414
 20
207.828080
 30
0.0
  0
VERTEX
  8
0
 10
994.58765
 20
207.798075
 30
0.0
  0
VERTEX
  8
0
 10
994.58765
 20
207.778075
 30
0.0
  0
SEQEND
  8
0
 62
     1
  0
POLYLINE
  8
0
  6
CONTINUOUS
 62
     1
 66
     1
  0
VERTEX
  8
0
 10
994.09275
 20
204.767785
 30
0.0
  0
VERTEX
  8
0
 10
994.101
 20
204.72778
 30
0.0
  0
VERTEX
  8
0
 10
994.11749
 20
204.70778
 30
0.0
  0
VERTEX
  8
0
 10
994.15873
 20
204.687775
 30
0.0
  0
VERTEX
  8
0
 10
994.19998
 20
204.687775
 30
0.0
  0
VERTEX
  8
0
 10
994.232970
 20
204.71778
 30
0.0
  0
VERTEX
  8
0
 10
994.24947
 20
204.747780
 30
0.0
  0
VERTEX
  8
0
 10
994.24947
 20
204.777785
 30
0.0
  0
VERTEX
  8
0
 10
994.232970
 20
204.817790
 30
0.0
  0
VERTEX
  8
0
 10
994.208220
 20
204.83779
 30
0.0
  0
VERTEX
  8
0
 10
994.17523
 20
204.84779
 30
0.0
  0
VERTEX
  8
0
 10
994.13399
 20
204.83779
 30
0.0
  0
VERTEX
  8
0
 10
994.10924
 20
204.817790
 30
0.0
  0
VERTEX
  8
0
 10
994.09275
 20
204.787785
 30
0.0
  0
VERTEX
  8
0
 10
994.09275
 20
204.767785
 30
0.0
  0
SEQEND
  8
0
 62
     1
  0
POLYLINE
  8
0
  6
CONTINUOUS
 62
     1
 66
     1
  0
VERTEX
  8
0
 10
991.71723
 20
208.318125
 30
0.0
  0
VERTEX
  8
0
 10
991.725480
 20
208.278125
 30
0.0
  0
VERTEX
  8
0
 10
991.74198
 20
208.25812
 30
0.0
  0
VERTEX
  8
0
 10
991.783220
 20
208.23812
 30
0.0
  0
VERTEX
  8
0
 10
991.82446
 20
208.23812
 30
0.0
  0
VERTEX
  8
0
 10
991.85745
 20
208.26812
 30
0.0
  0
VERTEX
  8
0
 10
991.87395
 20
208.298125
 30
0.0
  0
VERTEX
  8
0
 10
991.87395
 20
208.328130
 30
0.0
  0
VERTEX
  8
0
 10
991.85745
 20
208.36813
 30
0.0
  0
VERTEX
  8
0
 10
991.832710
 20
208.388135
 30
0.0
  0
VERTEX
  8
0
 10
991.79972
 20
208.398135
 30
0.0
  0
VERTEX
  8
0
 10
991.75847
 20
208.388135
 30
0.0
  0
VERTEX
  8
0
 10
991.73373
 20
208.36813
 30
0.0
  0
VERTEX
  8
0
 10
991.71723
 20
208.33813
 30
0.0
  0
VERTEX
  8
0
 10
991.71723
 20
208.318125
 30
0.0
  0
SEQEND
  8
0
 62
     1
  0
POLYLINE
  8
0
  6
CONTINUOUS
 62
     1
 66
     1
  0
VERTEX
  8
0
 10
991.12335
 20
205.317835
 30
0.0
  0
VERTEX
  8
0
 10
991.1316
 20
205.277835
 30
0.0
  0
VERTEX
  8
0
 10
991.1481
 20
205.257830
 30
0.0
  0
VERTEX
  8
0
 10
991.18934
 20
205.23783
 30
0.0
  0
VERTEX
  8
0
 10
991.23058
 20
205.23783
 30
0.0
  0
VERTEX
  8
0
 10
991.26357
 20
205.26783
 30
0.0
  0
VERTEX
  8
0
 10
991.28007
 20
205.297835
 30
0.0
  0
VERTEX
  8
0
 10
991.28007
 20
205.32784
 30
0.0
  0
VERTEX
  8
0
 10
991.26357
 20
205.36784
 30
0.0
  0
VERTEX
  8
0
 10
991.23883
 20
205.387845
 30
0.0
  0
VERTEX
  8
0
 10
991.20584
 20
205.397845
 30
0.0
  0
VERTEX
  8
0
 10
991.16459
 20
205.387845
 30
0.0
  0
VERTEX
  8
0
 10
991.139850
 20
205.36784
 30
0.0
  0
VERTEX
  8
0
 10
991.12335
 20
205.33784
 30
0.0
  0
VERTEX
  8
0
 10
991.12335
 20
205.317835
 30
0.0
  0
SEQEND
  8
0
 62
     1
  0
POLYLINE
  8
0
  6
CONTINUOUS
 62
     1
 66
     1
  0
VERTEX
  8
0
 10
980.549010
 20
194.25677
 30
0.0
  0
VERTEX
  8
0
 10
980.3428
 20
194.14676
 30
0.0
  0
VERTEX
  8
0
 10
980.252070
 20
193.97674
 30
0.0
  0
VERTEX
  8
0
 10
980.19433
 20
193.796725
 30
0.0
  0
VERTEX
  8
0
 10
980.19433
 20
193.486695
 30
0.0
  0
VERTEX
  8
0
 10
980.252070
 20
193.266675
 30
0.0
  0
VERTEX
  8
0
 10
980.40054
 20
193.016650
 30
0.0
  0
VERTEX
  8
0
 10
980.549010
 20
192.90664
 30
0.0
  0
VERTEX
  8
0
 10
980.77996
 20
192.83663
 30
0.0
  0
VERTEX
  8
0
 10
981.05216
 20
192.83663
 30
0.0
  0
VERTEX
  8
0
 10
981.23362
 20
192.90664
 30
0.0
  0
VERTEX
  8
0
 10
981.431580
 20
193.086655
 30
0.0
  0
VERTEX
  8
0
 10
981.58005
 20
193.266675
 30
0.0
  0
VERTEX
  8
0
 10
981.637790
 20
193.486695
 30
0.0
  0
VERTEX
  8
0
 10
981.58005
 20
193.796725
 30
0.0
  0
VERTEX
  8
0
 10
981.5553
 20
193.97674
 30
0.0
  0
VERTEX
  8
0
 10
981.431580
 20
194.07675
 30
0.0
  0
VERTEX
  8
0
 10
981.283110
 20
194.226765
 30
0.0
  0
VERTEX
  8
0
 10
981.0769
 20
194.25677
 30
0.0
  0
VERTEX
  8
0
 10
980.903690
 20
194.326775
 30
0.0
  0
VERTEX
  8
0
 10
980.75522
 20
194.326775
 30
0.0
  0
VERTEX
  8
0
 10
980.549010
 20
194.25677
 30
0.0
  0
SEQEND
  8
0
 62
     1
  0
POLYLINE
  8
0
  6
CONTINUOUS
 62
     1
 66
     1
  0
VERTEX
  8
0
 10
985.20931
 20
206.377940
 30
0.0
  0
VERTEX
  8
0
 10
985.217560
 20
206.337935
 30
0.0
  0
VERTEX
  8
0
 10
985.23405
 20
206.317935
 30
0.0
  0
VERTEX
  8
0
 10
985.275290
 20
206.29793
 30
0.0
  0
VERTEX
  8
0
 10
985.316540
 20
206.29793
 30
0.0
  0
VERTEX
  8
0
 10
985.349530
 20
206.327935
 30
0.0
  0
VERTEX
  8
0
 10
985.36603
 20
206.35794
 30
0.0
  0
VERTEX
  8
0
 10
985.36603
 20
206.387940
 30
0.0
  0
VERTEX
  8
0
 10
985.349530
 20
206.427945
 30
0.0
  0
VERTEX
  8
0
 10
985.32478
 20
206.447945
 30
0.0
  0
VERTEX
  8
0
 10
985.29179
 20
206.457945
 30
0.0
  0
VERTEX
  8
0
 10
985.25055
 20
206.447945
 30
0.0
  0
VERTEX
  8
0
 10
985.2258
 20
206.427945
 30
0.0
  0
VERTEX
  8
0
 10
985.20931
 20
206.39794
 30
0.0
  0
VERTEX
  8
0
 10
985.20931
 20
206.377940
 30
0.0
  0
SEQEND
  8
0
 62
     1
  0
POLYLINE
  8
0
  6
CONTINUOUS
 62
     1
 66
     1
  0
VERTEX
  8
0
 10
985.778440
 20
209.318225
 30
0.0
  0
VERTEX
  8
0
 10
985.78669
 20
209.27822
 30
0.0
  0
VERTEX
  8
0
 10
985.80319
 20
209.25822
 30
0.0
  0
VERTEX
  8
0
 10
985.844430
 20
209.238215
 30
0.0
  0
VERTEX
  8
0
 10
985.885670
 20
209.238215
 30
0.0
  0
VERTEX
  8
0
 10
985.918660
 20
209.26822
 30
0.0
  0
VERTEX
  8
0
 10
985.93516
 20
209.29822
 30
0.0
  0
VERTEX
  8
0
 10
985.93516
 20
209.328225
 30
0.0
  0
VERTEX
  8
0
 10
985.918660
 20
209.36823
 30
0.0
  0
VERTEX
  8
0
 10
985.893920
 20
209.38823
 30
0.0
  0
VERTEX
  8
0
 10
985.860930
 20
209.39823
 30
0.0
  0
VERTEX
  8
0
 10
985.819680
 20
209.38823
 30
0.0
  0
VERTEX
  8
0
 10
985.794940
 20
209.36823
 30
0.0
  0
VERTEX
  8
0
 10
985.778440
 20
209.338225
 30
0.0
  0
VERTEX
  8
0
 10
985.778440
 20
209.318225
 30
0.0
  0
SEQEND
  8
0
 62
     1
  0
POLYLINE
  8
0
  6
CONTINUOUS
 62
     1
 66
     1
  0
VERTEX
  8
0
 10
979.32826
 20
207.468045
 30
0.0
  0
VERTEX
  8
0
 10
979.3365
 20
207.42804
 30
0.0
  0
VERTEX
  8
0
 10
979.353000
 20
207.40804
 30
0.0
  0
VERTEX
  8
0
 10
979.39424
 20
207.388035
 30
0.0
  0
VERTEX
  8
0
 10
979.43548
 20
207.388035
 30
0.0
  0
VERTEX
  8
0
 10
979.46848
 20
207.41804
 30
0.0
  0
VERTEX
  8
0
 10
979.48497
 20
207.448045
 30
0.0
  0
VERTEX
  8
0
 10
979.48497
 20
207.478045
 30
0.0
  0
VERTEX
  8
0
 10
979.46848
 20
207.51805
 30
0.0
  0
VERTEX
  8
0
 10
979.44373
 20
207.53805
 30
0.0
  0
VERTEX
  8
0
 10
979.41074
 20
207.548050
 30
0.0
  0
VERTEX
  8
0
 10
979.3695
 20
207.53805
 30
0.0
  0
VERTEX
  8
0
 10
979.34475
 20
207.51805
 30
0.0
  0
VERTEX
  8
0
 10
979.32826
 20
207.488045
 30
0.0
  0
VERTEX
  8
0
 10
979.32826
 20
207.468045
 30
0.0
  0
SEQEND
  8
0
 62
     1
  0
POLYLINE
  8
0
  6
CONTINUOUS
 62
     1
 66
     1
  0
VERTEX
  8
0
 10
974.041080
 20
206.237925
 30
0.0
  0
VERTEX
  8
0
 10
974.04933
 20
206.19792
 30
0.0
  0
VERTEX
  8
0
 10
974.065830
 20
206.17792
 30
0.0
  0
VERTEX
  8
0
 10
974.10707
 20
206.15792
 30
0.0
  0
VERTEX
  8
0
 10
974.148310
 20
206.15792
 30
0.0
  0
VERTEX
  8
0
 10
974.181310
 20
206.187920
 30
0.0
  0
VERTEX
  8
0
 10
974.197800
 20
206.217925
 30
0.0
  0
VERTEX
  8
0
 10
974.197800
 20
206.247925
 30
0.0
  0
VERTEX
  8
0
 10
974.181310
 20
206.287930
 30
0.0
  0
VERTEX
  8
0
 10
974.156560
 20
206.307935
 30
0.0
  0
VERTEX
  8
0
 10
974.12357
 20
206.317935
 30
0.0
  0
VERTEX
  8
0
 10
974.08233
 20
206.307935
 30
0.0
  0
VERTEX
  8
0
 10
974.05758
 20
206.287930
 30
0.0
  0
VERTEX
  8
0
 10
974.041080
 20
206.25793
 30
0.0
  0
VERTEX
  8
0
 10
974.041080
 20
206.237925
 30
0.0
  0
SEQEND
  8
0
 62
     1
  0
POLYLINE
  8
0
  6
CONTINUOUS
 62
     1
 66
     1
  0
VERTEX
  8
0
 10
973.636920
 20
203.9177
 30
0.0
  0
VERTEX
  8
0
 10
973.64516
 20
203.8777
 30
0.0
  0
VERTEX
  8
0
 10
973.66166
 20
203.857695
 30
0.0
  0
VERTEX
  8
0
 10
973.702900
 20
203.837695
 30
0.0
  0
VERTEX
  8
0
 10
973.744140
 20
203.837695
 30
0.0
  0
VERTEX
  8
0
 10
973.777140
 20
203.867695
 30
0.0
  0
VERTEX
  8
0
 10
973.79363
 20
203.897700
 30
0.0
  0
VERTEX
  8
0
 10
973.79363
 20
203.927705
 30
0.0
  0
VERTEX
  8
0
 10
973.777140
 20
203.967705
 30
0.0
  0
VERTEX
  8
0
 10
973.75239
 20
203.98771
 30
0.0
  0
VERTEX
  8
0
 10
973.7194
 20
203.99771
 30
0.0
  0
VERTEX
  8
0
 10
973.67816
 20
203.98771
 30
0.0
  0
VERTEX
  8
0
 10
973.653410
 20
203.967705
 30
0.0
  0
VERTEX
  8
0
 10
973.636920
 20
203.937705
 30
0.0
  0
VERTEX
  8
0
 10
973.636920
 20
203.9177
 30
0.0
  0
SEQEND
  8
0
 62
     1
  0
POLYLINE
  8
0
  6
CONTINUOUS
 62
     1
 66
     1
  0
VERTEX
  8
0
 10
970.82424
 20
206.857985
 30
0.0
  0
VERTEX
  8
0
 10
970.83249
 20
206.81798
 30
0.0
  0
VERTEX
  8
0
 10
970.848980
 20
206.797980
 30
0.0
  0
VERTEX
  8
0
 10
970.89023
 20
206.777980
 30
0.0
  0
VERTEX
  8
0
 10
970.93147
 20
206.777980
 30
0.0
  0
VERTEX
  8
0
 10
970.96446
 20
206.80798
 30
0.0
  0
VERTEX
  8
0
 10
970.980960
 20
206.837985
 30
0.0
  0
VERTEX
  8
0
 10
970.980960
 20
206.867985
 30
0.0
  0
VERTEX
  8
0
 10
970.96446
 20
206.90799
 30
0.0
  0
VERTEX
  8
0
 10
970.93972
 20
206.927995
 30
0.0
  0
VERTEX
  8
0
 10
970.90672
 20
206.937995
 30
0.0
  0
VERTEX
  8
0
 10
970.86548
 20
206.927995
 30
0.0
  0
VERTEX
  8
0
 10
970.84074
 20
206.90799
 30
0.0
  0
VERTEX
  8
0
 10
970.82424
 20
206.87799
 30
0.0
  0
VERTEX
  8
0
 10
970.82424
 20
206.857985
 30
0.0
  0
SEQEND
  8
0
 62
     1
  0
POLYLINE
  8
0
  6
CONTINUOUS
 62
     1
 66
     1
  0
VERTEX
  8
0
 10
970.370580
 20
204.50776
 30
0.0
  0
VERTEX
  8
0
 10
970.37883
 20
204.467755
 30
0.0
  0
VERTEX
  8
0
 10
970.395330
 20
204.447755
 30
0.0
  0
VERTEX
  8
0
 10
970.436570
 20
204.42775
 30
0.0
  0
VERTEX
  8
0
 10
970.477810
 20
204.42775
 30
0.0
  0
VERTEX
  8
0
 10
970.5108
 20
204.457755
 30
0.0
  0
VERTEX
  8
0
 10
970.5273
 20
204.487755
 30
0.0
  0
VERTEX
  8
0
 10
970.5273
 20
204.51776
 30
0.0
  0
VERTEX
  8
0
 10
970.5108
 20
204.557765
 30
0.0
  0
VERTEX
  8
0
 10
970.486060
 20
204.577765
 30
0.0
  0
VERTEX
  8
0
 10
970.453070
 20
204.587765
 30
0.0
  0
VERTEX
  8
0
 10
970.411820
 20
204.577765
 30
0.0
  0
VERTEX
  8
0
 10
970.38708
 20
204.557765
 30
0.0
  0
VERTEX
  8
0
 10
970.370580
 20
204.52776
 30
0.0
  0
VERTEX
  8
0
 10
970.370580
 20
204.50776
 30
0.0
  0
SEQEND
  8
0
 62
     1
  0
POLYLINE
  8
0
  6
CONTINUOUS
 62
     1
 66
     1
  0
VERTEX
  8
0
 10
964.21734
 20
208.0481
 30
0.0
  0
VERTEX
  8
0
 10
964.22558
 20
208.008095
 30
0.0
  0
VERTEX
  8
0
 10
964.242080
 20
207.988095
 30
0.0
  0
VERTEX
  8
0
 10
964.283320
 20
207.968095
 30
0.0
  0
VERTEX
  8
0
 10
964.324560
 20
207.968095
 30
0.0
  0
VERTEX
  8
0
 10
964.35756
 20
207.998095
 30
0.0
  0
VERTEX
  8
0
 10
964.37405
 20
208.028100
 30
0.0
  0
VERTEX
  8
0
 10
964.37405
 20
208.0581
 30
0.0
  0
VERTEX
  8
0
 10
964.35756
 20
208.098105
 30
0.0
  0
VERTEX
  8
0
 10
964.332810
 20
208.118105
 30
0.0
  0
VERTEX
  8
0
 10
964.299820
 20
208.12811
 30
0.0
  0
VERTEX
  8
0
 10
964.25858
 20
208.118105
 30
0.0
  0
VERTEX
  8
0
 10
964.23383
 20
208.098105
 30
0.0
  0
VERTEX
  8
0
 10
964.21734
 20
208.068105
 30
0.0
  0
VERTEX
  8
0
 10
964.21734
 20
208.0481
 30
0.0
  0
SEQEND
  8
0
 62
     1
  0
POLYLINE
  8
0
  6
CONTINUOUS
 62
     1
 66
     1
  0
VERTEX
  8
0
 10
959.40032
 20
208.958190
 30
0.0
  0
VERTEX
  8
0
 10
959.40857
 20
208.918185
 30
0.0
  0
VERTEX
  8
0
 10
959.42506
 20
208.898185
 30
0.0
  0
VERTEX
  8
0
 10
959.4663
 20
208.87818
 30
0.0
  0
VERTEX
  8
0
 10
959.50755
 20
208.87818
 30
0.0
  0
VERTEX
  8
0
 10
959.54054
 20
208.908185
 30
0.0
  0
VERTEX
  8
0
 10
959.55704
 20
208.938185
 30
0.0
  0
VERTEX
  8
0
 10
959.55704
 20
208.96819
 30
0.0
  0
VERTEX
  8
0
 10
959.54054
 20
209.008195
 30
0.0
  0
VERTEX
  8
0
 10
959.51579
 20
209.028195
 30
0.0
  0
VERTEX
  8
0
 10
959.4828
 20
209.038195
 30
0.0
  0
VERTEX
  8
0
 10
959.441560
 20
209.028195
 30
0.0
  0
VERTEX
  8
0
 10
959.416810
 20
209.008195
 30
0.0
  0
VERTEX
  8
0
 10
959.40032
 20
208.97819
 30
0.0
  0
VERTEX
  8
0
 10
959.40032
 20
208.958190
 30
0.0
  0
SEQEND
  8
0
 62
     1
  0
POLYLINE
  8
0
  6
CONTINUOUS
 62
     1
 66
     1
  0
VERTEX
  8
0
 10
959.67251
 20
211.048390
 30
0.0
  0
VERTEX
  8
0
 10
959.68076
 20
211.008385
 30
0.0
  0
VERTEX
  8
0
 10
959.697260
 20
210.988385
 30
0.0
  0
VERTEX
  8
0
 10
959.7385
 20
210.968385
 30
0.0
  0
VERTEX
  8
0
 10
959.779740
 20
210.968385
 30
0.0
  0
VERTEX
  8
0
 10
959.81273
 20
210.998385
 30
0.0
  0
VERTEX
  8
0
 10
959.82923
 20
211.028390
 30
0.0
  0
VERTEX
  8
0
 10
959.82923
 20
211.058390
 30
0.0
  0
VERTEX
  8
0
 10
959.81273
 20
211.098395
 30
0.0
  0
VERTEX
  8
0
 10
959.78799
 20
211.118395
 30
0.0
  0
VERTEX
  8
0
 10
959.755
 20
211.1284
 30
0.0
  0
VERTEX
  8
0
 10
959.71375
 20
211.118395
 30
0.0
  0
VERTEX
  8
0
 10
959.689010
 20
211.098395
 30
0.0
  0
VERTEX
  8
0
 10
959.67251
 20
211.068390
 30
0.0
  0
VERTEX
  8
0
 10
959.67251
 20
211.048390
 30
0.0
  0
SEQEND
  8
0
 62
     1
  0
POLYLINE
  8
0
  6
CONTINUOUS
 62
     1
 66
     1
  0
VERTEX
  8
0
 10
952.32326
 20
212.398520
 30
0.0
  0
VERTEX
  8
0
 10
952.33151
 20
212.358515
 30
0.0
  0
VERTEX
  8
0
 10
952.34801
 20
212.338515
 30
0.0
  0
VERTEX
  8
0
 10
952.38925
 20
212.318515
 30
0.0
  0
VERTEX
  8
0
 10
952.43049
 20
212.318515
 30
0.0
  0
VERTEX
  8
0
 10
952.46348
 20
212.348515
 30
0.0
  0
VERTEX
  8
0
 10
952.47998
 20
212.37852
 30
0.0
  0
VERTEX
  8
0
 10
952.47998
 20
212.408520
 30
0.0
  0
VERTEX
  8
0
 10
952.46348
 20
212.448525
 30
0.0
  0
VERTEX
  8
0
 10
952.43874
 20
212.468525
 30
0.0
  0
VERTEX
  8
0
 10
952.40574
 20
212.47853
 30
0.0
  0
VERTEX
  8
0
 10
952.364500
 20
212.468525
 30
0.0
  0
VERTEX
  8
0
 10
952.33976
 20
212.448525
 30
0.0
  0
VERTEX
  8
0
 10
952.32326
 20
212.418525
 30
0.0
  0
VERTEX
  8
0
 10
952.32326
 20
212.398520
 30
0.0
  0
SEQEND
  8
0
 62
     1
  0
POLYLINE
  8
0
  6
CONTINUOUS
 62
     1
 66
     1
  0
VERTEX
  8
0
 10
954.8225
 20
211.928475
 30
0.0
  0
VERTEX
  8
0
 10
954.830750
 20
211.88847
 30
0.0
  0
VERTEX
  8
0
 10
954.84725
 20
211.868470
 30
0.0
  0
VERTEX
  8
0
 10
954.888490
 20
211.84847
 30
0.0
  0
VERTEX
  8
0
 10
954.92973
 20
211.84847
 30
0.0
  0
VERTEX
  8
0
 10
954.96272
 20
211.87847
 30
0.0
  0
VERTEX
  8
0
 10
954.97922
 20
211.908475
 30
0.0
  0
VERTEX
  8
0
 10
954.97922
 20
211.938475
 30
0.0
  0
VERTEX
  8
0
 10
954.96272
 20
211.97848
 30
0.0
  0
VERTEX
  8
0
 10
954.93798
 20
211.998480
 30
0.0
  0
VERTEX
  8
0
 10
954.90498
 20
212.008485
 30
0.0
  0
VERTEX
  8
0
 10
954.86374
 20
211.998480
 30
0.0
  0
VERTEX
  8
0
 10
954.839000
 20
211.97848
 30
0.0
  0
VERTEX
  8
0
 10
954.8225
 20
211.948475
 30
0.0
  0
VERTEX
  8
0
 10
954.8225
 20
211.928475
 30
0.0
  0
SEQEND
  8
0
 62
     1
  0
POLYLINE
  8
0
  6
CONTINUOUS
 62
     1
 66
     1
  0
VERTEX
  8
0
 10
951.96033
 20
210.368325
 30
0.0
  0
VERTEX
  8
0
 10
951.968580
 20
210.328320
 30
0.0
  0
VERTEX
  8
0
 10
951.98508
 20
210.30832
 30
0.0
  0
VERTEX
  8
0
 10
952.026320
 20
210.288315
 30
0.0
  0
VERTEX
  8
0
 10
952.06756
 20
210.288315
 30
0.0
  0
VERTEX
  8
0
 10
952.100560
 20
210.318320
 30
0.0
  0
VERTEX
  8
0
 10
952.11705
 20
210.348325
 30
0.0
  0
VERTEX
  8
0
 10
952.11705
 20
210.378325
 30
0.0
  0
VERTEX
  8
0
 10
952.100560
 20
210.418330
 30
0.0
  0
VERTEX
  8
0
 10
952.075810
 20
210.43833
 30
0.0
  0
VERTEX
  8
0
 10
952.042820
 20
210.44833
 30
0.0
  0
VERTEX
  8
0
 10
952.001580
 20
210.43833
 30
0.0
  0
VERTEX
  8
0
 10
951.976830
 20
210.418330
 30
0.0
  0
VERTEX
  8
0
 10
951.96033
 20
210.388325
 30
0.0
  0
VERTEX
  8
0
 10
951.96033
 20
210.368325
 30
0.0
  0
SEQEND
  8
0
 62
     1
  0
POLYLINE
  8
0
  6
CONTINUOUS
 62
     1
 66
     1
  0
VERTEX
  8
0
 10
968.52296
 20
207.268025
 30
0.0
  0
VERTEX
  8
0
 10
968.531210
 20
207.228020
 30
0.0
  0
VERTEX
  8
0
 10
968.5477
 20
207.20802
 30
0.0
  0
VERTEX
  8
0
 10
968.58895
 20
207.18802
 30
0.0
  0
VERTEX
  8
0
 10
968.630190
 20
207.18802
 30
0.0
  0
VERTEX
  8
0
 10
968.663180
 20
207.218020
 30
0.0
  0
VERTEX
  8
0
 10
968.679680
 20
207.248025
 30
0.0
  0
VERTEX
  8
0
 10
968.679680
 20
207.278025
 30
0.0
  0
VERTEX
  8
0
 10
968.663180
 20
207.31803
 30
0.0
  0
VERTEX
  8
0
 10
968.638440
 20
207.33803
 30
0.0
  0
VERTEX
  8
0
 10
968.60544
 20
207.348035
 30
0.0
  0
VERTEX
  8
0
 10
968.5642
 20
207.33803
 30
0.0
  0
VERTEX
  8
0
 10
968.53946
 20
207.31803
 30
0.0
  0
VERTEX
  8
0
 10
968.52296
 20
207.288025
 30
0.0
  0
VERTEX
  8
0
 10
968.52296
 20
207.268025
 30
0.0
  0
SEQEND
  8
0
 62
     1
  0
POLYLINE
  8
0
  6
CONTINUOUS
 62
     1
 66
     1
  0
VERTEX
  8
0
 10
942.15308
 20
212.09849
 30
0.0
  0
VERTEX
  8
0
 10
942.16133
 20
212.05849
 30
0.0
  0
VERTEX
  8
0
 10
942.177830
 20
212.038485
 30
0.0
  0
VERTEX
  8
0
 10
942.21907
 20
212.018485
 30
0.0
  0
VERTEX
  8
0
 10
942.260310
 20
212.018485
 30
0.0
  0
VERTEX
  8
0
 10
942.293300
 20
212.048485
 30
0.0
  0
VERTEX
  8
0
 10
942.3098
 20
212.078490
 30
0.0
  0
VERTEX
  8
0
 10
942.3098
 20
212.108495
 30
0.0
  0
VERTEX
  8
0
 10
942.293300
 20
212.148495
 30
0.0
  0
VERTEX
  8
0
 10
942.268560
 20
212.1685
 30
0.0
  0
VERTEX
  8
0
 10
942.235570
 20
212.178500
 30
0.0
  0
VERTEX
  8
0
 10
942.194320
 20
212.1685
 30
0.0
  0
VERTEX
  8
0
 10
942.169580
 20
212.148495
 30
0.0
  0
VERTEX
  8
0
 10
942.15308
 20
212.118495
 30
0.0
  0
VERTEX
  8
0
 10
942.15308
 20
212.09849
 30
0.0
  0
SEQEND
  8
0
 62
     1
  0
POLYLINE
  8
0
  6
CONTINUOUS
 62
     1
 66
     1
  0
VERTEX
  8
0
 10
937.25358
 20
213.008580
 30
0.0
  0
VERTEX
  8
0
 10
937.26183
 20
212.968575
 30
0.0
  0
VERTEX
  8
0
 10
937.278330
 20
212.948575
 30
0.0
  0
VERTEX
  8
0
 10
937.31957
 20
212.92857
 30
0.0
  0
VERTEX
  8
0
 10
937.36081
 20
212.92857
 30
0.0
  0
VERTEX
  8
0
 10
937.3938
 20
212.958575
 30
0.0
  0
VERTEX
  8
0
 10
937.4103
 20
212.988580
 30
0.0
  0
VERTEX
  8
0
 10
937.4103
 20
213.01858
 30
0.0
  0
VERTEX
  8
0
 10
937.3938
 20
213.058585
 30
0.0
  0
VERTEX
  8
0
 10
937.369060
 20
213.078585
 30
0.0
  0
VERTEX
  8
0
 10
937.336060
 20
213.088585
 30
0.0
  0
VERTEX
  8
0
 10
937.29482
 20
213.078585
 30
0.0
  0
VERTEX
  8
0
 10
937.27008
 20
213.058585
 30
0.0
  0
VERTEX
  8
0
 10
937.25358
 20
213.028580
 30
0.0
  0
VERTEX
  8
0
 10
937.25358
 20
213.008580
 30
0.0
  0
SEQEND
  8
0
 62
     1
  0
POLYLINE
  8
0
  6
CONTINUOUS
 62
     1
 66
     1
  0
VERTEX
  8
0
 10
937.633
 20
215.07878
 30
0.0
  0
VERTEX
  8
0
 10
937.64125
 20
215.038775
 30
0.0
  0
VERTEX
  8
0
 10
937.65775
 20
215.018775
 30
0.0
  0
VERTEX
  8
0
 10
937.69899
 20
214.99877
 30
0.0
  0
VERTEX
  8
0
 10
937.74023
 20
214.99877
 30
0.0
  0
VERTEX
  8
0
 10
937.77323
 20
215.028775
 30
0.0
  0
VERTEX
  8
0
 10
937.78972
 20
215.058780
 30
0.0
  0
VERTEX
  8
0
 10
937.78972
 20
215.08878
 30
0.0
  0
VERTEX
  8
0
 10
937.77323
 20
215.128785
 30
0.0
  0
VERTEX
  8
0
 10
937.74848
 20
215.148785
 30
0.0
  0
VERTEX
  8
0
 10
937.71549
 20
215.158785
 30
0.0
  0
VERTEX
  8
0
 10
937.67425
 20
215.148785
 30
0.0
  0
VERTEX
  8
0
 10
937.649500
 20
215.128785
 30
0.0
  0
VERTEX
  8
0
 10
937.633
 20
215.09878
 30
0.0
  0
VERTEX
  8
0
 10
937.633
 20
215.07878
 30
0.0
  0
SEQEND
  8
0
 62
     1
  0
POLYLINE
  8
0
  6
CONTINUOUS
 62
     1
 66
     1
  0
VERTEX
  8
0
 10
933.7068
 20
215.79885
 30
0.0
  0
VERTEX
  8
0
 10
933.71505
 20
215.758845
 30
0.0
  0
VERTEX
  8
0
 10
933.73155
 20
215.738845
 30
0.0
  0
VERTEX
  8
0
 10
933.772790
 20
215.718840
 30
0.0
  0
VERTEX
  8
0
 10
933.814030
 20
215.718840
 30
0.0
  0
VERTEX
  8
0
 10
933.84703
 20
215.748845
 30
0.0
  0
VERTEX
  8
0
 10
933.863520
 20
215.778845
 30
0.0
  0
VERTEX
  8
0
 10
933.863520
 20
215.80885
 30
0.0
  0
VERTEX
  8
0
 10
933.84703
 20
215.848855
 30
0.0
  0
VERTEX
  8
0
 10
933.82228
 20
215.868855
 30
0.0
  0
VERTEX
  8
0
 10
933.78929
 20
215.878855
 30
0.0
  0
VERTEX
  8
0
 10
933.74805
 20
215.868855
 30
0.0
  0
VERTEX
  8
0
 10
933.7233
 20
215.848855
 30
0.0
  0
VERTEX
  8
0
 10
933.7068
 20
215.818850
 30
0.0
  0
VERTEX
  8
0
 10
933.7068
 20
215.79885
 30
0.0
  0
SEQEND
  8
0
 62
     1
  0
POLYLINE
  8
0
  6
CONTINUOUS
 62
     1
 66
     1
  0
VERTEX
  8
0
 10
930.7869
 20
216.3389
 30
0.0
  0
VERTEX
  8
0
 10
930.795150
 20
216.298895
 30
0.0
  0
VERTEX
  8
0
 10
930.81164
 20
216.278895
 30
0.0
  0
VERTEX
  8
0
 10
930.852890
 20
216.258895
 30
0.0
  0
VERTEX
  8
0
 10
930.89413
 20
216.258895
 30
0.0
  0
VERTEX
  8
0
 10
930.92712
 20
216.288895
 30
0.0
  0
VERTEX
  8
0
 10
930.94362
 20
216.3189
 30
0.0
  0
VERTEX
  8
0
 10
930.94362
 20
216.3489
 30
0.0
  0
VERTEX
  8
0
 10
930.92712
 20
216.388905
 30
0.0
  0
VERTEX
  8
0
 10
930.902380
 20
216.408910
 30
0.0
  0
VERTEX
  8
0
 10
930.869380
 20
216.41891
 30
0.0
  0
VERTEX
  8
0
 10
930.82814
 20
216.408910
 30
0.0
  0
VERTEX
  8
0
 10
930.8034
 20
216.388905
 30
0.0
  0
VERTEX
  8
0
 10
930.7869
 20
216.358905
 30
0.0
  0
VERTEX
  8
0
 10
930.7869
 20
216.3389
 30
0.0
  0
SEQEND
  8
0
 62
     1
  0
POLYLINE
  8
0
  6
CONTINUOUS
 62
     1
 66
     1
  0
VERTEX
  8
0
 10
931.29829
 20
219.259185
 30
0.0
  0
VERTEX
  8
0
 10
931.306540
 20
219.219180
 30
0.0
  0
VERTEX
  8
0
 10
931.32304
 20
219.199175
 30
0.0
  0
VERTEX
  8
0
 10
931.36428
 20
219.179175
 30
0.0
  0
VERTEX
  8
0
 10
931.405520
 20
219.179175
 30
0.0
  0
VERTEX
  8
0
 10
931.438520
 20
219.209180
 30
0.0
  0
VERTEX
  8
0
 10
931.45501
 20
219.23918
 30
0.0
  0
VERTEX
  8
0
 10
931.45501
 20
219.269185
 30
0.0
  0
VERTEX
  8
0
 10
931.438520
 20
219.30919
 30
0.0
  0
VERTEX
  8
0
 10
931.41377
 20
219.32919
 30
0.0
  0
VERTEX
  8
0
 10
931.380780
 20
219.33919
 30
0.0
  0
VERTEX
  8
0
 10
931.339540
 20
219.32919
 30
0.0
  0
VERTEX
  8
0
 10
931.314790
 20
219.30919
 30
0.0
  0
VERTEX
  8
0
 10
931.29829
 20
219.279185
 30
0.0
  0
VERTEX
  8
0
 10
931.29829
 20
219.259185
 30
0.0
  0
SEQEND
  8
0
 62
     1
  0
POLYLINE
  8
0
  6
CONTINUOUS
 62
     1
 66
     1
  0
VERTEX
  8
0
 10
934.251190
 20
218.739135
 30
0.0
  0
VERTEX
  8
0
 10
934.25944
 20
218.69913
 30
0.0
  0
VERTEX
  8
0
 10
934.275940
 20
218.679125
 30
0.0
  0
VERTEX
  8
0
 10
934.317180
 20
218.659125
 30
0.0
  0
VERTEX
  8
0
 10
934.358420
 20
218.659125
 30
0.0
  0
VERTEX
  8
0
 10
934.39141
 20
218.68913
 30
0.0
  0
VERTEX
  8
0
 10
934.407910
 20
218.71913
 30
0.0
  0
VERTEX
  8
0
 10
934.407910
 20
218.749135
 30
0.0
  0
VERTEX
  8
0
 10
934.39141
 20
218.789140
 30
0.0
  0
VERTEX
  8
0
 10
934.366670
 20
218.809140
 30
0.0
  0
VERTEX
  8
0
 10
934.333680
 20
218.819140
 30
0.0
  0
VERTEX
  8
0
 10
934.292430
 20
218.809140
 30
0.0
  0
VERTEX
  8
0
 10
934.267690
 20
218.789140
 30
0.0
  0
VERTEX
  8
0
 10
934.251190
 20
218.759135
 30
0.0
  0
VERTEX
  8
0
 10
934.251190
 20
218.739135
 30
0.0
  0
SEQEND
  8
0
 62
     1
  0
POLYLINE
  8
0
  6
CONTINUOUS
 62
     1
 66
     1
  0
VERTEX
  8
0
 10
927.32261
 20
216.92896
 30
0.0
  0
VERTEX
  8
0
 10
927.33085
 20
216.888955
 30
0.0
  0
VERTEX
  8
0
 10
927.34735
 20
216.86895
 30
0.0
  0
VERTEX
  8
0
 10
927.38859
 20
216.84895
 30
0.0
  0
VERTEX
  8
0
 10
927.42983
 20
216.84895
 30
0.0
  0
VERTEX
  8
0
 10
927.462830
 20
216.878955
 30
0.0
  0
VERTEX
  8
0
 10
927.479320
 20
216.908955
 30
0.0
  0
VERTEX
  8
0
 10
927.479320
 20
216.93896
 30
0.0
  0
VERTEX
  8
0
 10
927.462830
 20
216.978965
 30
0.0
  0
VERTEX
  8
0
 10
927.43808
 20
216.998965
 30
0.0
  0
VERTEX
  8
0
 10
927.40509
 20
217.008965
 30
0.0
  0
VERTEX
  8
0
 10
927.36385
 20
216.998965
 30
0.0
  0
VERTEX
  8
0
 10
927.3391
 20
216.978965
 30
0.0
  0
VERTEX
  8
0
 10
927.32261
 20
216.94896
 30
0.0
  0
VERTEX
  8
0
 10
927.32261
 20
216.92896
 30
0.0
  0
SEQEND
  8
0
 62
     1
  0
POLYLINE
  8
0
  6
CONTINUOUS
 62
     1
 66
     1
  0
VERTEX
  8
0
 10
927.85875
 20
219.86924
 30
0.0
  0
VERTEX
  8
0
 10
927.86699
 20
219.82924
 30
0.0
  0
VERTEX
  8
0
 10
927.88349
 20
219.809235
 30
0.0
  0
VERTEX
  8
0
 10
927.92473
 20
219.789235
 30
0.0
  0
VERTEX
  8
0
 10
927.965970
 20
219.789235
 30
0.0
  0
VERTEX
  8
0
 10
927.99897
 20
219.819235
 30
0.0
  0
VERTEX
  8
0
 10
928.01546
 20
219.84924
 30
0.0
  0
VERTEX
  8
0
 10
928.01546
 20
219.879245
 30
0.0
  0
VERTEX
  8
0
 10
927.99897
 20
219.919245
 30
0.0
  0
VERTEX
  8
0
 10
927.97422
 20
219.93925
 30
0.0
  0
VERTEX
  8
0
 10
927.94123
 20
219.949250
 30
0.0
  0
VERTEX
  8
0
 10
927.89999
 20
219.93925
 30
0.0
  0
VERTEX
  8
0
 10
927.875240
 20
219.919245
 30
0.0
  0
VERTEX
  8
0
 10
927.85875
 20
219.889245
 30
0.0
  0
VERTEX
  8
0
 10
927.85875
 20
219.86924
 30
0.0
  0
SEQEND
  8
0
 62
     1
  0
POLYLINE
  8
0
  6
CONTINUOUS
 62
     1
 66
     1
  0
VERTEX
  8
0
 10
922.951
 20
220.77933
 30
0.0
  0
VERTEX
  8
0
 10
922.95924
 20
220.739325
 30
0.0
  0
VERTEX
  8
0
 10
922.97574
 20
220.719325
 30
0.0
  0
VERTEX
  8
0
 10
923.01698
 20
220.69932
 30
0.0
  0
VERTEX
  8
0
 10
923.058220
 20
220.69932
 30
0.0
  0
VERTEX
  8
0
 10
923.09122
 20
220.729325
 30
0.0
  0
VERTEX
  8
0
 10
923.107710
 20
220.759330
 30
0.0
  0
VERTEX
  8
0
 10
923.107710
 20
220.789330
 30
0.0
  0
VERTEX
  8
0
 10
923.09122
 20
220.829335
 30
0.0
  0
VERTEX
  8
0
 10
923.06647
 20
220.849335
 30
0.0
  0
VERTEX
  8
0
 10
923.03348
 20
220.859340
 30
0.0
  0
VERTEX
  8
0
 10
922.992240
 20
220.849335
 30
0.0
  0
VERTEX
  8
0
 10
922.96749
 20
220.829335
 30
0.0
  0
VERTEX
  8
0
 10
922.951
 20
220.799330
 30
0.0
  0
VERTEX
  8
0
 10
922.951
 20
220.77933
 30
0.0
  0
SEQEND
  8
0
 62
     1
  0
POLYLINE
  8
0
  6
CONTINUOUS
 62
     1
 66
     1
  0
VERTEX
  8
0
 10
920.286790
 20
221.229375
 30
0.0
  0
VERTEX
  8
0
 10
920.29504
 20
221.18937
 30
0.0
  0
VERTEX
  8
0
 10
920.311530
 20
221.169365
 30
0.0
  0
VERTEX
  8
0
 10
920.352780
 20
221.149365
 30
0.0
  0
VERTEX
  8
0
 10
920.39402
 20
221.149365
 30
0.0
  0
VERTEX
  8
0
 10
920.42701
 20
221.17937
 30
0.0
  0
VERTEX
  8
0
 10
920.44351
 20
221.20937
 30
0.0
  0
VERTEX
  8
0
 10
920.44351
 20
221.239375
 30
0.0
  0
VERTEX
  8
0
 10
920.42701
 20
221.27938
 30
0.0
  0
VERTEX
  8
0
 10
920.402270
 20
221.29938
 30
0.0
  0
VERTEX
  8
0
 10
920.36927
 20
221.30938
 30
0.0
  0
VERTEX
  8
0
 10
920.32803
 20
221.29938
 30
0.0
  0
VERTEX
  8
0
 10
920.30329
 20
221.27938
 30
0.0
  0
VERTEX
  8
0
 10
920.286790
 20
221.249375
 30
0.0
  0
VERTEX
  8
0
 10
920.286790
 20
221.229375
 30
0.0
  0
SEQEND
  8
0
 62
     1
  0
POLYLINE
  8
0
  6
CONTINUOUS
 62
     1
 66
     1
  0
VERTEX
  8
0
 10
919.775390
 20
218.329095
 30
0.0
  0
VERTEX
  8
0
 10
919.78364
 20
218.28909
 30
0.0
  0
VERTEX
  8
0
 10
919.800140
 20
218.269085
 30
0.0
  0
VERTEX
  8
0
 10
919.84138
 20
218.249085
 30
0.0
  0
VERTEX
  8
0
 10
919.88262
 20
218.249085
 30
0.0
  0
VERTEX
  8
0
 10
919.91561
 20
218.27909
 30
0.0
  0
VERTEX
  8
0
 10
919.93211
 20
218.30909
 30
0.0
  0
VERTEX
  8
0
 10
919.93211
 20
218.339095
 30
0.0
  0
VERTEX
  8
0
 10
919.91561
 20
218.379100
 30
0.0
  0
VERTEX
  8
0
 10
919.89087
 20
218.3991
 30
0.0
  0
VERTEX
  8
0
 10
919.85788
 20
218.4091
 30
0.0
  0
VERTEX
  8
0
 10
919.81663
 20
218.3991
 30
0.0
  0
VERTEX
  8
0
 10
919.791890
 20
218.379100
 30
0.0
  0
VERTEX
  8
0
 10
919.775390
 20
218.349095
 30
0.0
  0
VERTEX
  8
0
 10
919.775390
 20
218.329095
 30
0.0
  0
SEQEND
  8
0
 62
     1
  0
POLYLINE
  8
0
  6
CONTINUOUS
 62
     1
 66
     1
  0
VERTEX
  8
0
 10
922.43135
 20
217.849045
 30
0.0
  0
VERTEX
  8
0
 10
922.4396
 20
217.809045
 30
0.0
  0
VERTEX
  8
0
 10
922.4561
 20
217.789040
 30
0.0
  0
VERTEX
  8
0
 10
922.49734
 20
217.76904
 30
0.0
  0
VERTEX
  8
0
 10
922.53858
 20
217.76904
 30
0.0
  0
VERTEX
  8
0
 10
922.57157
 20
217.799040
 30
0.0
  0
VERTEX
  8
0
 10
922.588070
 20
217.829045
 30
0.0
  0
VERTEX
  8
0
 10
922.588070
 20
217.85905
 30
0.0
  0
VERTEX
  8
0
 10
922.57157
 20
217.89905
 30
0.0
  0
VERTEX
  8
0
 10
922.54683
 20
217.919055
 30
0.0
  0
VERTEX
  8
0
 10
922.513840
 20
217.929055
 30
0.0
  0
VERTEX
  8
0
 10
922.472590
 20
217.919055
 30
0.0
  0
VERTEX
  8
0
 10
922.44785
 20
217.89905
 30
0.0
  0
VERTEX
  8
0
 10
922.43135
 20
217.86905
 30
0.0
  0
VERTEX
  8
0
 10
922.43135
 20
217.849045
 30
0.0
  0
SEQEND
  8
0
 62
     1
  0
POLYLINE
  8
0
  6
CONTINUOUS
 62
     1
 66
     1
  0
VERTEX
  8
0
 10
914.51297
 20
217.138980
 30
0.0
  0
VERTEX
  8
0
 10
914.521210
 20
217.098975
 30
0.0
  0
VERTEX
  8
0
 10
914.53771
 20
217.078975
 30
0.0
  0
VERTEX
  8
0
 10
914.57895
 20
217.05897
 30
0.0
  0
VERTEX
  8
0
 10
914.620190
 20
217.05897
 30
0.0
  0
VERTEX
  8
0
 10
914.65319
 20
217.088975
 30
0.0
  0
VERTEX
  8
0
 10
914.669680
 20
217.118975
 30
0.0
  0
VERTEX
  8
0
 10
914.669680
 20
217.14898
 30
0.0
  0
VERTEX
  8
0
 10
914.65319
 20
217.188985
 30
0.0
  0
VERTEX
  8
0
 10
914.628440
 20
217.208985
 30
0.0
  0
VERTEX
  8
0
 10
914.59545
 20
217.218985
 30
0.0
  0
VERTEX
  8
0
 10
914.55421
 20
217.208985
 30
0.0
  0
VERTEX
  8
0
 10
914.52946
 20
217.188985
 30
0.0
  0
VERTEX
  8
0
 10
914.51297
 20
217.158980
 30
0.0
  0
VERTEX
  8
0
 10
914.51297
 20
217.138980
 30
0.0
  0
SEQEND
  8
0
 62
     1
  0
POLYLINE
  8
0
  6
CONTINUOUS
 62
     1
 66
     1
  0
VERTEX
  8
0
 10
915.42028
 20
222.12946
 30
0.0
  0
VERTEX
  8
0
 10
915.42853
 20
222.089455
 30
0.0
  0
VERTEX
  8
0
 10
915.44503
 20
222.069455
 30
0.0
  0
VERTEX
  8
0
 10
915.48627
 20
222.049450
 30
0.0
  0
VERTEX
  8
0
 10
915.52751
 20
222.049450
 30
0.0
  0
VERTEX
  8
0
 10
915.560500
 20
222.079455
 30
0.0
  0
VERTEX
  8
0
 10
915.577000
 20
222.10946
 30
0.0
  0
VERTEX
  8
0
 10
915.577000
 20
222.13946
 30
0.0
  0
VERTEX
  8
0
 10
915.560500
 20
222.179465
 30
0.0
  0
VERTEX
  8
0
 10
915.53576
 20
222.199465
 30
0.0
  0
VERTEX
  8
0
 10
915.50276
 20
222.20947
 30
0.0
  0
VERTEX
  8
0
 10
915.46152
 20
222.199465
 30
0.0
  0
VERTEX
  8
0
 10
915.43678
 20
222.179465
 30
0.0
  0
VERTEX
  8
0
 10
915.42028
 20
222.14946
 30
0.0
  0
VERTEX
  8
0
 10
915.42028
 20
222.12946
 30
0.0
  0
SEQEND
  8
0
 62
     1
  0
POLYLINE
  8
0
  6
CONTINUOUS
 62
     1
 66
     1
  0
VERTEX
  8
0
 10
909.20105
 20
215.818850
 30
0.0
  0
VERTEX
  8
0
 10
909.2093
 20
215.778845
 30
0.0
  0
VERTEX
  8
0
 10
909.22579
 20
215.758845
 30
0.0
  0
VERTEX
  8
0
 10
909.267030
 20
215.738845
 30
0.0
  0
VERTEX
  8
0
 10
909.30828
 20
215.738845
 30
0.0
  0
VERTEX
  8
0
 10
909.34127
 20
215.768845
 30
0.0
  0
VERTEX
  8
0
 10
909.35777
 20
215.79885
 30
0.0
  0
VERTEX
  8
0
 10
909.35777
 20
215.828850
 30
0.0
  0
VERTEX
  8
0
 10
909.34127
 20
215.868855
 30
0.0
  0
VERTEX
  8
0
 10
909.31652
 20
215.888860
 30
0.0
  0
VERTEX
  8
0
 10
909.28353
 20
215.89886
 30
0.0
  0
VERTEX
  8
0
 10
909.242290
 20
215.888860
 30
0.0
  0
VERTEX
  8
0
 10
909.21754
 20
215.868855
 30
0.0
  0
VERTEX
  8
0
 10
909.20105
 20
215.838855
 30
0.0
  0
VERTEX
  8
0
 10
909.20105
 20
215.818850
 30
0.0
  0
SEQEND
  8
0
 62
     1
  0
POLYLINE
  8
0
  6
CONTINUOUS
 62
     1
 66
     1
  0
VERTEX
  8
0
 10
909.60522
 20
218.039065
 30
0.0
  0
VERTEX
  8
0
 10
909.613460
 20
217.99906
 30
0.0
  0
VERTEX
  8
0
 10
909.62996
 20
217.97906
 30
0.0
  0
VERTEX
  8
0
 10
909.6712
 20
217.95906
 30
0.0
  0
VERTEX
  8
0
 10
909.71244
 20
217.95906
 30
0.0
  0
VERTEX
  8
0
 10
909.74544
 20
217.989060
 30
0.0
  0
VERTEX
  8
0
 10
909.761930
 20
218.019065
 30
0.0
  0
VERTEX
  8
0
 10
909.761930
 20
218.049065
 30
0.0
  0
VERTEX
  8
0
 10
909.74544
 20
218.08907
 30
0.0
  0
VERTEX
  8
0
 10
909.720690
 20
218.10907
 30
0.0
  0
VERTEX
  8
0
 10
909.6877
 20
218.119075
 30
0.0
  0
VERTEX
  8
0
 10
909.646460
 20
218.10907
 30
0.0
  0
VERTEX
  8
0
 10
909.62171
 20
218.08907
 30
0.0
  0
VERTEX
  8
0
 10
909.60522
 20
218.059065
 30
0.0
  0
VERTEX
  8
0
 10
909.60522
 20
218.039065
 30
0.0
  0
SEQEND
  8
0
 62
     1
  0
POLYLINE
  8
0
  6
CONTINUOUS
 62
     1
 66
     1
  0
VERTEX
  8
0
 10
910.504280
 20
223.029545
 30
0.0
  0
VERTEX
  8
0
 10
910.51253
 20
222.989545
 30
0.0
  0
VERTEX
  8
0
 10
910.52903
 20
222.96954
 30
0.0
  0
VERTEX
  8
0
 10
910.57027
 20
222.94954
 30
0.0
  0
VERTEX
  8
0
 10
910.611510
 20
222.94954
 30
0.0
  0
VERTEX
  8
0
 10
910.6445
 20
222.97954
 30
0.0
  0
VERTEX
  8
0
 10
910.661000
 20
223.009545
 30
0.0
  0
VERTEX
  8
0
 10
910.661000
 20
223.03955
 30
0.0
  0
VERTEX
  8
0
 10
910.6445
 20
223.07955
 30
0.0
  0
VERTEX
  8
0
 10
910.61976
 20
223.099555
 30
0.0
  0
VERTEX
  8
0
 10
910.586770
 20
223.109555
 30
0.0
  0
VERTEX
  8
0
 10
910.54552
 20
223.099555
 30
0.0
  0
VERTEX
  8
0
 10
910.52078
 20
223.07955
 30
0.0
  0
VERTEX
  8
0
 10
910.504280
 20
223.04955
 30
0.0
  0
VERTEX
  8
0
 10
910.504280
 20
223.029545
 30
0.0
  0
SEQEND
  8
0
 62
     1
  0
POLYLINE
  8
0
  6
CONTINUOUS
 62
     1
 66
     1
  0
VERTEX
  8
0
 10
908.054530
 20
223.44959
 30
0.0
  0
VERTEX
  8
0
 10
908.06278
 20
223.409585
 30
0.0
  0
VERTEX
  8
0
 10
908.07928
 20
223.38958
 30
0.0
  0
VERTEX
  8
0
 10
908.12052
 20
223.36958
 30
0.0
  0
VERTEX
  8
0
 10
908.16176
 20
223.36958
 30
0.0
  0
VERTEX
  8
0
 10
908.19475
 20
223.399585
 30
0.0
  0
VERTEX
  8
0
 10
908.21125
 20
223.429585
 30
0.0
  0
VERTEX
  8
0
 10
908.21125
 20
223.45959
 30
0.0
  0
VERTEX
  8
0
 10
908.19475
 20
223.49959
 30
0.0
  0
VERTEX
  8
0
 10
908.17001
 20
223.519595
 30
0.0
  0
VERTEX
  8
0
 10
908.13702
 20
223.529595
 30
0.0
  0
VERTEX
  8
0
 10
908.09577
 20
223.519595
 30
0.0
  0
VERTEX
  8
0
 10
908.071030
 20
223.49959
 30
0.0
  0
VERTEX
  8
0
 10
908.054530
 20
223.469590
 30
0.0
  0
VERTEX
  8
0
 10
908.054530
 20
223.44959
 30
0.0
  0
SEQEND
  8
0
 62
     1
  0
POLYLINE
  8
0
  6
CONTINUOUS
 62
     1
 66
     1
  0
VERTEX
  8
0
 10
907.13897
 20
218.489110
 30
0.0
  0
VERTEX
  8
0
 10
907.147220
 20
218.449105
 30
0.0
  0
VERTEX
  8
0
 10
907.16371
 20
218.429105
 30
0.0
  0
VERTEX
  8
0
 10
907.20495
 20
218.4091
 30
0.0
  0
VERTEX
  8
0
 10
907.2462
 20
218.4091
 30
0.0
  0
VERTEX
  8
0
 10
907.279190
 20
218.439105
 30
0.0
  0
VERTEX
  8
0
 10
907.295690
 20
218.469105
 30
0.0
  0
VERTEX
  8
0
 10
907.295690
 20
218.499110
 30
0.0
  0
VERTEX
  8
0
 10
907.279190
 20
218.539115
 30
0.0
  0
VERTEX
  8
0
 10
907.25444
 20
218.559115
 30
0.0
  0
VERTEX
  8
0
 10
907.22145
 20
218.569115
 30
0.0
  0
VERTEX
  8
0
 10
907.180210
 20
218.559115
 30
0.0
  0
VERTEX
  8
0
 10
907.155470
 20
218.539115
 30
0.0
  0
VERTEX
  8
0
 10
907.13897
 20
218.509110
 30
0.0
  0
VERTEX
  8
0
 10
907.13897
 20
218.489110
 30
0.0
  0
SEQEND
  8
0
 62
     1
  0
POLYLINE
  8
0
  6
CONTINUOUS
 62
     1
 66
     1
  0
VERTEX
  8
0
 10
906.76779
 20
216.3089
 30
0.0
  0
VERTEX
  8
0
 10
906.776040
 20
216.268895
 30
0.0
  0
VERTEX
  8
0
 10
906.79254
 20
216.24889
 30
0.0
  0
VERTEX
  8
0
 10
906.83378
 20
216.22889
 30
0.0
  0
VERTEX
  8
0
 10
906.875020
 20
216.22889
 30
0.0
  0
VERTEX
  8
0
 10
906.90802
 20
216.258895
 30
0.0
  0
VERTEX
  8
0
 10
906.92451
 20
216.288895
 30
0.0
  0
VERTEX
  8
0
 10
906.92451
 20
216.3189
 30
0.0
  0
VERTEX
  8
0
 10
906.90802
 20
216.358905
 30
0.0
  0
VERTEX
  8
0
 10
906.88327
 20
216.378905
 30
0.0
  0
VERTEX
  8
0
 10
906.85028
 20
216.388905
 30
0.0
  0
VERTEX
  8
0
 10
906.809040
 20
216.378905
 30
0.0
  0
VERTEX
  8
0
 10
906.78429
 20
216.358905
 30
0.0
  0
VERTEX
  8
0
 10
906.76779
 20
216.3289
 30
0.0
  0
VERTEX
  8
0
 10
906.76779
 20
216.3089
 30
0.0
  0
SEQEND
  8
0
 62
     1
  0
POLYLINE
  8
0
  6
CONTINUOUS
 62
     1
 66
     1
  0
VERTEX
  8
0
 10
938.020670
 20
218.07907
 30
0.0
  0
VERTEX
  8
0
 10
938.012430
 20
217.989060
 30
0.0
  0
VERTEX
  8
0
 10
938.28462
 20
217.949055
 30
0.0
  0
VERTEX
  8
0
 10
938.292870
 20
218.029065
 30
0.0
  0
VERTEX
  8
0
 10
938.020670
 20
218.07907
 30
0.0
  0
SEQEND
  8
0
 62
     1
  0
POLYLINE
  8
0
  6
CONTINUOUS
 62
     1
 66
     1
  0
VERTEX
  8
0
 10
942.95317
 20
217.188985
 30
0.0
  0
VERTEX
  8
0
 10
942.944920
 20
217.098975
 30
0.0
  0
VERTEX
  8
0
 10
943.184120
 20
217.05897
 30
0.0
  0
VERTEX
  8
0
 10
943.20887
 20
217.14898
 30
0.0
  0
VERTEX
  8
0
 10
942.95317
 20
217.188985
 30
0.0
  0
SEQEND
  8
0
 62
     1
  0
POLYLINE
  8
0
  6
CONTINUOUS
 62
     1
 66
     1
  0
VERTEX
  8
0
 10
952.76867
 20
215.39881
 30
0.0
  0
VERTEX
  8
0
 10
952.760420
 20
215.2988
 30
0.0
  0
VERTEX
  8
0
 10
953.03262
 20
215.258795
 30
0.0
  0
VERTEX
  8
0
 10
953.057360
 20
215.338805
 30
0.0
  0
VERTEX
  8
0
 10
952.76867
 20
215.39881
 30
0.0
  0
SEQEND
  8
0
 62
     1
  0
POLYLINE
  8
0
  6
CONTINUOUS
 62
     1
 66
     1
  0
VERTEX
  8
0
 10
957.70941
 20
214.488725
 30
0.0
  0
VERTEX
  8
0
 10
957.70116
 20
214.398715
 30
0.0
  0
VERTEX
  8
0
 10
957.92387
 20
214.35871
 30
0.0
  0
VERTEX
  8
0
 10
957.948610
 20
214.43872
 30
0.0
  0
VERTEX
  8
0
 10
957.70941
 20
214.488725
 30
0.0
  0
SEQEND
  8
0
 62
     1
  0
POLYLINE
  8
0
  6
CONTINUOUS
 62
     1
 66
     1
  0
VERTEX
  8
0
 10
962.633660
 20
213.578635
 30
0.0
  0
VERTEX
  8
0
 10
962.62541
 20
213.488625
 30
0.0
  0
VERTEX
  8
0
 10
962.848120
 20
213.44862
 30
0.0
  0
VERTEX
  8
0
 10
962.872860
 20
213.52863
 30
0.0
  0
VERTEX
  8
0
 10
962.633660
 20
213.578635
 30
0.0
  0
SEQEND
  8
0
 62
     1
  0
POLYLINE
  8
0
  6
CONTINUOUS
 62
     1
 66
     1
  0
VERTEX
  8
0
 10
967.53316
 20
212.698550
 30
0.0
  0
VERTEX
  8
0
 10
967.52491
 20
212.60854
 30
0.0
  0
VERTEX
  8
0
 10
967.74762
 20
212.568535
 30
0.0
  0
VERTEX
  8
0
 10
967.772360
 20
212.648545
 30
0.0
  0
VERTEX
  8
0
 10
967.53316
 20
212.698550
 30
0.0
  0
SEQEND
  8
0
 62
     1
  0
POLYLINE
  8
0
  6
CONTINUOUS
 62
     1
 66
     1
  0
VERTEX
  8
0
 10
972.490400
 20
211.798465
 30
0.0
  0
VERTEX
  8
0
 10
972.48215
 20
211.708455
 30
0.0
  0
VERTEX
  8
0
 10
972.704860
 20
211.66845
 30
0.0
  0
VERTEX
  8
0
 10
972.7296
 20
211.748460
 30
0.0
  0
VERTEX
  8
0
 10
972.490400
 20
211.798465
 30
0.0
  0
SEQEND
  8
0
 62
     1
  0
POLYLINE
  8
0
  6
CONTINUOUS
 62
     1
 66
     1
  0
VERTEX
  8
0
 10
977.3899
 20
210.888375
 30
0.0
  0
VERTEX
  8
0
 10
977.381650
 20
210.798365
 30
0.0
  0
VERTEX
  8
0
 10
977.604360
 20
210.758360
 30
0.0
  0
VERTEX
  8
0
 10
977.629100
 20
210.83837
 30
0.0
  0
VERTEX
  8
0
 10
977.3899
 20
210.888375
 30
0.0
  0
SEQEND
  8
0
 62
     1
  0
POLYLINE
  8
0
  6
CONTINUOUS
 62
     1
 66
     1
  0
VERTEX
  8
0
 10
982.3059
 20
209.98829
 30
0.0
  0
VERTEX
  8
0
 10
982.297650
 20
209.89828
 30
0.0
  0
VERTEX
  8
0
 10
982.520360
 20
209.858275
 30
0.0
  0
VERTEX
  8
0
 10
982.5451
 20
209.938285
 30
0.0
  0
VERTEX
  8
0
 10
982.3059
 20
209.98829
 30
0.0
  0
SEQEND
  8
0
 62
     1
  0
POLYLINE
  8
0
  6
CONTINUOUS
 62
     1
 66
     1
  0
VERTEX
  8
0
 10
996.13008
 20
221.5294
 30
0.0
  0
VERTEX
  8
0
 10
996.0476
 20
221.479395
 30
0.0
  0
VERTEX
  8
0
 10
996.00636
 20
221.40939
 30
0.0
  0
VERTEX
  8
0
 10
995.989860
 20
221.339385
 30
0.0
  0
VERTEX
  8
0
 10
995.989860
 20
221.229375
 30
0.0
  0
VERTEX
  8
0
 10
996.00636
 20
221.129365
 30
0.0
  0
VERTEX
  8
0
 10
996.07234
 20
221.039355
 30
0.0
  0
VERTEX
  8
0
 10
996.13008
 20
220.98935
 30
0.0
  0
VERTEX
  8
0
 10
996.229060
 20
220.96935
 30
0.0
  0
VERTEX
  8
0
 10
996.32804
 20
220.96935
 30
0.0
  0
VERTEX
  8
0
 10
996.410530
 20
220.98935
 30
0.0
  0
VERTEX
  8
0
 10
996.484760
 20
221.059355
 30
0.0
  0
VERTEX
  8
0
 10
996.55075
 20
221.129365
 30
0.0
  0
VERTEX
  8
0
 10
996.567240
 20
221.229375
 30
0.0
  0
VERTEX
  8
0
 10
996.55075
 20
221.339385
 30
0.0
  0
VERTEX
  8
0
 10
996.526
 20
221.40939
 30
0.0
  0
VERTEX
  8
0
 10
996.484760
 20
221.459395
 30
0.0
  0
VERTEX
  8
0
 10
996.42702
 20
221.4994
 30
0.0
  0
VERTEX
  8
0
 10
996.34454
 20
221.5294
 30
0.0
  0
VERTEX
  8
0
 10
996.2703
 20
221.549405
 30
0.0
  0
VERTEX
  8
0
 10
996.212570
 20
221.549405
 30
0.0
  0
VERTEX
  8
0
 10
996.13008
 20
221.5294
 30
0.0
  0
SEQEND
  8
0
 62
     1
  0
POLYLINE
  8
0
  6
CONTINUOUS
 62
     1
 66
     1
  0
VERTEX
  8
0
 10
995.42898
 20
217.509015
 30
0.0
  0
VERTEX
  8
0
 10
995.34649
 20
217.459010
 30
0.0
  0
VERTEX
  8
0
 10
995.30525
 20
217.389005
 30
0.0
  0
VERTEX
  8
0
 10
995.28875
 20
217.318995
 30
0.0
  0
VERTEX
  8
0
 10
995.28875
 20
217.208985
 30
0.0
  0
VERTEX
  8
0
 10
995.30525
 20
217.108975
 30
0.0
  0
VERTEX
  8
0
 10
995.37124
 20
217.018965
 30
0.0
  0
VERTEX
  8
0
 10
995.42898
 20
216.96896
 30
0.0
  0
VERTEX
  8
0
 10
995.52796
 20
216.94896
 30
0.0
  0
VERTEX
  8
0
 10
995.626940
 20
216.94896
 30
0.0
  0
VERTEX
  8
0
 10
995.70942
 20
216.96896
 30
0.0
  0
VERTEX
  8
0
 10
995.78365
 20
217.03897
 30
0.0
  0
VERTEX
  8
0
 10
995.849640
 20
217.108975
 30
0.0
  0
VERTEX
  8
0
 10
995.866140
 20
217.208985
 30
0.0
  0
VERTEX
  8
0
 10
995.849640
 20
217.318995
 30
0.0
  0
VERTEX
  8
0
 10
995.82489
 20
217.389005
 30
0.0
  0
VERTEX
  8
0
 10
995.78365
 20
217.439005
 30
0.0
  0
VERTEX
  8
0
 10
995.72591
 20
217.479010
 30
0.0
  0
VERTEX
  8
0
 10
995.643430
 20
217.509015
 30
0.0
  0
VERTEX
  8
0
 10
995.569200
 20
217.529015
 30
0.0
  0
VERTEX
  8
0
 10
995.511460
 20
217.529015
 30
0.0
  0
VERTEX
  8
0
 10
995.42898
 20
217.509015
 30
0.0
  0
SEQEND
  8
0
 62
     1
  0
POLYLINE
  8
0
  6
CONTINUOUS
 62
     1
 66
     1
  0
VERTEX
  8
0
 10
989.28398
 20
222.779525
 30
0.0
  0
VERTEX
  8
0
 10
989.20149
 20
222.72952
 30
0.0
  0
VERTEX
  8
0
 10
989.160250
 20
222.65951
 30
0.0
  0
VERTEX
  8
0
 10
989.143760
 20
222.589505
 30
0.0
  0
VERTEX
  8
0
 10
989.143760
 20
222.479495
 30
0.0
  0
VERTEX
  8
0
 10
989.160250
 20
222.379485
 30
0.0
  0
VERTEX
  8
0
 10
989.22624
 20
222.289475
 30
0.0
  0
VERTEX
  8
0
 10
989.28398
 20
222.23947
 30
0.0
  0
VERTEX
  8
0
 10
989.38296
 20
222.21947
 30
0.0
  0
VERTEX
  8
0
 10
989.48194
 20
222.21947
 30
0.0
  0
VERTEX
  8
0
 10
989.564420
 20
222.23947
 30
0.0
  0
VERTEX
  8
0
 10
989.63866
 20
222.30948
 30
0.0
  0
VERTEX
  8
0
 10
989.704640
 20
222.379485
 30
0.0
  0
VERTEX
  8
0
 10
989.72114
 20
222.479495
 30
0.0
  0
VERTEX
  8
0
 10
989.704640
 20
222.589505
 30
0.0
  0
VERTEX
  8
0
 10
989.6799
 20
222.65951
 30
0.0
  0
VERTEX
  8
0
 10
989.63866
 20
222.709515
 30
0.0
  0
VERTEX
  8
0
 10
989.580920
 20
222.749520
 30
0.0
  0
VERTEX
  8
0
 10
989.498430
 20
222.779525
 30
0.0
  0
VERTEX
  8
0
 10
989.4242
 20
222.799525
 30
0.0
  0
VERTEX
  8
0
 10
989.366460
 20
222.799525
 30
0.0
  0
VERTEX
  8
0
 10
989.28398
 20
222.779525
 30
0.0
  0
SEQEND
  8
0
 62
     1
  0
POLYLINE
  8
0
  6
CONTINUOUS
 62
     1
 66
     1
  0
VERTEX
  8
0
 10
988.706600
 20
218.499110
 30
0.0
  0
VERTEX
  8
0
 10
988.624110
 20
218.449105
 30
0.0
  0
VERTEX
  8
0
 10
988.58287
 20
218.379100
 30
0.0
  0
VERTEX
  8
0
 10
988.566370
 20
218.30909
 30
0.0
  0
VERTEX
  8
0
 10
988.566370
 20
218.19908
 30
0.0
  0
VERTEX
  8
0
 10
988.58287
 20
218.09907
 30
0.0
  0
VERTEX
  8
0
 10
988.64886
 20
218.00906
 30
0.0
  0
VERTEX
  8
0
 10
988.706600
 20
217.95906
 30
0.0
  0
VERTEX
  8
0
 10
988.80558
 20
217.939055
 30
0.0
  0
VERTEX
  8
0
 10
988.90456
 20
217.939055
 30
0.0
  0
VERTEX
  8
0
 10
988.98704
 20
217.95906
 30
0.0
  0
VERTEX
  8
0
 10
989.06127
 20
218.029065
 30
0.0
  0
VERTEX
  8
0
 10
989.12726
 20
218.09907
 30
0.0
  0
VERTEX
  8
0
 10
989.143760
 20
218.19908
 30
0.0
  0
VERTEX
  8
0
 10
989.12726
 20
218.30909
 30
0.0
  0
VERTEX
  8
0
 10
989.10251
 20
218.379100
 30
0.0
  0
VERTEX
  8
0
 10
989.06127
 20
218.429105
 30
0.0
  0
VERTEX
  8
0
 10
989.00353
 20
218.469105
 30
0.0
  0
VERTEX
  8
0
 10
988.92105
 20
218.499110
 30
0.0
  0
VERTEX
  8
0
 10
988.846820
 20
218.519110
 30
0.0
  0
VERTEX
  8
0
 10
988.78908
 20
218.519110
 30
0.0
  0
VERTEX
  8
0
 10
988.706600
 20
218.499110
 30
0.0
  0
SEQEND
  8
0
 62
     1
  0
POLYLINE
  8
0
  6
CONTINUOUS
 62
     1
 66
     1
  0
VERTEX
  8
0
 10
990.59546
 20
231.25034
 30
0.0
  0
VERTEX
  8
0
 10
990.512980
 20
231.200335
 30
0.0
  0
VERTEX
  8
0
 10
990.47174
 20
231.13033
 30
0.0
  0
VERTEX
  8
0
 10
990.45524
 20
231.06032
 30
0.0
  0
VERTEX
  8
0
 10
990.45524
 20
230.95031
 30
0.0
  0
VERTEX
  8
0
 10
990.47174
 20
230.8503
 30
0.0
  0
VERTEX
  8
0
 10
990.537720
 20
230.760295
 30
0.0
  0
VERTEX
  8
0
 10
990.59546
 20
230.71029
 30
0.0
  0
VERTEX
  8
0
 10
990.69444
 20
230.690285
 30
0.0
  0
VERTEX
  8
0
 10
990.793420
 20
230.690285
 30
0.0
  0
VERTEX
  8
0
 10
990.8759
 20
230.71029
 30
0.0
  0
VERTEX
  8
0
 10
990.950140
 20
230.780295
 30
0.0
  0
VERTEX
  8
0
 10
991.016120
 20
230.8503
 30
0.0
  0
VERTEX
  8
0
 10
991.03262
 20
230.95031
 30
0.0
  0
VERTEX
  8
0
 10
991.016120
 20
231.06032
 30
0.0
  0
VERTEX
  8
0
 10
990.99138
 20
231.13033
 30
0.0
  0
VERTEX
  8
0
 10
990.950140
 20
231.180335
 30
0.0
  0
VERTEX
  8
0
 10
990.8924
 20
231.22034
 30
0.0
  0
VERTEX
  8
0
 10
990.80992
 20
231.25034
 30
0.0
  0
VERTEX
  8
0
 10
990.735680
 20
231.270345
 30
0.0
  0
VERTEX
  8
0
 10
990.677940
 20
231.270345
 30
0.0
  0
VERTEX
  8
0
 10
990.59546
 20
231.25034
 30
0.0
  0
SEQEND
  8
0
 62
     1
  0
POLYLINE
  8
0
  6
CONTINUOUS
 62
     1
 66
     1
  0
VERTEX
  8
0
 10
987.238390
 20
210.33832
 30
0.0
  0
VERTEX
  8
0
 10
987.15591
 20
210.288315
 30
0.0
  0
VERTEX
  8
0
 10
987.114670
 20
210.21831
 30
0.0
  0
VERTEX
  8
0
 10
987.098170
 20
210.148305
 30
0.0
  0
VERTEX
  8
0
 10
987.098170
 20
210.038295
 30
0.0
  0
VERTEX
  8
0
 10
987.114670
 20
209.938285
 30
0.0
  0
VERTEX
  8
0
 10
987.18066
 20
209.848275
 30
0.0
  0
VERTEX
  8
0
 10
987.238390
 20
209.79827
 30
0.0
  0
VERTEX
  8
0
 10
987.33737
 20
209.778270
 30
0.0
  0
VERTEX
  8
0
 10
987.43635
 20
209.778270
 30
0.0
  0
VERTEX
  8
0
 10
987.518840
 20
209.79827
 30
0.0
  0
VERTEX
  8
0
 10
987.593070
 20
209.868275
 30
0.0
  0
VERTEX
  8
0
 10
987.659060
 20
209.938285
 30
0.0
  0
VERTEX
  8
0
 10
987.675560
 20
210.038295
 30
0.0
  0
VERTEX
  8
0
 10
987.659060
 20
210.148305
 30
0.0
  0
VERTEX
  8
0
 10
987.63431
 20
210.21831
 30
0.0
  0
VERTEX
  8
0
 10
987.593070
 20
210.268315
 30
0.0
  0
VERTEX
  8
0
 10
987.53533
 20
210.30832
 30
0.0
  0
VERTEX
  8
0
 10
987.45285
 20
210.33832
 30
0.0
  0
VERTEX
  8
0
 10
987.37862
 20
210.358325
 30
0.0
  0
VERTEX
  8
0
 10
987.32088
 20
210.358325
 30
0.0
  0
VERTEX
  8
0
 10
987.238390
 20
210.33832
 30
0.0
  0
SEQEND
  8
0
 62
     1
  0
POLYLINE
  8
0
  6
CONTINUOUS
 62
     1
 66
     1
  0
VERTEX
  8
0
 10
993.87004
 20
209.47824
 30
0.0
  0
VERTEX
  8
0
 10
993.78756
 20
209.428235
 30
0.0
  0
VERTEX
  8
0
 10
993.74632
 20
209.358225
 30
0.0
  0
VERTEX
  8
0
 10
993.729820
 20
209.28822
 30
0.0
  0
VERTEX
  8
0
 10
993.729820
 20
209.17821
 30
0.0
  0
VERTEX
  8
0
 10
993.74632
 20
209.0782
 30
0.0
  0
VERTEX
  8
0
 10
993.8123
 20
208.98819
 30
0.0
  0
VERTEX
  8
0
 10
993.87004
 20
208.938185
 30
0.0
  0
VERTEX
  8
0
 10
993.96902
 20
208.918185
 30
0.0
  0
VERTEX
  8
0
 10
994.068
 20
208.918185
 30
0.0
  0
VERTEX
  8
0
 10
994.15049
 20
208.938185
 30
0.0
  0
VERTEX
  8
0
 10
994.22472
 20
209.008195
 30
0.0
  0
VERTEX
  8
0
 10
994.29071
 20
209.0782
 30
0.0
  0
VERTEX
  8
0
 10
994.3072
 20
209.17821
 30
0.0
  0
VERTEX
  8
0
 10
994.29071
 20
209.28822
 30
0.0
  0
VERTEX
  8
0
 10
994.26596
 20
209.358225
 30
0.0
  0
VERTEX
  8
0
 10
994.22472
 20
209.40823
 30
0.0
  0
VERTEX
  8
0
 10
994.16698
 20
209.448235
 30
0.0
  0
VERTEX
  8
0
 10
994.084500
 20
209.47824
 30
0.0
  0
VERTEX
  8
0
 10
994.01026
 20
209.49824
 30
0.0
  0
VERTEX
  8
0
 10
993.95253
 20
209.49824
 30
0.0
  0
VERTEX
  8
0
 10
993.87004
 20
209.47824
 30
0.0
  0
SEQEND
  8
0
 62
     1
  0
POLYLINE
  8
0
  6
CONTINUOUS
 62
     1
 66
     1
  0
VERTEX
  8
0
 10
997.71376
 20
229.900210
 30
0.0
  0
VERTEX
  8
0
 10
997.63128
 20
229.850205
 30
0.0
  0
VERTEX
  8
0
 10
997.59003
 20
229.7802
 30
0.0
  0
VERTEX
  8
0
 10
997.573540
 20
229.71019
 30
0.0
  0
VERTEX
  8
0
 10
997.573540
 20
229.60018
 30
0.0
  0
VERTEX
  8
0
 10
997.59003
 20
229.500170
 30
0.0
  0
VERTEX
  8
0
 10
997.65602
 20
229.410165
 30
0.0
  0
VERTEX
  8
0
 10
997.71376
 20
229.36016
 30
0.0
  0
VERTEX
  8
0
 10
997.812740
 20
229.340155
 30
0.0
  0
VERTEX
  8
0
 10
997.91172
 20
229.340155
 30
0.0
  0
VERTEX
  8
0
 10
997.994200
 20
229.36016
 30
0.0
  0
VERTEX
  8
0
 10
998.068440
 20
229.430165
 30
0.0
  0
VERTEX
  8
0
 10
998.13442
 20
229.500170
 30
0.0
  0
VERTEX
  8
0
 10
998.150920
 20
229.60018
 30
0.0
  0
VERTEX
  8
0
 10
998.13442
 20
229.71019
 30
0.0
  0
VERTEX
  8
0
 10
998.109680
 20
229.7802
 30
0.0
  0
VERTEX
  8
0
 10
998.068440
 20
229.830205
 30
0.0
  0
VERTEX
  8
0
 10
998.0107
 20
229.87021
 30
0.0
  0
VERTEX
  8
0
 10
997.92822
 20
229.900210
 30
0.0
  0
VERTEX
  8
0
 10
997.85398
 20
229.92021
 30
0.0
  0
VERTEX
  8
0
 10
997.79624
 20
229.92021
 30
0.0
  0
VERTEX
  8
0
 10
997.71376
 20
229.900210
 30
0.0
  0
SEQEND
  8
0
 62
     1
  0
POLYLINE
  8
0
  6
CONTINUOUS
 62
     1
 66
     1
  0
VERTEX
  8
0
 10
961.627360
 20
236.30083
 30
0.0
  0
VERTEX
  8
0
 10
961.61912
 20
236.21082
 30
0.0
  0
VERTEX
  8
0
 10
961.850070
 20
236.170815
 30
0.0
  0
VERTEX
  8
0
 10
961.858320
 20
236.270825
 30
0.0
  0
VERTEX
  8
0
 10
961.627360
 20
236.30083
 30
0.0
  0
SEQEND
  8
0
 62
     1
  0
POLYLINE
  8
0
  6
CONTINUOUS
 62
     1
 66
     1
  0
VERTEX
  8
0
 10
966.64234
 20
235.41074
 30
0.0
  0
VERTEX
  8
0
 10
966.634090
 20
235.320735
 30
0.0
  0
VERTEX
  8
0
 10
966.86505
 20
235.280730
 30
0.0
  0
VERTEX
  8
0
 10
966.87329
 20
235.38074
 30
0.0
  0
VERTEX
  8
0
 10
966.64234
 20
235.41074
 30
0.0
  0
SEQEND
  8
0
 62
     1
  0
POLYLINE
  8
0
  6
CONTINUOUS
 62
     1
 66
     1
  0
VERTEX
  8
0
 10
971.54184
 20
234.520655
 30
0.0
  0
VERTEX
  8
0
 10
971.533600
 20
234.43065
 30
0.0
  0
VERTEX
  8
0
 10
971.76455
 20
234.390645
 30
0.0
  0
VERTEX
  8
0
 10
971.7728
 20
234.490655
 30
0.0
  0
VERTEX
  8
0
 10
971.54184
 20
234.520655
 30
0.0
  0
SEQEND
  8
0
 62
     1
  0
POLYLINE
  8
0
  6
CONTINUOUS
 62
     1
 66
     1
  0
VERTEX
  8
0
 10
976.441340
 20
233.580565
 30
0.0
  0
VERTEX
  8
0
 10
976.4331
 20
233.490555
 30
0.0
  0
VERTEX
  8
0
 10
976.66405
 20
233.450555
 30
0.0
  0
VERTEX
  8
0
 10
976.6723
 20
233.550565
 30
0.0
  0
VERTEX
  8
0
 10
976.441340
 20
233.580565
 30
0.0
  0
SEQEND
  8
0
 62
     1
  0
POLYLINE
  8
0
  6
CONTINUOUS
 62
     1
 66
     1
  0
VERTEX
  8
0
 10
981.382090
 20
232.720485
 30
0.0
  0
VERTEX
  8
0
 10
981.37384
 20
232.630475
 30
0.0
  0
VERTEX
  8
0
 10
981.604790
 20
232.590470
 30
0.0
  0
VERTEX
  8
0
 10
981.61304
 20
232.690480
 30
0.0
  0
VERTEX
  8
0
 10
981.382090
 20
232.720485
 30
0.0
  0
SEQEND
  8
0
 62
     1
  0
POLYLINE
  8
0
  6
CONTINUOUS
 62
     1
 66
     1
  0
VERTEX
  8
0
 10
986.28984
 20
231.810395
 30
0.0
  0
VERTEX
  8
0
 10
986.28159
 20
231.720385
 30
0.0
  0
VERTEX
  8
0
 10
986.512540
 20
231.68038
 30
0.0
  0
VERTEX
  8
0
 10
986.520790
 20
231.780390
 30
0.0
  0
VERTEX
  8
0
 10
986.28984
 20
231.810395
 30
0.0
  0
SEQEND
  8
0
 62
     1
  0
POLYLINE
  8
0
  6
CONTINUOUS
 62
     1
 66
     1
  0
VERTEX
  8
0
 10
990.092310
 20
231.290345
 30
0.0
  0
VERTEX
  8
0
 10
990.084060
 20
231.280345
 30
0.0
  0
VERTEX
  8
0
 10
990.059320
 20
231.25034
 30
0.0
  0
VERTEX
  8
0
 10
990.05107
 20
231.230340
 30
0.0
  0
VERTEX
  8
0
 10
990.05107
 20
231.210335
 30
0.0
  0
VERTEX
  8
0
 10
990.059320
 20
231.180335
 30
0.0
  0
VERTEX
  8
0
 10
990.06757
 20
231.15033
 30
0.0
  0
VERTEX
  8
0
 10
990.092310
 20
231.14033
 30
0.0
  0
VERTEX
  8
0
 10
990.125310
 20
231.13033
 30
0.0
  0
VERTEX
  8
0
 10
990.15005
 20
231.13033
 30
0.0
  0
VERTEX
  8
0
 10
990.1748
 20
231.14033
 30
0.0
  0
VERTEX
  8
0
 10
990.191290
 20
231.16033
 30
0.0
  0
VERTEX
  8
0
 10
990.21604
 20
231.180335
 30
0.0
  0
VERTEX
  8
0
 10
990.21604
 20
231.210335
 30
0.0
  0
VERTEX
  8
0
 10
990.21604
 20
231.230340
 30
0.0
  0
VERTEX
  8
0
 10
990.20779
 20
231.25034
 30
0.0
  0
VERTEX
  8
0
 10
990.191290
 20
231.270345
 30
0.0
  0
VERTEX
  8
0
 10
990.1748
 20
231.280345
 30
0.0
  0
VERTEX
  8
0
 10
990.15005
 20
231.290345
 30
0.0
  0
VERTEX
  8
0
 10
990.13355
 20
231.300345
 30
0.0
  0
VERTEX
  8
0
 10
990.10881
 20
231.290345
 30
0.0
  0
VERTEX
  8
0
 10
990.092310
 20
231.290345
 30
0.0
  0
SEQEND
  8
0
 62
     1
  0
POLYLINE
  8
0
  6
CONTINUOUS
 62
     1
 66
     1
  0
VERTEX
  8
0
 10
995.65993
 20
230.180235
 30
0.0
  0
VERTEX
  8
0
 10
995.65168
 20
230.170235
 30
0.0
  0
VERTEX
  8
0
 10
995.626940
 20
230.140235
 30
0.0
  0
VERTEX
  8
0
 10
995.61869
 20
230.120230
 30
0.0
  0
VERTEX
  8
0
 10
995.61869
 20
230.100230
 30
0.0
  0
VERTEX
  8
0
 10
995.626940
 20
230.070225
 30
0.0
  0
VERTEX
  8
0
 10
995.63518
 20
230.040225
 30
0.0
  0
VERTEX
  8
0
 10
995.65993
 20
230.030225
 30
0.0
  0
VERTEX
  8
0
 10
995.69292
 20
230.020220
 30
0.0
  0
VERTEX
  8
0
 10
995.71767
 20
230.020220
 30
0.0
  0
VERTEX
  8
0
 10
995.742410
 20
230.030225
 30
0.0
  0
VERTEX
  8
0
 10
995.75891
 20
230.050225
 30
0.0
  0
VERTEX
  8
0
 10
995.78365
 20
230.070225
 30
0.0
  0
VERTEX
  8
0
 10
995.78365
 20
230.100230
 30
0.0
  0
VERTEX
  8
0
 10
995.78365
 20
230.120230
 30
0.0
  0
VERTEX
  8
0
 10
995.775400
 20
230.140235
 30
0.0
  0
VERTEX
  8
0
 10
995.75891
 20
230.160235
 30
0.0
  0
VERTEX
  8
0
 10
995.742410
 20
230.170235
 30
0.0
  0
VERTEX
  8
0
 10
995.71767
 20
230.180235
 30
0.0
  0
VERTEX
  8
0
 10
995.701170
 20
230.19024
 30
0.0
  0
VERTEX
  8
0
 10
995.67642
 20
230.180235
 30
0.0
  0
VERTEX
  8
0
 10
995.65993
 20
230.180235
 30
0.0
  0
SEQEND
  8
0
 62
     1
  0
POLYLINE
  8
0
  6
CONTINUOUS
 62
     1
 66
     1
  0
VERTEX
  8
0
 10
996.36928
 20
234.040610
 30
0.0
  0
VERTEX
  8
0
 10
996.361040
 20
234.030610
 30
0.0
  0
VERTEX
  8
0
 10
996.33629
 20
234.000605
 30
0.0
  0
VERTEX
  8
0
 10
996.32804
 20
233.980605
 30
0.0
  0
VERTEX
  8
0
 10
996.32804
 20
233.9606
 30
0.0
  0
VERTEX
  8
0
 10
996.33629
 20
233.9306
 30
0.0
  0
VERTEX
  8
0
 10
996.34454
 20
233.900595
 30
0.0
  0
VERTEX
  8
0
 10
996.36928
 20
233.890595
 30
0.0
  0
VERTEX
  8
0
 10
996.40228
 20
233.880595
 30
0.0
  0
VERTEX
  8
0
 10
996.42702
 20
233.880595
 30
0.0
  0
VERTEX
  8
0
 10
996.45177
 20
233.890595
 30
0.0
  0
VERTEX
  8
0
 10
996.46826
 20
233.9106
 30
0.0
  0
VERTEX
  8
0
 10
996.49301
 20
233.9306
 30
0.0
  0
VERTEX
  8
0
 10
996.49301
 20
233.9606
 30
0.0
  0
VERTEX
  8
0
 10
996.49301
 20
233.980605
 30
0.0
  0
VERTEX
  8
0
 10
996.484760
 20
234.000605
 30
0.0
  0
VERTEX
  8
0
 10
996.46826
 20
234.020610
 30
0.0
  0
VERTEX
  8
0
 10
996.45177
 20
234.030610
 30
0.0
  0
VERTEX
  8
0
 10
996.42702
 20
234.040610
 30
0.0
  0
VERTEX
  8
0
 10
996.410530
 20
234.05061
 30
0.0
  0
VERTEX
  8
0
 10
996.385780
 20
234.040610
 30
0.0
  0
VERTEX
  8
0
 10
996.36928
 20
234.040610
 30
0.0
  0
SEQEND
  8
0
 62
     1
  0
POLYLINE
  8
0
  6
CONTINUOUS
 62
     1
 66
     1
  0
VERTEX
  8
0
 10
984.582440
 20
236.140815
 30
0.0
  0
VERTEX
  8
0
 10
984.57419
 20
236.13081
 30
0.0
  0
VERTEX
  8
0
 10
984.549440
 20
236.10081
 30
0.0
  0
VERTEX
  8
0
 10
984.54119
 20
236.080805
 30
0.0
  0
VERTEX
  8
0
 10
984.54119
 20
236.060805
 30
0.0
  0
VERTEX
  8
0
 10
984.549440
 20
236.0308
 30
0.0
  0
VERTEX
  8
0
 10
984.557690
 20
236.0008
 30
0.0
  0
VERTEX
  8
0
 10
984.582440
 20
235.9908
 30
0.0
  0
VERTEX
  8
0
 10
984.61543
 20
235.980795
 30
0.0
  0
VERTEX
  8
0
 10
984.640170
 20
235.980795
 30
0.0
  0
VERTEX
  8
0
 10
984.66492
 20
235.9908
 30
0.0
  0
VERTEX
  8
0
 10
984.681420
 20
236.0108
 30
0.0
  0
VERTEX
  8
0
 10
984.70616
 20
236.0308
 30
0.0
  0
VERTEX
  8
0
 10
984.70616
 20
236.060805
 30
0.0
  0
VERTEX
  8
0
 10
984.70616
 20
236.080805
 30
0.0
  0
VERTEX
  8
0
 10
984.69791
 20
236.10081
 30
0.0
  0
VERTEX
  8
0
 10
984.681420
 20
236.12081
 30
0.0
  0
VERTEX
  8
0
 10
984.66492
 20
236.13081
 30
0.0
  0
VERTEX
  8
0
 10
984.640170
 20
236.140815
 30
0.0
  0
VERTEX
  8
0
 10
984.62368
 20
236.150815
 30
0.0
  0
VERTEX
  8
0
 10
984.598930
 20
236.140815
 30
0.0
  0
VERTEX
  8
0
 10
984.582440
 20
236.140815
 30
0.0
  0
SEQEND
  8
0
 62
     1
  0
POLYLINE
  8
0
  6
CONTINUOUS
 62
     1
 66
     1
  0
VERTEX
  8
0
 10
980.14484
 20
239.151105
 30
0.0
  0
VERTEX
  8
0
 10
980.136590
 20
239.141105
 30
0.0
  0
VERTEX
  8
0
 10
980.11185
 20
239.1111
 30
0.0
  0
VERTEX
  8
0
 10
980.1036
 20
239.0911
 30
0.0
  0
VERTEX
  8
0
 10
980.1036
 20
239.071095
 30
0.0
  0
VERTEX
  8
0
 10
980.11185
 20
239.041095
 30
0.0
  0
VERTEX
  8
0
 10
980.1201
 20
239.01109
 30
0.0
  0
VERTEX
  8
0
 10
980.14484
 20
239.001090
 30
0.0
  0
VERTEX
  8
0
 10
980.177830
 20
238.991090
 30
0.0
  0
VERTEX
  8
0
 10
980.20258
 20
238.991090
 30
0.0
  0
VERTEX
  8
0
 10
980.22732
 20
239.001090
 30
0.0
  0
VERTEX
  8
0
 10
980.243820
 20
239.02109
 30
0.0
  0
VERTEX
  8
0
 10
980.268560
 20
239.041095
 30
0.0
  0
VERTEX
  8
0
 10
980.268560
 20
239.071095
 30
0.0
  0
VERTEX
  8
0
 10
980.268560
 20
239.0911
 30
0.0
  0
VERTEX
  8
0
 10
980.26032
 20
239.1111
 30
0.0
  0
VERTEX
  8
0
 10
980.243820
 20
239.1311
 30
0.0
  0
VERTEX
  8
0
 10
980.22732
 20
239.141105
 30
0.0
  0
VERTEX
  8
0
 10
980.20258
 20
239.151105
 30
0.0
  0
VERTEX
  8
0
 10
980.186080
 20
239.161105
 30
0.0
  0
VERTEX
  8
0
 10
980.16134
 20
239.151105
 30
0.0
  0
VERTEX
  8
0
 10
980.14484
 20
239.151105
 30
0.0
  0
SEQEND
  8
0
 62
     1
  0
POLYLINE
  8
0
  6
CONTINUOUS
 62
     1
 66
     1
  0
VERTEX
  8
0
 10
983.708110
 20
238.541045
 30
0.0
  0
VERTEX
  8
0
 10
983.69987
 20
238.531045
 30
0.0
  0
VERTEX
  8
0
 10
983.67512
 20
238.50104
 30
0.0
  0
VERTEX
  8
0
 10
983.666870
 20
238.481040
 30
0.0
  0
VERTEX
  8
0
 10
983.666870
 20
238.461035
 30
0.0
  0
VERTEX
  8
0
 10
983.67512
 20
238.431035
 30
0.0
  0
VERTEX
  8
0
 10
983.68337
 20
238.40103
 30
0.0
  0
VERTEX
  8
0
 10
983.708110
 20
238.39103
 30
0.0
  0
VERTEX
  8
0
 10
983.741110
 20
238.381030
 30
0.0
  0
VERTEX
  8
0
 10
983.765850
 20
238.381030
 30
0.0
  0
VERTEX
  8
0
 10
983.7906
 20
238.39103
 30
0.0
  0
VERTEX
  8
0
 10
983.80709
 20
238.411030
 30
0.0
  0
VERTEX
  8
0
 10
983.83184
 20
238.431035
 30
0.0
  0
VERTEX
  8
0
 10
983.83184
 20
238.461035
 30
0.0
  0
VERTEX
  8
0
 10
983.83184
 20
238.481040
 30
0.0
  0
VERTEX
  8
0
 10
983.82359
 20
238.50104
 30
0.0
  0
VERTEX
  8
0
 10
983.80709
 20
238.521045
 30
0.0
  0
VERTEX
  8
0
 10
983.7906
 20
238.531045
 30
0.0
  0
VERTEX
  8
0
 10
983.765850
 20
238.541045
 30
0.0
  0
VERTEX
  8
0
 10
983.74936
 20
238.551045
 30
0.0
  0
VERTEX
  8
0
 10
983.724610
 20
238.541045
 30
0.0
  0
VERTEX
  8
0
 10
983.708110
 20
238.541045
 30
0.0
  0
SEQEND
  8
0
 62
     1
  0
POLYLINE
  8
0
  6
CONTINUOUS
 62
     1
 66
     1
  0
VERTEX
  8
0
 10
975.22059
 20
240.04119
 30
0.0
  0
VERTEX
  8
0
 10
975.21235
 20
240.031190
 30
0.0
  0
VERTEX
  8
0
 10
975.1876
 20
240.001185
 30
0.0
  0
VERTEX
  8
0
 10
975.17935
 20
239.981185
 30
0.0
  0
VERTEX
  8
0
 10
975.17935
 20
239.961180
 30
0.0
  0
VERTEX
  8
0
 10
975.1876
 20
239.93118
 30
0.0
  0
VERTEX
  8
0
 10
975.195850
 20
239.901175
 30
0.0
  0
VERTEX
  8
0
 10
975.22059
 20
239.891175
 30
0.0
  0
VERTEX
  8
0
 10
975.25359
 20
239.881175
 30
0.0
  0
VERTEX
  8
0
 10
975.278330
 20
239.881175
 30
0.0
  0
VERTEX
  8
0
 10
975.30308
 20
239.891175
 30
0.0
  0
VERTEX
  8
0
 10
975.31957
 20
239.911175
 30
0.0
  0
VERTEX
  8
0
 10
975.344320
 20
239.93118
 30
0.0
  0
VERTEX
  8
0
 10
975.344320
 20
239.961180
 30
0.0
  0
VERTEX
  8
0
 10
975.344320
 20
239.981185
 30
0.0
  0
VERTEX
  8
0
 10
975.33607
 20
240.001185
 30
0.0
  0
VERTEX
  8
0
 10
975.31957
 20
240.02119
 30
0.0
  0
VERTEX
  8
0
 10
975.30308
 20
240.031190
 30
0.0
  0
VERTEX
  8
0
 10
975.278330
 20
240.04119
 30
0.0
  0
VERTEX
  8
0
 10
975.26184
 20
240.05119
 30
0.0
  0
VERTEX
  8
0
 10
975.23709
 20
240.04119
 30
0.0
  0
VERTEX
  8
0
 10
975.22059
 20
240.04119
 30
0.0
  0
SEQEND
  8
0
 62
     1
  0
POLYLINE
  8
0
  6
CONTINUOUS
 62
     1
 66
     1
  0
VERTEX
  8
0
 10
969.98291
 20
239.001090
 30
0.0
  0
VERTEX
  8
0
 10
969.958170
 20
238.991090
 30
0.0
  0
VERTEX
  8
0
 10
969.941670
 20
238.961085
 30
0.0
  0
VERTEX
  8
0
 10
969.93342
 20
238.941085
 30
0.0
  0
VERTEX
  8
0
 10
969.93342
 20
238.89108
 30
0.0
  0
VERTEX
  8
0
 10
969.941670
 20
238.861075
 30
0.0
  0
VERTEX
  8
0
 10
969.96641
 20
238.831075
 30
0.0
  0
VERTEX
  8
0
 10
969.98291
 20
238.81107
 30
0.0
  0
VERTEX
  8
0
 10
970.024150
 20
238.80107
 30
0.0
  0
VERTEX
  8
0
 10
970.05715
 20
238.80107
 30
0.0
  0
VERTEX
  8
0
 10
970.090140
 20
238.81107
 30
0.0
  0
VERTEX
  8
0
 10
970.114880
 20
238.841075
 30
0.0
  0
VERTEX
  8
0
 10
970.13963
 20
238.861075
 30
0.0
  0
VERTEX
  8
0
 10
970.14788
 20
238.89108
 30
0.0
  0
VERTEX
  8
0
 10
970.13963
 20
238.941085
 30
0.0
  0
VERTEX
  8
0
 10
970.13138
 20
238.961085
 30
0.0
  0
VERTEX
  8
0
 10
970.114880
 20
238.981085
 30
0.0
  0
VERTEX
  8
0
 10
970.098390
 20
239.001090
 30
0.0
  0
VERTEX
  8
0
 10
970.065390
 20
239.001090
 30
0.0
  0
VERTEX
  8
0
 10
970.04065
 20
239.01109
 30
0.0
  0
VERTEX
  8
0
 10
970.0159
 20
239.01109
 30
0.0
  0
VERTEX
  8
0
 10
969.98291
 20
239.001090
 30
0.0
  0
SEQEND
  8
0
 62
     1
  0
POLYLINE
  8
0
  6
CONTINUOUS
 62
     1
 66
     1
  0
VERTEX
  8
0
 10
971.121180
 20
245.3117
 30
0.0
  0
VERTEX
  8
0
 10
971.096430
 20
245.301695
 30
0.0
  0
VERTEX
  8
0
 10
971.07994
 20
245.271695
 30
0.0
  0
VERTEX
  8
0
 10
971.071690
 20
245.25169
 30
0.0
  0
VERTEX
  8
0
 10
971.071690
 20
245.20169
 30
0.0
  0
VERTEX
  8
0
 10
971.07994
 20
245.171685
 30
0.0
  0
VERTEX
  8
0
 10
971.104680
 20
245.14168
 30
0.0
  0
VERTEX
  8
0
 10
971.121180
 20
245.121680
 30
0.0
  0
VERTEX
  8
0
 10
971.16242
 20
245.111680
 30
0.0
  0
VERTEX
  8
0
 10
971.195410
 20
245.111680
 30
0.0
  0
VERTEX
  8
0
 10
971.228410
 20
245.121680
 30
0.0
  0
VERTEX
  8
0
 10
971.25315
 20
245.151685
 30
0.0
  0
VERTEX
  8
0
 10
971.277900
 20
245.171685
 30
0.0
  0
VERTEX
  8
0
 10
971.28615
 20
245.20169
 30
0.0
  0
VERTEX
  8
0
 10
971.277900
 20
245.25169
 30
0.0
  0
VERTEX
  8
0
 10
971.26965
 20
245.271695
 30
0.0
  0
VERTEX
  8
0
 10
971.25315
 20
245.291695
 30
0.0
  0
VERTEX
  8
0
 10
971.236660
 20
245.3117
 30
0.0
  0
VERTEX
  8
0
 10
971.20366
 20
245.3117
 30
0.0
  0
VERTEX
  8
0
 10
971.17892
 20
245.3217
 30
0.0
  0
VERTEX
  8
0
 10
971.154170
 20
245.3217
 30
0.0
  0
VERTEX
  8
0
 10
971.121180
 20
245.3117
 30
0.0
  0
SEQEND
  8
0
 62
     1
  0
POLYLINE
  8
0
  6
CONTINUOUS
 62
     1
 66
     1
  0
VERTEX
  8
0
 10
967.013520
 20
241.591340
 30
0.0
  0
VERTEX
  8
0
 10
967.00527
 20
241.581340
 30
0.0
  0
VERTEX
  8
0
 10
966.98052
 20
241.551335
 30
0.0
  0
VERTEX
  8
0
 10
966.97227
 20
241.531335
 30
0.0
  0
VERTEX
  8
0
 10
966.97227
 20
241.511330
 30
0.0
  0
VERTEX
  8
0
 10
966.98052
 20
241.481330
 30
0.0
  0
VERTEX
  8
0
 10
966.98877
 20
241.451325
 30
0.0
  0
VERTEX
  8
0
 10
967.013520
 20
241.441325
 30
0.0
  0
VERTEX
  8
0
 10
967.04651
 20
241.431325
 30
0.0
  0
VERTEX
  8
0
 10
967.07125
 20
241.431325
 30
0.0
  0
VERTEX
  8
0
 10
967.096000
 20
241.441325
 30
0.0
  0
VERTEX
  8
0
 10
967.1125
 20
241.461325
 30
0.0
  0
VERTEX
  8
0
 10
967.13724
 20
241.481330
 30
0.0
  0
VERTEX
  8
0
 10
967.13724
 20
241.511330
 30
0.0
  0
VERTEX
  8
0
 10
967.13724
 20
241.531335
 30
0.0
  0
VERTEX
  8
0
 10
967.12899
 20
241.551335
 30
0.0
  0
VERTEX
  8
0
 10
967.1125
 20
241.571335
 30
0.0
  0
VERTEX
  8
0
 10
967.096000
 20
241.581340
 30
0.0
  0
VERTEX
  8
0
 10
967.07125
 20
241.591340
 30
0.0
  0
VERTEX
  8
0
 10
967.05476
 20
241.601340
 30
0.0
  0
VERTEX
  8
0
 10
967.03001
 20
241.591340
 30
0.0
  0
VERTEX
  8
0
 10
967.013520
 20
241.591340
 30
0.0
  0
SEQEND
  8
0
 62
     1
  0
POLYLINE
  8
0
  6
CONTINUOUS
 62
     1
 66
     1
  0
VERTEX
  8
0
 10
967.978570
 20
240.941275
 30
0.0
  0
VERTEX
  8
0
 10
967.58265
 20
238.69106
 30
0.0
  0
VERTEX
  8
0
 10
967.739370
 20
238.651055
 30
0.0
  0
VERTEX
  8
0
 10
968.11054
 20
240.88127
 30
0.0
  0
VERTEX
  8
0
 10
967.978570
 20
240.941275
 30
0.0
  0
SEQEND
  8
0
 62
     1
  0
POLYLINE
  8
0
  6
CONTINUOUS
 62
     1
 66
     1
  0
VERTEX
  8
0
 10
934.61412
 20
242.2414
 30
0.0
  0
VERTEX
  8
0
 10
934.597620
 20
242.2314
 30
0.0
  0
VERTEX
  8
0
 10
934.58113
 20
242.2114
 30
0.0
  0
VERTEX
  8
0
 10
934.57288
 20
242.2014
 30
0.0
  0
VERTEX
  8
0
 10
934.57288
 20
242.151395
 30
0.0
  0
VERTEX
  8
0
 10
934.58113
 20
242.131390
 30
0.0
  0
VERTEX
  8
0
 10
934.60587
 20
242.10139
 30
0.0
  0
VERTEX
  8
0
 10
934.61412
 20
242.091385
 30
0.0
  0
VERTEX
  8
0
 10
934.655360
 20
242.081385
 30
0.0
  0
VERTEX
  8
0
 10
934.67186
 20
242.081385
 30
0.0
  0
VERTEX
  8
0
 10
934.704850
 20
242.091385
 30
0.0
  0
VERTEX
  8
0
 10
934.72135
 20
242.11139
 30
0.0
  0
VERTEX
  8
0
 10
934.74609
 20
242.131390
 30
0.0
  0
VERTEX
  8
0
 10
934.754340
 20
242.151395
 30
0.0
  0
VERTEX
  8
0
 10
934.74609
 20
242.2014
 30
0.0
  0
VERTEX
  8
0
 10
934.73784
 20
242.2114
 30
0.0
  0
VERTEX
  8
0
 10
934.72135
 20
242.2314
 30
0.0
  0
VERTEX
  8
0
 10
934.7131
 20
242.2414
 30
0.0
  0
VERTEX
  8
0
 10
934.68011
 20
242.2414
 30
0.0
  0
VERTEX
  8
0
 10
934.663610
 20
242.251405
 30
0.0
  0
VERTEX
  8
0
 10
934.647110
 20
242.251405
 30
0.0
  0
VERTEX
  8
0
 10
934.61412
 20
242.2414
 30
0.0
  0
SEQEND
  8
0
 62
     1
  0
POLYLINE
  8
0
  6
CONTINUOUS
 62
     1
 66
     1
  0
VERTEX
  8
0
 10
939.802310
 20
241.281310
 30
0.0
  0
VERTEX
  8
0
 10
939.78582
 20
241.27131
 30
0.0
  0
VERTEX
  8
0
 10
939.769320
 20
241.251305
 30
0.0
  0
VERTEX
  8
0
 10
939.761070
 20
241.241305
 30
0.0
  0
VERTEX
  8
0
 10
939.761070
 20
241.1913
 30
0.0
  0
VERTEX
  8
0
 10
939.769320
 20
241.1713
 30
0.0
  0
VERTEX
  8
0
 10
939.794060
 20
241.141295
 30
0.0
  0
VERTEX
  8
0
 10
939.802310
 20
241.131295
 30
0.0
  0
VERTEX
  8
0
 10
939.84355
 20
241.121295
 30
0.0
  0
VERTEX
  8
0
 10
939.86005
 20
241.121295
 30
0.0
  0
VERTEX
  8
0
 10
939.89304
 20
241.131295
 30
0.0
  0
VERTEX
  8
0
 10
939.90954
 20
241.151295
 30
0.0
  0
VERTEX
  8
0
 10
939.934280
 20
241.1713
 30
0.0
  0
VERTEX
  8
0
 10
939.94253
 20
241.1913
 30
0.0
  0
VERTEX
  8
0
 10
939.934280
 20
241.241305
 30
0.0
  0
VERTEX
  8
0
 10
939.926040
 20
241.251305
 30
0.0
  0
VERTEX
  8
0
 10
939.90954
 20
241.27131
 30
0.0
  0
VERTEX
  8
0
 10
939.90129
 20
241.281310
 30
0.0
  0
VERTEX
  8
0
 10
939.868300
 20
241.281310
 30
0.0
  0
VERTEX
  8
0
 10
939.8518
 20
241.29131
 30
0.0
  0
VERTEX
  8
0
 10
939.835310
 20
241.29131
 30
0.0
  0
VERTEX
  8
0
 10
939.802310
 20
241.281310
 30
0.0
  0
SEQEND
  8
0
 62
     1
  0
POLYLINE
  8
0
  6
CONTINUOUS
 62
     1
 66
     1
  0
VERTEX
  8
0
 10
935.54618
 20
247.251885
 30
0.0
  0
VERTEX
  8
0
 10
935.529680
 20
247.241885
 30
0.0
  0
VERTEX
  8
0
 10
935.521430
 20
247.221885
 30
0.0
  0
VERTEX
  8
0
 10
935.51319
 20
247.21188
 30
0.0
  0
VERTEX
  8
0
 10
935.51319
 20
247.171880
 30
0.0
  0
VERTEX
  8
0
 10
935.521430
 20
247.151875
 30
0.0
  0
VERTEX
  8
0
 10
935.53793
 20
247.121875
 30
0.0
  0
VERTEX
  8
0
 10
935.54618
 20
247.11187
 30
0.0
  0
VERTEX
  8
0
 10
935.58742
 20
247.10187
 30
0.0
  0
VERTEX
  8
0
 10
935.595670
 20
247.10187
 30
0.0
  0
VERTEX
  8
0
 10
935.62041
 20
247.11187
 30
0.0
  0
VERTEX
  8
0
 10
935.64516
 20
247.131875
 30
0.0
  0
VERTEX
  8
0
 10
935.66166
 20
247.151875
 30
0.0
  0
VERTEX
  8
0
 10
935.6699
 20
247.171880
 30
0.0
  0
VERTEX
  8
0
 10
935.66166
 20
247.21188
 30
0.0
  0
VERTEX
  8
0
 10
935.653410
 20
247.221885
 30
0.0
  0
VERTEX
  8
0
 10
935.64516
 20
247.241885
 30
0.0
  0
VERTEX
  8
0
 10
935.63691
 20
247.251885
 30
0.0
  0
VERTEX
  8
0
 10
935.60392
 20
247.251885
 30
0.0
  0
VERTEX
  8
0
 10
935.58742
 20
247.261885
 30
0.0
  0
VERTEX
  8
0
 10
935.579170
 20
247.261885
 30
0.0
  0
VERTEX
  8
0
 10
935.54618
 20
247.251885
 30
0.0
  0
SEQEND
  8
0
 62
     1
  0
POLYLINE
  8
0
  6
CONTINUOUS
 62
     1
 66
     1
  0
VERTEX
  8
0
 10
933.17066
 20
247.69193
 30
0.0
  0
VERTEX
  8
0
 10
933.154170
 20
247.681925
 30
0.0
  0
VERTEX
  8
0
 10
933.145920
 20
247.661925
 30
0.0
  0
VERTEX
  8
0
 10
933.13767
 20
247.651925
 30
0.0
  0
VERTEX
  8
0
 10
933.13767
 20
247.61192
 30
0.0
  0
VERTEX
  8
0
 10
933.145920
 20
247.591920
 30
0.0
  0
VERTEX
  8
0
 10
933.162410
 20
247.561915
 30
0.0
  0
VERTEX
  8
0
 10
933.17066
 20
247.551915
 30
0.0
  0
VERTEX
  8
0
 10
933.2119
 20
247.541915
 30
0.0
  0
VERTEX
  8
0
 10
933.22015
 20
247.541915
 30
0.0
  0
VERTEX
  8
0
 10
933.2449
 20
247.551915
 30
0.0
  0
VERTEX
  8
0
 10
933.269640
 20
247.571915
 30
0.0
  0
VERTEX
  8
0
 10
933.28614
 20
247.591920
 30
0.0
  0
VERTEX
  8
0
 10
933.29439
 20
247.61192
 30
0.0
  0
VERTEX
  8
0
 10
933.28614
 20
247.651925
 30
0.0
  0
VERTEX
  8
0
 10
933.277890
 20
247.661925
 30
0.0
  0
VERTEX
  8
0
 10
933.269640
 20
247.681925
 30
0.0
  0
VERTEX
  8
0
 10
933.261390
 20
247.69193
 30
0.0
  0
VERTEX
  8
0
 10
933.2284
 20
247.69193
 30
0.0
  0
VERTEX
  8
0
 10
933.2119
 20
247.70193
 30
0.0
  0
VERTEX
  8
0
 10
933.20366
 20
247.70193
 30
0.0
  0
VERTEX
  8
0
 10
933.17066
 20
247.69193
 30
0.0
  0
SEQEND
  8
0
 62
     1
  0
POLYLINE
  8
0
  6
CONTINUOUS
 62
     1
 66
     1
  0
VERTEX
  8
0
 10
925.49973
 20
249.102065
 30
0.0
  0
VERTEX
  8
0
 10
925.48323
 20
249.092065
 30
0.0
  0
VERTEX
  8
0
 10
925.47498
 20
249.07206
 30
0.0
  0
VERTEX
  8
0
 10
925.46673
 20
249.06206
 30
0.0
  0
VERTEX
  8
0
 10
925.46673
 20
249.022055
 30
0.0
  0
VERTEX
  8
0
 10
925.47498
 20
249.002055
 30
0.0
  0
VERTEX
  8
0
 10
925.49148
 20
248.97205
 30
0.0
  0
VERTEX
  8
0
 10
925.49973
 20
248.96205
 30
0.0
  0
VERTEX
  8
0
 10
925.540970
 20
248.95205
 30
0.0
  0
VERTEX
  8
0
 10
925.549220
 20
248.95205
 30
0.0
  0
VERTEX
  8
0
 10
925.573960
 20
248.96205
 30
0.0
  0
VERTEX
  8
0
 10
925.59871
 20
248.982055
 30
0.0
  0
VERTEX
  8
0
 10
925.6152
 20
249.002055
 30
0.0
  0
VERTEX
  8
0
 10
925.62345
 20
249.022055
 30
0.0
  0
VERTEX
  8
0
 10
925.6152
 20
249.06206
 30
0.0
  0
VERTEX
  8
0
 10
925.60695
 20
249.07206
 30
0.0
  0
VERTEX
  8
0
 10
925.59871
 20
249.092065
 30
0.0
  0
VERTEX
  8
0
 10
925.59046
 20
249.102065
 30
0.0
  0
VERTEX
  8
0
 10
925.55746
 20
249.102065
 30
0.0
  0
VERTEX
  8
0
 10
925.540970
 20
249.112065
 30
0.0
  0
VERTEX
  8
0
 10
925.53272
 20
249.112065
 30
0.0
  0
VERTEX
  8
0
 10
925.49973
 20
249.102065
 30
0.0
  0
SEQEND
  8
0
 62
     1
  0
POLYLINE
  8
0
  6
CONTINUOUS
 62
     1
 66
     1
  0
VERTEX
  8
0
 10
924.592410
 20
244.051575
 30
0.0
  0
VERTEX
  8
0
 10
924.57591
 20
244.041575
 30
0.0
  0
VERTEX
  8
0
 10
924.56767
 20
244.021575
 30
0.0
  0
VERTEX
  8
0
 10
924.55942
 20
244.011575
 30
0.0
  0
VERTEX
  8
0
 10
924.55942
 20
243.97157
 30
0.0
  0
VERTEX
  8
0
 10
924.56767
 20
243.951565
 30
0.0
  0
VERTEX
  8
0
 10
924.58416
 20
243.921565
 30
0.0
  0
VERTEX
  8
0
 10
924.592410
 20
243.911565
 30
0.0
  0
VERTEX
  8
0
 10
924.63365
 20
243.901560
 30
0.0
  0
VERTEX
  8
0
 10
924.6419
 20
243.901560
 30
0.0
  0
VERTEX
  8
0
 10
924.66665
 20
243.911565
 30
0.0
  0
VERTEX
  8
0
 10
924.691390
 20
243.931565
 30
0.0
  0
VERTEX
  8
0
 10
924.70789
 20
243.951565
 30
0.0
  0
VERTEX
  8
0
 10
924.71614
 20
243.97157
 30
0.0
  0
VERTEX
  8
0
 10
924.70789
 20
244.011575
 30
0.0
  0
VERTEX
  8
0
 10
924.699640
 20
244.021575
 30
0.0
  0
VERTEX
  8
0
 10
924.691390
 20
244.041575
 30
0.0
  0
VERTEX
  8
0
 10
924.683140
 20
244.051575
 30
0.0
  0
VERTEX
  8
0
 10
924.65015
 20
244.051575
 30
0.0
  0
VERTEX
  8
0
 10
924.63365
 20
244.06158
 30
0.0
  0
VERTEX
  8
0
 10
924.625400
 20
244.06158
 30
0.0
  0
VERTEX
  8
0
 10
924.592410
 20
244.051575
 30
0.0
  0
SEQEND
  8
0
 62
     1
  0
POLYLINE
  8
0
  6
CONTINUOUS
 62
     1
 66
     1
  0
VERTEX
  8
0
 10
918.05974
 20
250.452195
 30
0.0
  0
VERTEX
  8
0
 10
918.043250
 20
250.442195
 30
0.0
  0
VERTEX
  8
0
 10
918.035
 20
250.42219
 30
0.0
  0
VERTEX
  8
0
 10
918.02675
 20
250.41219
 30
0.0
  0
VERTEX
  8
0
 10
918.02675
 20
250.372185
 30
0.0
  0
VERTEX
  8
0
 10
918.035
 20
250.352185
 30
0.0
  0
VERTEX
  8
0
 10
918.05149
 20
250.32218
 30
0.0
  0
VERTEX
  8
0
 10
918.05974
 20
250.31218
 30
0.0
  0
VERTEX
  8
0
 10
918.10098
 20
250.30218
 30
0.0
  0
VERTEX
  8
0
 10
918.10923
 20
250.30218
 30
0.0
  0
VERTEX
  8
0
 10
918.13398
 20
250.31218
 30
0.0
  0
VERTEX
  8
0
 10
918.15872
 20
250.332185
 30
0.0
  0
VERTEX
  8
0
 10
918.17522
 20
250.352185
 30
0.0
  0
VERTEX
  8
0
 10
918.183470
 20
250.372185
 30
0.0
  0
VERTEX
  8
0
 10
918.17522
 20
250.41219
 30
0.0
  0
VERTEX
  8
0
 10
918.16697
 20
250.42219
 30
0.0
  0
VERTEX
  8
0
 10
918.15872
 20
250.442195
 30
0.0
  0
VERTEX
  8
0
 10
918.150470
 20
250.452195
 30
0.0
  0
VERTEX
  8
0
 10
918.11748
 20
250.452195
 30
0.0
  0
VERTEX
  8
0
 10
918.10098
 20
250.462195
 30
0.0
  0
VERTEX
  8
0
 10
918.09274
 20
250.462195
 30
0.0
  0
VERTEX
  8
0
 10
918.05974
 20
250.452195
 30
0.0
  0
SEQEND
  8
0
 62
     1
  0
POLYLINE
  8
0
  6
CONTINUOUS
 62
     1
 66
     1
  0
VERTEX
  8
0
 10
917.19367
 20
245.43171
 30
0.0
  0
VERTEX
  8
0
 10
917.177170
 20
245.42171
 30
0.0
  0
VERTEX
  8
0
 10
917.16892
 20
245.401705
 30
0.0
  0
VERTEX
  8
0
 10
917.160680
 20
245.391705
 30
0.0
  0
VERTEX
  8
0
 10
917.160680
 20
245.3517
 30
0.0
  0
VERTEX
  8
0
 10
917.16892
 20
245.3317
 30
0.0
  0
VERTEX
  8
0
 10
917.185420
 20
245.301695
 30
0.0
  0
VERTEX
  8
0
 10
917.19367
 20
245.291695
 30
0.0
  0
VERTEX
  8
0
 10
917.23491
 20
245.281695
 30
0.0
  0
VERTEX
  8
0
 10
917.24316
 20
245.281695
 30
0.0
  0
VERTEX
  8
0
 10
917.267900
 20
245.291695
 30
0.0
  0
VERTEX
  8
0
 10
917.29265
 20
245.3117
 30
0.0
  0
VERTEX
  8
0
 10
917.309150
 20
245.3317
 30
0.0
  0
VERTEX
  8
0
 10
917.31739
 20
245.3517
 30
0.0
  0
VERTEX
  8
0
 10
917.309150
 20
245.391705
 30
0.0
  0
VERTEX
  8
0
 10
917.3009
 20
245.401705
 30
0.0
  0
VERTEX
  8
0
 10
917.29265
 20
245.42171
 30
0.0
  0
VERTEX
  8
0
 10
917.2844
 20
245.43171
 30
0.0
  0
VERTEX
  8
0
 10
917.25141
 20
245.43171
 30
0.0
  0
VERTEX
  8
0
 10
917.23491
 20
245.44171
 30
0.0
  0
VERTEX
  8
0
 10
917.226660
 20
245.44171
 30
0.0
  0
VERTEX
  8
0
 10
917.19367
 20
245.43171
 30
0.0
  0
SEQEND
  8
0
 62
     1
  0
POLYLINE
  8
0
  6
CONTINUOUS
 62
     1
 66
     1
  0
VERTEX
  8
0
 10
910.693990
 20
251.822325
 30
0.0
  0
VERTEX
  8
0
 10
910.6775
 20
251.812325
 30
0.0
  0
VERTEX
  8
0
 10
910.669250
 20
251.792325
 30
0.0
  0
VERTEX
  8
0
 10
910.661000
 20
251.782325
 30
0.0
  0
VERTEX
  8
0
 10
910.661000
 20
251.74232
 30
0.0
  0
VERTEX
  8
0
 10
910.669250
 20
251.722315
 30
0.0
  0
VERTEX
  8
0
 10
910.68575
 20
251.692315
 30
0.0
  0
VERTEX
  8
0
 10
910.693990
 20
251.682315
 30
0.0
  0
VERTEX
  8
0
 10
910.73524
 20
251.67231
 30
0.0
  0
VERTEX
  8
0
 10
910.74348
 20
251.67231
 30
0.0
  0
VERTEX
  8
0
 10
910.76823
 20
251.682315
 30
0.0
  0
VERTEX
  8
0
 10
910.792970
 20
251.702315
 30
0.0
  0
VERTEX
  8
0
 10
910.80947
 20
251.722315
 30
0.0
  0
VERTEX
  8
0
 10
910.81772
 20
251.74232
 30
0.0
  0
VERTEX
  8
0
 10
910.80947
 20
251.782325
 30
0.0
  0
VERTEX
  8
0
 10
910.80122
 20
251.792325
 30
0.0
  0
VERTEX
  8
0
 10
910.792970
 20
251.812325
 30
0.0
  0
VERTEX
  8
0
 10
910.78473
 20
251.822325
 30
0.0
  0
VERTEX
  8
0
 10
910.75173
 20
251.822325
 30
0.0
  0
VERTEX
  8
0
 10
910.73524
 20
251.832330
 30
0.0
  0
VERTEX
  8
0
 10
910.72699
 20
251.832330
 30
0.0
  0
VERTEX
  8
0
 10
910.693990
 20
251.822325
 30
0.0
  0
SEQEND
  8
0
 62
     1
  0
POLYLINE
  8
0
  6
CONTINUOUS
 62
     1
 66
     1
  0
VERTEX
  8
0
 10
913.127250
 20
251.352280
 30
0.0
  0
VERTEX
  8
0
 10
913.11075
 20
251.34228
 30
0.0
  0
VERTEX
  8
0
 10
913.1025
 20
251.32228
 30
0.0
  0
VERTEX
  8
0
 10
913.094250
 20
251.312280
 30
0.0
  0
VERTEX
  8
0
 10
913.094250
 20
251.272275
 30
0.0
  0
VERTEX
  8
0
 10
913.1025
 20
251.252270
 30
0.0
  0
VERTEX
  8
0
 10
913.119000
 20
251.22227
 30
0.0
  0
VERTEX
  8
0
 10
913.127250
 20
251.212270
 30
0.0
  0
VERTEX
  8
0
 10
913.16849
 20
251.202265
 30
0.0
  0
VERTEX
  8
0
 10
913.17674
 20
251.202265
 30
0.0
  0
VERTEX
  8
0
 10
913.201480
 20
251.212270
 30
0.0
  0
VERTEX
  8
0
 10
913.22623
 20
251.23227
 30
0.0
  0
VERTEX
  8
0
 10
913.24272
 20
251.252270
 30
0.0
  0
VERTEX
  8
0
 10
913.250970
 20
251.272275
 30
0.0
  0
VERTEX
  8
0
 10
913.24272
 20
251.312280
 30
0.0
  0
VERTEX
  8
0
 10
913.234480
 20
251.32228
 30
0.0
  0
VERTEX
  8
0
 10
913.22623
 20
251.34228
 30
0.0
  0
VERTEX
  8
0
 10
913.21798
 20
251.352280
 30
0.0
  0
VERTEX
  8
0
 10
913.18499
 20
251.352280
 30
0.0
  0
VERTEX
  8
0
 10
913.16849
 20
251.362280
 30
0.0
  0
VERTEX
  8
0
 10
913.16024
 20
251.362280
 30
0.0
  0
VERTEX
  8
0
 10
913.127250
 20
251.352280
 30
0.0
  0
SEQEND
  8
0
 62
     1
  0
POLYLINE
  8
0
  6
CONTINUOUS
 62
     1
 66
     1
  0
VERTEX
  8
0
 10
909.778430
 20
246.791840
 30
0.0
  0
VERTEX
  8
0
 10
909.761930
 20
246.781840
 30
0.0
  0
VERTEX
  8
0
 10
909.753690
 20
246.761840
 30
0.0
  0
VERTEX
  8
0
 10
909.74544
 20
246.751835
 30
0.0
  0
VERTEX
  8
0
 10
909.74544
 20
246.711835
 30
0.0
  0
VERTEX
  8
0
 10
909.753690
 20
246.691830
 30
0.0
  0
VERTEX
  8
0
 10
909.770180
 20
246.661830
 30
0.0
  0
VERTEX
  8
0
 10
909.778430
 20
246.65183
 30
0.0
  0
VERTEX
  8
0
 10
909.819670
 20
246.641825
 30
0.0
  0
VERTEX
  8
0
 10
909.82792
 20
246.641825
 30
0.0
  0
VERTEX
  8
0
 10
909.852670
 20
246.65183
 30
0.0
  0
VERTEX
  8
0
 10
909.877410
 20
246.671830
 30
0.0
  0
VERTEX
  8
0
 10
909.89391
 20
246.691830
 30
0.0
  0
VERTEX
  8
0
 10
909.90216
 20
246.711835
 30
0.0
  0
VERTEX
  8
0
 10
909.89391
 20
246.751835
 30
0.0
  0
VERTEX
  8
0
 10
909.88566
 20
246.761840
 30
0.0
  0
VERTEX
  8
0
 10
909.877410
 20
246.781840
 30
0.0
  0
VERTEX
  8
0
 10
909.86916
 20
246.791840
 30
0.0
  0
VERTEX
  8
0
 10
909.836170
 20
246.791840
 30
0.0
  0
VERTEX
  8
0
 10
909.819670
 20
246.801840
 30
0.0
  0
VERTEX
  8
0
 10
909.81142
 20
246.801840
 30
0.0
  0
VERTEX
  8
0
 10
909.778430
 20
246.791840
 30
0.0
  0
SEQEND
  8
0
 62
     1
  0
POLYLINE
  8
0
  6
CONTINUOUS
 62
     1
 66
     1
  0
VERTEX
  8
0
 10
912.29417
 20
246.3718
 30
0.0
  0
VERTEX
  8
0
 10
912.27767
 20
246.3618
 30
0.0
  0
VERTEX
  8
0
 10
912.26942
 20
246.3418
 30
0.0
  0
VERTEX
  8
0
 10
912.26117
 20
246.331795
 30
0.0
  0
VERTEX
  8
0
 10
912.26117
 20
246.291795
 30
0.0
  0
VERTEX
  8
0
 10
912.26942
 20
246.27179
 30
0.0
  0
VERTEX
  8
0
 10
912.285920
 20
246.24179
 30
0.0
  0
VERTEX
  8
0
 10
912.29417
 20
246.231785
 30
0.0
  0
VERTEX
  8
0
 10
912.33541
 20
246.221785
 30
0.0
  0
VERTEX
  8
0
 10
912.343660
 20
246.221785
 30
0.0
  0
VERTEX
  8
0
 10
912.3684
 20
246.231785
 30
0.0
  0
VERTEX
  8
0
 10
912.39315
 20
246.25179
 30
0.0
  0
VERTEX
  8
0
 10
912.409640
 20
246.27179
 30
0.0
  0
VERTEX
  8
0
 10
912.41789
 20
246.291795
 30
0.0
  0
VERTEX
  8
0
 10
912.409640
 20
246.331795
 30
0.0
  0
VERTEX
  8
0
 10
912.4014
 20
246.3418
 30
0.0
  0
VERTEX
  8
0
 10
912.39315
 20
246.3618
 30
0.0
  0
VERTEX
  8
0
 10
912.3849
 20
246.3718
 30
0.0
  0
VERTEX
  8
0
 10
912.35191
 20
246.3718
 30
0.0
  0
VERTEX
  8
0
 10
912.33541
 20
246.3818
 30
0.0
  0
VERTEX
  8
0
 10
912.32716
 20
246.3818
 30
0.0
  0
VERTEX
  8
0
 10
912.29417
 20
246.3718
 30
0.0
  0
SEQEND
  8
0
 62
     1
  0
POLYLINE
  8
0
  6
CONTINUOUS
 62
     1
 66
     1
  0
VERTEX
  8
0
 10
925.92039
 20
251.682315
 30
0.0
  0
VERTEX
  8
0
 10
925.903890
 20
251.67231
 30
0.0
  0
VERTEX
  8
0
 10
925.89565
 20
251.65231
 30
0.0
  0
VERTEX
  8
0
 10
925.8874
 20
251.64231
 30
0.0
  0
VERTEX
  8
0
 10
925.8874
 20
251.602305
 30
0.0
  0
VERTEX
  8
0
 10
925.89565
 20
251.582305
 30
0.0
  0
VERTEX
  8
0
 10
925.912140
 20
251.552300
 30
0.0
  0
VERTEX
  8
0
 10
925.92039
 20
251.542300
 30
0.0
  0
VERTEX
  8
0
 10
925.96163
 20
251.5323
 30
0.0
  0
VERTEX
  8
0
 10
925.96988
 20
251.5323
 30
0.0
  0
VERTEX
  8
0
 10
925.994630
 20
251.542300
 30
0.0
  0
VERTEX
  8
0
 10
926.019370
 20
251.5623
 30
0.0
  0
VERTEX
  8
0
 10
926.03587
 20
251.582305
 30
0.0
  0
VERTEX
  8
0
 10
926.044120
 20
251.602305
 30
0.0
  0
VERTEX
  8
0
 10
926.03587
 20
251.64231
 30
0.0
  0
VERTEX
  8
0
 10
926.02762
 20
251.65231
 30
0.0
  0
VERTEX
  8
0
 10
926.019370
 20
251.67231
 30
0.0
  0
VERTEX
  8
0
 10
926.01112
 20
251.682315
 30
0.0
  0
VERTEX
  8
0
 10
925.978130
 20
251.682315
 30
0.0
  0
VERTEX
  8
0
 10
925.96163
 20
251.692315
 30
0.0
  0
VERTEX
  8
0
 10
925.95338
 20
251.692315
 30
0.0
  0
VERTEX
  8
0
 10
925.92039
 20
251.682315
 30
0.0
  0
SEQEND
  8
0
 62
     1
  0
POLYLINE
  8
0
  6
CONTINUOUS
 62
     1
 66
     1
  0
VERTEX
  8
0
 10
918.5299
 20
253.042445
 30
0.0
  0
VERTEX
  8
0
 10
918.5134
 20
253.032445
 30
0.0
  0
VERTEX
  8
0
 10
918.50515
 20
253.012440
 30
0.0
  0
VERTEX
  8
0
 10
918.4969
 20
253.002440
 30
0.0
  0
VERTEX
  8
0
 10
918.4969
 20
252.962435
 30
0.0
  0
VERTEX
  8
0
 10
918.50515
 20
252.942435
 30
0.0
  0
VERTEX
  8
0
 10
918.521650
 20
252.91243
 30
0.0
  0
VERTEX
  8
0
 10
918.5299
 20
252.902430
 30
0.0
  0
VERTEX
  8
0
 10
918.57114
 20
252.892430
 30
0.0
  0
VERTEX
  8
0
 10
918.579390
 20
252.892430
 30
0.0
  0
VERTEX
  8
0
 10
918.60413
 20
252.902430
 30
0.0
  0
VERTEX
  8
0
 10
918.62888
 20
252.922435
 30
0.0
  0
VERTEX
  8
0
 10
918.64537
 20
252.942435
 30
0.0
  0
VERTEX
  8
0
 10
918.653620
 20
252.962435
 30
0.0
  0
VERTEX
  8
0
 10
918.64537
 20
253.002440
 30
0.0
  0
VERTEX
  8
0
 10
918.637130
 20
253.012440
 30
0.0
  0
VERTEX
  8
0
 10
918.62888
 20
253.032445
 30
0.0
  0
VERTEX
  8
0
 10
918.620630
 20
253.042445
 30
0.0
  0
VERTEX
  8
0
 10
918.587640
 20
253.042445
 30
0.0
  0
VERTEX
  8
0
 10
918.57114
 20
253.052445
 30
0.0
  0
VERTEX
  8
0
 10
918.562890
 20
253.052445
 30
0.0
  0
VERTEX
  8
0
 10
918.5299
 20
253.042445
 30
0.0
  0
SEQEND
  8
0
 62
     1
  0
POLYLINE
  8
0
  6
CONTINUOUS
 62
     1
 66
     1
  0
VERTEX
  8
0
 10
913.62215
 20
253.892525
 30
0.0
  0
VERTEX
  8
0
 10
913.60565
 20
253.882525
 30
0.0
  0
VERTEX
  8
0
 10
913.5974
 20
253.862525
 30
0.0
  0
VERTEX
  8
0
 10
913.58915
 20
253.852525
 30
0.0
  0
VERTEX
  8
0
 10
913.58915
 20
253.81252
 30
0.0
  0
VERTEX
  8
0
 10
913.5974
 20
253.792515
 30
0.0
  0
VERTEX
  8
0
 10
913.6139
 20
253.762515
 30
0.0
  0
VERTEX
  8
0
 10
913.62215
 20
253.752515
 30
0.0
  0
VERTEX
  8
0
 10
913.663390
 20
253.74251
 30
0.0
  0
VERTEX
  8
0
 10
913.671640
 20
253.74251
 30
0.0
  0
VERTEX
  8
0
 10
913.696380
 20
253.752515
 30
0.0
  0
VERTEX
  8
0
 10
913.72113
 20
253.772515
 30
0.0
  0
VERTEX
  8
0
 10
913.73762
 20
253.792515
 30
0.0
  0
VERTEX
  8
0
 10
913.74587
 20
253.81252
 30
0.0
  0
VERTEX
  8
0
 10
913.73762
 20
253.852525
 30
0.0
  0
VERTEX
  8
0
 10
913.729380
 20
253.862525
 30
0.0
  0
VERTEX
  8
0
 10
913.72113
 20
253.882525
 30
0.0
  0
VERTEX
  8
0
 10
913.71288
 20
253.892525
 30
0.0
  0
VERTEX
  8
0
 10
913.67989
 20
253.892525
 30
0.0
  0
VERTEX
  8
0
 10
913.663390
 20
253.902530
 30
0.0
  0
VERTEX
  8
0
 10
913.655140
 20
253.902530
 30
0.0
  0
VERTEX
  8
0
 10
913.62215
 20
253.892525
 30
0.0
  0
SEQEND
  8
0
 62
     1
  0
POLYLINE
  8
0
  6
CONTINUOUS
 62
     1
 66
     1
  0
VERTEX
  8
0
 10
911.1559
 20
254.36257
 30
0.0
  0
VERTEX
  8
0
 10
911.1394
 20
254.352570
 30
0.0
  0
VERTEX
  8
0
 10
911.13115
 20
254.332570
 30
0.0
  0
VERTEX
  8
0
 10
911.12291
 20
254.322570
 30
0.0
  0
VERTEX
  8
0
 10
911.12291
 20
254.282565
 30
0.0
  0
VERTEX
  8
0
 10
911.13115
 20
254.26256
 30
0.0
  0
VERTEX
  8
0
 10
911.147650
 20
254.23256
 30
0.0
  0
VERTEX
  8
0
 10
911.1559
 20
254.222560
 30
0.0
  0
VERTEX
  8
0
 10
911.197140
 20
254.212560
 30
0.0
  0
VERTEX
  8
0
 10
911.205390
 20
254.212560
 30
0.0
  0
VERTEX
  8
0
 10
911.23013
 20
254.222560
 30
0.0
  0
VERTEX
  8
0
 10
911.25488
 20
254.24256
 30
0.0
  0
VERTEX
  8
0
 10
911.271380
 20
254.26256
 30
0.0
  0
VERTEX
  8
0
 10
911.27962
 20
254.282565
 30
0.0
  0
VERTEX
  8
0
 10
911.271380
 20
254.322570
 30
0.0
  0
VERTEX
  8
0
 10
911.26313
 20
254.332570
 30
0.0
  0
VERTEX
  8
0
 10
911.25488
 20
254.352570
 30
0.0
  0
VERTEX
  8
0
 10
911.24663
 20
254.36257
 30
0.0
  0
VERTEX
  8
0
 10
911.213640
 20
254.36257
 30
0.0
  0
VERTEX
  8
0
 10
911.197140
 20
254.372575
 30
0.0
  0
VERTEX
  8
0
 10
911.188890
 20
254.372575
 30
0.0
  0
VERTEX
  8
0
 10
911.1559
 20
254.36257
 30
0.0
  0
SEQEND
  8
0
 62
     1
  0
POLYLINE
  8
0
  6
CONTINUOUS
 62
     1
 66
     1
  0
VERTEX
  8
0
 10
900.76302
 20
253.18246
 30
0.0
  0
VERTEX
  8
0
 10
900.74652
 20
253.172455
 30
0.0
  0
VERTEX
  8
0
 10
900.73827
 20
253.152455
 30
0.0
  0
VERTEX
  8
0
 10
900.73002
 20
253.142455
 30
0.0
  0
VERTEX
  8
0
 10
900.73002
 20
253.10245
 30
0.0
  0
VERTEX
  8
0
 10
900.73827
 20
253.082450
 30
0.0
  0
VERTEX
  8
0
 10
900.754770
 20
253.052445
 30
0.0
  0
VERTEX
  8
0
 10
900.76302
 20
253.042445
 30
0.0
  0
VERTEX
  8
0
 10
900.80426
 20
253.032445
 30
0.0
  0
VERTEX
  8
0
 10
900.81251
 20
253.032445
 30
0.0
  0
VERTEX
  8
0
 10
900.83725
 20
253.042445
 30
0.0
  0
VERTEX
  8
0
 10
900.862000
 20
253.062445
 30
0.0
  0
VERTEX
  8
0
 10
900.87849
 20
253.082450
 30
0.0
  0
VERTEX
  8
0
 10
900.88674
 20
253.10245
 30
0.0
  0
VERTEX
  8
0
 10
900.87849
 20
253.142455
 30
0.0
  0
VERTEX
  8
0
 10
900.870250
 20
253.152455
 30
0.0
  0
VERTEX
  8
0
 10
900.862000
 20
253.172455
 30
0.0
  0
VERTEX
  8
0
 10
900.85375
 20
253.18246
 30
0.0
  0
VERTEX
  8
0
 10
900.82076
 20
253.18246
 30
0.0
  0
VERTEX
  8
0
 10
900.80426
 20
253.19246
 30
0.0
  0
VERTEX
  8
0
 10
900.79601
 20
253.19246
 30
0.0
  0
VERTEX
  8
0
 10
900.76302
 20
253.18246
 30
0.0
  0
SEQEND
  8
0
 62
     1
  0
POLYLINE
  8
0
  6
CONTINUOUS
 62
     1
 66
     1
  0
VERTEX
  8
0
 10
901.398140
 20
256.662795
 30
0.0
  0
VERTEX
  8
0
 10
901.381640
 20
256.652795
 30
0.0
  0
VERTEX
  8
0
 10
901.373390
 20
256.632790
 30
0.0
  0
VERTEX
  8
0
 10
901.36515
 20
256.62279
 30
0.0
  0
VERTEX
  8
0
 10
901.36515
 20
256.582785
 30
0.0
  0
VERTEX
  8
0
 10
901.373390
 20
256.562785
 30
0.0
  0
VERTEX
  8
0
 10
901.38989
 20
256.53278
 30
0.0
  0
VERTEX
  8
0
 10
901.398140
 20
256.522780
 30
0.0
  0
VERTEX
  8
0
 10
901.439380
 20
256.512780
 30
0.0
  0
VERTEX
  8
0
 10
901.44763
 20
256.512780
 30
0.0
  0
VERTEX
  8
0
 10
901.47237
 20
256.522780
 30
0.0
  0
VERTEX
  8
0
 10
901.49712
 20
256.542785
 30
0.0
  0
VERTEX
  8
0
 10
901.513610
 20
256.562785
 30
0.0
  0
VERTEX
  8
0
 10
901.52186
 20
256.582785
 30
0.0
  0
VERTEX
  8
0
 10
901.513610
 20
256.62279
 30
0.0
  0
VERTEX
  8
0
 10
901.505370
 20
256.632790
 30
0.0
  0
VERTEX
  8
0
 10
901.49712
 20
256.652795
 30
0.0
  0
VERTEX
  8
0
 10
901.48887
 20
256.662795
 30
0.0
  0
VERTEX
  8
0
 10
901.455880
 20
256.662795
 30
0.0
  0
VERTEX
  8
0
 10
901.439380
 20
256.672795
 30
0.0
  0
VERTEX
  8
0
 10
901.43113
 20
256.672795
 30
0.0
  0
VERTEX
  8
0
 10
901.398140
 20
256.662795
 30
0.0
  0
SEQEND
  8
0
 62
     1
  0
POLYLINE
  8
0
  6
CONTINUOUS
 62
     1
 66
     1
  0
VERTEX
  8
0
 10
905.84398
 20
255.352670
 30
0.0
  0
VERTEX
  8
0
 10
905.82749
 20
255.342665
 30
0.0
  0
VERTEX
  8
0
 10
905.81924
 20
255.322665
 30
0.0
  0
VERTEX
  8
0
 10
905.810990
 20
255.312665
 30
0.0
  0
VERTEX
  8
0
 10
905.810990
 20
255.27266
 30
0.0
  0
VERTEX
  8
0
 10
905.81924
 20
255.252660
 30
0.0
  0
VERTEX
  8
0
 10
905.83573
 20
255.222655
 30
0.0
  0
VERTEX
  8
0
 10
905.84398
 20
255.212655
 30
0.0
  0
VERTEX
  8
0
 10
905.88522
 20
255.202655
 30
0.0
  0
VERTEX
  8
0
 10
905.89347
 20
255.202655
 30
0.0
  0
VERTEX
  8
0
 10
905.91822
 20
255.212655
 30
0.0
  0
VERTEX
  8
0
 10
905.94296
 20
255.232655
 30
0.0
  0
VERTEX
  8
0
 10
905.95946
 20
255.252660
 30
0.0
  0
VERTEX
  8
0
 10
905.967710
 20
255.27266
 30
0.0
  0
VERTEX
  8
0
 10
905.95946
 20
255.312665
 30
0.0
  0
VERTEX
  8
0
 10
905.95121
 20
255.322665
 30
0.0
  0
VERTEX
  8
0
 10
905.94296
 20
255.342665
 30
0.0
  0
VERTEX
  8
0
 10
905.93471
 20
255.352670
 30
0.0
  0
VERTEX
  8
0
 10
905.901720
 20
255.352670
 30
0.0
  0
VERTEX
  8
0
 10
905.88522
 20
255.36267
 30
0.0
  0
VERTEX
  8
0
 10
905.87698
 20
255.36267
 30
0.0
  0
VERTEX
  8
0
 10
905.84398
 20
255.352670
 30
0.0
  0
SEQEND
  8
0
 62
     1
  0
POLYLINE
  8
0
  6
CONTINUOUS
 62
     1
 66
     1
  0
VERTEX
  8
0
 10
905.2501
 20
251.992345
 30
0.0
  0
VERTEX
  8
0
 10
905.233610
 20
251.982340
 30
0.0
  0
VERTEX
  8
0
 10
905.225360
 20
251.96234
 30
0.0
  0
VERTEX
  8
0
 10
905.21711
 20
251.95234
 30
0.0
  0
VERTEX
  8
0
 10
905.21711
 20
251.912335
 30
0.0
  0
VERTEX
  8
0
 10
905.225360
 20
251.892335
 30
0.0
  0
VERTEX
  8
0
 10
905.241860
 20
251.86233
 30
0.0
  0
VERTEX
  8
0
 10
905.2501
 20
251.852330
 30
0.0
  0
VERTEX
  8
0
 10
905.291340
 20
251.842330
 30
0.0
  0
VERTEX
  8
0
 10
905.29959
 20
251.842330
 30
0.0
  0
VERTEX
  8
0
 10
905.32434
 20
251.852330
 30
0.0
  0
VERTEX
  8
0
 10
905.349080
 20
251.872330
 30
0.0
  0
VERTEX
  8
0
 10
905.36558
 20
251.892335
 30
0.0
  0
VERTEX
  8
0
 10
905.37383
 20
251.912335
 30
0.0
  0
VERTEX
  8
0
 10
905.36558
 20
251.95234
 30
0.0
  0
VERTEX
  8
0
 10
905.35733
 20
251.96234
 30
0.0
  0
VERTEX
  8
0
 10
905.349080
 20
251.982340
 30
0.0
  0
VERTEX
  8
0
 10
905.340830
 20
251.992345
 30
0.0
  0
VERTEX
  8
0
 10
905.30784
 20
251.992345
 30
0.0
  0
VERTEX
  8
0
 10
905.291340
 20
252.002345
 30
0.0
  0
VERTEX
  8
0
 10
905.2831
 20
252.002345
 30
0.0
  0
VERTEX
  8
0
 10
905.2501
 20
251.992345
 30
0.0
  0
SEQEND
  8
0
 62
     1
  0
POLYLINE
  8
0
  6
CONTINUOUS
 62
     1
 66
     1
  0
VERTEX
  8
0
 10
896.49864
 20
257.512875
 30
0.0
  0
VERTEX
  8
0
 10
896.482140
 20
257.502875
 30
0.0
  0
VERTEX
  8
0
 10
896.473890
 20
257.482875
 30
0.0
  0
VERTEX
  8
0
 10
896.46564
 20
257.47287
 30
0.0
  0
VERTEX
  8
0
 10
896.46564
 20
257.43287
 30
0.0
  0
VERTEX
  8
0
 10
896.473890
 20
257.412865
 30
0.0
  0
VERTEX
  8
0
 10
896.490390
 20
257.382865
 30
0.0
  0
VERTEX
  8
0
 10
896.49864
 20
257.372865
 30
0.0
  0
VERTEX
  8
0
 10
896.53988
 20
257.362860
 30
0.0
  0
VERTEX
  8
0
 10
896.548130
 20
257.362860
 30
0.0
  0
VERTEX
  8
0
 10
896.57287
 20
257.372865
 30
0.0
  0
VERTEX
  8
0
 10
896.597620
 20
257.392865
 30
0.0
  0
VERTEX
  8
0
 10
896.614110
 20
257.412865
 30
0.0
  0
VERTEX
  8
0
 10
896.622360
 20
257.43287
 30
0.0
  0
VERTEX
  8
0
 10
896.614110
 20
257.47287
 30
0.0
  0
VERTEX
  8
0
 10
896.605860
 20
257.482875
 30
0.0
  0
VERTEX
  8
0
 10
896.597620
 20
257.502875
 30
0.0
  0
VERTEX
  8
0
 10
896.589370
 20
257.512875
 30
0.0
  0
VERTEX
  8
0
 10
896.55638
 20
257.512875
 30
0.0
  0
VERTEX
  8
0
 10
896.53988
 20
257.522875
 30
0.0
  0
VERTEX
  8
0
 10
896.531630
 20
257.522875
 30
0.0
  0
VERTEX
  8
0
 10
896.49864
 20
257.512875
 30
0.0
  0
SEQEND
  8
0
 62
     1
  0
POLYLINE
  8
0
  6
CONTINUOUS
 62
     1
 66
     1
  0
VERTEX
  8
0
 10
895.88001
 20
254.102545
 30
0.0
  0
VERTEX
  8
0
 10
895.863520
 20
254.092545
 30
0.0
  0
VERTEX
  8
0
 10
895.85527
 20
254.072545
 30
0.0
  0
VERTEX
  8
0
 10
895.84702
 20
254.062545
 30
0.0
  0
VERTEX
  8
0
 10
895.84702
 20
254.02254
 30
0.0
  0
VERTEX
  8
0
 10
895.85527
 20
254.002535
 30
0.0
  0
VERTEX
  8
0
 10
895.87176
 20
253.972535
 30
0.0
  0
VERTEX
  8
0
 10
895.88001
 20
253.962535
 30
0.0
  0
VERTEX
  8
0
 10
895.92125
 20
253.952535
 30
0.0
  0
VERTEX
  8
0
 10
895.9295
 20
253.952535
 30
0.0
  0
VERTEX
  8
0
 10
895.954250
 20
253.962535
 30
0.0
  0
VERTEX
  8
0
 10
895.97899
 20
253.982535
 30
0.0
  0
VERTEX
  8
0
 10
895.99549
 20
254.002535
 30
0.0
  0
VERTEX
  8
0
 10
896.00374
 20
254.02254
 30
0.0
  0
VERTEX
  8
0
 10
895.99549
 20
254.062545
 30
0.0
  0
VERTEX
  8
0
 10
895.98724
 20
254.072545
 30
0.0
  0
VERTEX
  8
0
 10
895.97899
 20
254.092545
 30
0.0
  0
VERTEX
  8
0
 10
895.97074
 20
254.102545
 30
0.0
  0
VERTEX
  8
0
 10
895.937750
 20
254.102545
 30
0.0
  0
VERTEX
  8
0
 10
895.92125
 20
254.11255
 30
0.0
  0
VERTEX
  8
0
 10
895.91301
 20
254.11255
 30
0.0
  0
VERTEX
  8
0
 10
895.88001
 20
254.102545
 30
0.0
  0
SEQEND
  8
0
 62
     1
  0
POLYLINE
  8
0
  6
CONTINUOUS
 62
     1
 66
     1
  0
VERTEX
  8
0
 10
891.56614
 20
258.472970
 30
0.0
  0
VERTEX
  8
0
 10
891.549650
 20
258.462970
 30
0.0
  0
VERTEX
  8
0
 10
891.5414
 20
258.442965
 30
0.0
  0
VERTEX
  8
0
 10
891.53315
 20
258.432965
 30
0.0
  0
VERTEX
  8
0
 10
891.53315
 20
258.39296
 30
0.0
  0
VERTEX
  8
0
 10
891.5414
 20
258.372960
 30
0.0
  0
VERTEX
  8
0
 10
891.55789
 20
258.342955
 30
0.0
  0
VERTEX
  8
0
 10
891.56614
 20
258.332955
 30
0.0
  0
VERTEX
  8
0
 10
891.60738
 20
258.322955
 30
0.0
  0
VERTEX
  8
0
 10
891.61563
 20
258.322955
 30
0.0
  0
VERTEX
  8
0
 10
891.64038
 20
258.332955
 30
0.0
  0
VERTEX
  8
0
 10
891.66512
 20
258.352955
 30
0.0
  0
VERTEX
  8
0
 10
891.68162
 20
258.372960
 30
0.0
  0
VERTEX
  8
0
 10
891.68987
 20
258.39296
 30
0.0
  0
VERTEX
  8
0
 10
891.68162
 20
258.432965
 30
0.0
  0
VERTEX
  8
0
 10
891.67337
 20
258.442965
 30
0.0
  0
VERTEX
  8
0
 10
891.66512
 20
258.462970
 30
0.0
  0
VERTEX
  8
0
 10
891.656870
 20
258.472970
 30
0.0
  0
VERTEX
  8
0
 10
891.623880
 20
258.472970
 30
0.0
  0
VERTEX
  8
0
 10
891.60738
 20
258.48297
 30
0.0
  0
VERTEX
  8
0
 10
891.59914
 20
258.48297
 30
0.0
  0
VERTEX
  8
0
 10
891.56614
 20
258.472970
 30
0.0
  0
SEQEND
  8
0
 62
     1
  0
POLYLINE
  8
0
  6
CONTINUOUS
 62
     1
 66
     1
  0
VERTEX
  8
0
 10
890.93927
 20
255.012635
 30
0.0
  0
VERTEX
  8
0
 10
890.92277
 20
255.002635
 30
0.0
  0
VERTEX
  8
0
 10
890.91452
 20
254.982630
 30
0.0
  0
VERTEX
  8
0
 10
890.90628
 20
254.972630
 30
0.0
  0
VERTEX
  8
0
 10
890.90628
 20
254.932625
 30
0.0
  0
VERTEX
  8
0
 10
890.91452
 20
254.912625
 30
0.0
  0
VERTEX
  8
0
 10
890.93102
 20
254.88262
 30
0.0
  0
VERTEX
  8
0
 10
890.93927
 20
254.87262
 30
0.0
  0
VERTEX
  8
0
 10
890.98051
 20
254.862620
 30
0.0
  0
VERTEX
  8
0
 10
890.98876
 20
254.862620
 30
0.0
  0
VERTEX
  8
0
 10
891.0135
 20
254.87262
 30
0.0
  0
VERTEX
  8
0
 10
891.03825
 20
254.892625
 30
0.0
  0
VERTEX
  8
0
 10
891.05475
 20
254.912625
 30
0.0
  0
VERTEX
  8
0
 10
891.06299
 20
254.932625
 30
0.0
  0
VERTEX
  8
0
 10
891.05475
 20
254.972630
 30
0.0
  0
VERTEX
  8
0
 10
891.0465
 20
254.982630
 30
0.0
  0
VERTEX
  8
0
 10
891.03825
 20
255.002635
 30
0.0
  0
VERTEX
  8
0
 10
891.03
 20
255.012635
 30
0.0
  0
VERTEX
  8
0
 10
890.99701
 20
255.012635
 30
0.0
  0
VERTEX
  8
0
 10
890.98051
 20
255.022635
 30
0.0
  0
VERTEX
  8
0
 10
890.972260
 20
255.022635
 30
0.0
  0
VERTEX
  8
0
 10
890.93927
 20
255.012635
 30
0.0
  0
SEQEND
  8
0
 62
     1
  0
POLYLINE
  8
0
  6
CONTINUOUS
 62
     1
 66
     1
  0
VERTEX
  8
0
 10
886.00678
 20
255.90272
 30
0.0
  0
VERTEX
  8
0
 10
885.990280
 20
255.89272
 30
0.0
  0
VERTEX
  8
0
 10
885.982030
 20
255.872720
 30
0.0
  0
VERTEX
  8
0
 10
885.97378
 20
255.862715
 30
0.0
  0
VERTEX
  8
0
 10
885.97378
 20
255.822715
 30
0.0
  0
VERTEX
  8
0
 10
885.982030
 20
255.802710
 30
0.0
  0
VERTEX
  8
0
 10
885.99853
 20
255.77271
 30
0.0
  0
VERTEX
  8
0
 10
886.00678
 20
255.762705
 30
0.0
  0
VERTEX
  8
0
 10
886.04802
 20
255.752705
 30
0.0
  0
VERTEX
  8
0
 10
886.05626
 20
255.752705
 30
0.0
  0
VERTEX
  8
0
 10
886.081010
 20
255.762705
 30
0.0
  0
VERTEX
  8
0
 10
886.105750
 20
255.78271
 30
0.0
  0
VERTEX
  8
0
 10
886.12225
 20
255.802710
 30
0.0
  0
VERTEX
  8
0
 10
886.1305
 20
255.822715
 30
0.0
  0
VERTEX
  8
0
 10
886.12225
 20
255.862715
 30
0.0
  0
VERTEX
  8
0
 10
886.114
 20
255.872720
 30
0.0
  0
VERTEX
  8
0
 10
886.105750
 20
255.89272
 30
0.0
  0
VERTEX
  8
0
 10
886.09751
 20
255.90272
 30
0.0
  0
VERTEX
  8
0
 10
886.06451
 20
255.90272
 30
0.0
  0
VERTEX
  8
0
 10
886.04802
 20
255.912720
 30
0.0
  0
VERTEX
  8
0
 10
886.03977
 20
255.912720
 30
0.0
  0
VERTEX
  8
0
 10
886.00678
 20
255.90272
 30
0.0
  0
SEQEND
  8
0
 62
     1
  0
POLYLINE
  8
0
  6
CONTINUOUS
 62
     1
 66
     1
  0
VERTEX
  8
0
 10
886.658390
 20
259.33305
 30
0.0
  0
VERTEX
  8
0
 10
886.6419
 20
259.32305
 30
0.0
  0
VERTEX
  8
0
 10
886.63365
 20
259.30305
 30
0.0
  0
VERTEX
  8
0
 10
886.625400
 20
259.29305
 30
0.0
  0
VERTEX
  8
0
 10
886.625400
 20
259.253045
 30
0.0
  0
VERTEX
  8
0
 10
886.63365
 20
259.233040
 30
0.0
  0
VERTEX
  8
0
 10
886.650140
 20
259.20304
 30
0.0
  0
VERTEX
  8
0
 10
886.658390
 20
259.193040
 30
0.0
  0
VERTEX
  8
0
 10
886.699630
 20
259.183035
 30
0.0
  0
VERTEX
  8
0
 10
886.70788
 20
259.183035
 30
0.0
  0
VERTEX
  8
0
 10
886.73263
 20
259.193040
 30
0.0
  0
VERTEX
  8
0
 10
886.757370
 20
259.21304
 30
0.0
  0
VERTEX
  8
0
 10
886.77387
 20
259.233040
 30
0.0
  0
VERTEX
  8
0
 10
886.78212
 20
259.253045
 30
0.0
  0
VERTEX
  8
0
 10
886.77387
 20
259.29305
 30
0.0
  0
VERTEX
  8
0
 10
886.76562
 20
259.30305
 30
0.0
  0
VERTEX
  8
0
 10
886.757370
 20
259.32305
 30
0.0
  0
VERTEX
  8
0
 10
886.749120
 20
259.33305
 30
0.0
  0
VERTEX
  8
0
 10
886.71613
 20
259.33305
 30
0.0
  0
VERTEX
  8
0
 10
886.699630
 20
259.343055
 30
0.0
  0
VERTEX
  8
0
 10
886.691390
 20
259.343055
 30
0.0
  0
VERTEX
  8
0
 10
886.658390
 20
259.33305
 30
0.0
  0
SEQEND
  8
0
 62
     1
  0
POLYLINE
  8
0
  6
CONTINUOUS
 62
     1
 66
     1
  0
VERTEX
  8
0
 10
881.09078
 20
256.782805
 30
0.0
  0
VERTEX
  8
0
 10
881.07428
 20
256.772805
 30
0.0
  0
VERTEX
  8
0
 10
881.06603
 20
256.752805
 30
0.0
  0
VERTEX
  8
0
 10
881.057780
 20
256.7428
 30
0.0
  0
VERTEX
  8
0
 10
881.057780
 20
256.7028
 30
0.0
  0
VERTEX
  8
0
 10
881.06603
 20
256.682795
 30
0.0
  0
VERTEX
  8
0
 10
881.08253
 20
256.652795
 30
0.0
  0
VERTEX
  8
0
 10
881.09078
 20
256.642790
 30
0.0
  0
VERTEX
  8
0
 10
881.13202
 20
256.632790
 30
0.0
  0
VERTEX
  8
0
 10
881.14027
 20
256.632790
 30
0.0
  0
VERTEX
  8
0
 10
881.16501
 20
256.642790
 30
0.0
  0
VERTEX
  8
0
 10
881.18976
 20
256.662795
 30
0.0
  0
VERTEX
  8
0
 10
881.20625
 20
256.682795
 30
0.0
  0
VERTEX
  8
0
 10
881.214500
 20
256.7028
 30
0.0
  0
VERTEX
  8
0
 10
881.20625
 20
256.7428
 30
0.0
  0
VERTEX
  8
0
 10
881.19801
 20
256.752805
 30
0.0
  0
VERTEX
  8
0
 10
881.18976
 20
256.772805
 30
0.0
  0
VERTEX
  8
0
 10
881.18151
 20
256.782805
 30
0.0
  0
VERTEX
  8
0
 10
881.148520
 20
256.782805
 30
0.0
  0
VERTEX
  8
0
 10
881.13202
 20
256.792805
 30
0.0
  0
VERTEX
  8
0
 10
881.12377
 20
256.792805
 30
0.0
  0
VERTEX
  8
0
 10
881.09078
 20
256.782805
 30
0.0
  0
SEQEND
  8
0
 62
     1
  0
POLYLINE
  8
0
  6
CONTINUOUS
 62
     1
 66
     1
  0
VERTEX
  8
0
 10
881.767140
 20
260.213135
 30
0.0
  0
VERTEX
  8
0
 10
881.75064
 20
260.203135
 30
0.0
  0
VERTEX
  8
0
 10
881.74239
 20
260.183135
 30
0.0
  0
VERTEX
  8
0
 10
881.734150
 20
260.173135
 30
0.0
  0
VERTEX
  8
0
 10
881.734150
 20
260.13313
 30
0.0
  0
VERTEX
  8
0
 10
881.74239
 20
260.113125
 30
0.0
  0
VERTEX
  8
0
 10
881.758890
 20
260.083125
 30
0.0
  0
VERTEX
  8
0
 10
881.767140
 20
260.073125
 30
0.0
  0
VERTEX
  8
0
 10
881.80838
 20
260.06312
 30
0.0
  0
VERTEX
  8
0
 10
881.81663
 20
260.06312
 30
0.0
  0
VERTEX
  8
0
 10
881.84137
 20
260.073125
 30
0.0
  0
VERTEX
  8
0
 10
881.866120
 20
260.093125
 30
0.0
  0
VERTEX
  8
0
 10
881.88262
 20
260.113125
 30
0.0
  0
VERTEX
  8
0
 10
881.890860
 20
260.13313
 30
0.0
  0
VERTEX
  8
0
 10
881.88262
 20
260.173135
 30
0.0
  0
VERTEX
  8
0
 10
881.87437
 20
260.183135
 30
0.0
  0
VERTEX
  8
0
 10
881.866120
 20
260.203135
 30
0.0
  0
VERTEX
  8
0
 10
881.85787
 20
260.213135
 30
0.0
  0
VERTEX
  8
0
 10
881.82488
 20
260.213135
 30
0.0
  0
VERTEX
  8
0
 10
881.80838
 20
260.223140
 30
0.0
  0
VERTEX
  8
0
 10
881.80013
 20
260.223140
 30
0.0
  0
VERTEX
  8
0
 10
881.767140
 20
260.213135
 30
0.0
  0
SEQEND
  8
0
 62
     1
  0
POLYLINE
  8
0
  6
CONTINUOUS
 62
     1
 66
     1
  0
VERTEX
  8
0
 10
876.2985
 20
257.652890
 30
0.0
  0
VERTEX
  8
0
 10
876.28201
 20
257.642890
 30
0.0
  0
VERTEX
  8
0
 10
876.27376
 20
257.622885
 30
0.0
  0
VERTEX
  8
0
 10
876.26551
 20
257.612885
 30
0.0
  0
VERTEX
  8
0
 10
876.26551
 20
257.57288
 30
0.0
  0
VERTEX
  8
0
 10
876.27376
 20
257.55288
 30
0.0
  0
VERTEX
  8
0
 10
876.29026
 20
257.522875
 30
0.0
  0
VERTEX
  8
0
 10
876.2985
 20
257.512875
 30
0.0
  0
VERTEX
  8
0
 10
876.339750
 20
257.502875
 30
0.0
  0
VERTEX
  8
0
 10
876.34799
 20
257.502875
 30
0.0
  0
VERTEX
  8
0
 10
876.37274
 20
257.512875
 30
0.0
  0
VERTEX
  8
0
 10
876.39748
 20
257.53288
 30
0.0
  0
VERTEX
  8
0
 10
876.413980
 20
257.55288
 30
0.0
  0
VERTEX
  8
0
 10
876.42223
 20
257.57288
 30
0.0
  0
VERTEX
  8
0
 10
876.413980
 20
257.612885
 30
0.0
  0
VERTEX
  8
0
 10
876.40573
 20
257.622885
 30
0.0
  0
VERTEX
  8
0
 10
876.39748
 20
257.642890
 30
0.0
  0
VERTEX
  8
0
 10
876.38924
 20
257.652890
 30
0.0
  0
VERTEX
  8
0
 10
876.356240
 20
257.652890
 30
0.0
  0
VERTEX
  8
0
 10
876.339750
 20
257.662890
 30
0.0
  0
VERTEX
  8
0
 10
876.331500
 20
257.662890
 30
0.0
  0
VERTEX
  8
0
 10
876.2985
 20
257.652890
 30
0.0
  0
SEQEND
  8
0
 62
     1
  0
POLYLINE
  8
0
  6
CONTINUOUS
 62
     1
 66
     1
  0
VERTEX
  8
0
 10
876.93362
 20
261.103225
 30
0.0
  0
VERTEX
  8
0
 10
876.91713
 20
261.093220
 30
0.0
  0
VERTEX
  8
0
 10
876.908880
 20
261.07322
 30
0.0
  0
VERTEX
  8
0
 10
876.900630
 20
261.06322
 30
0.0
  0
VERTEX
  8
0
 10
876.900630
 20
261.023215
 30
0.0
  0
VERTEX
  8
0
 10
876.908880
 20
261.003215
 30
0.0
  0
VERTEX
  8
0
 10
876.92538
 20
260.97321
 30
0.0
  0
VERTEX
  8
0
 10
876.93362
 20
260.963210
 30
0.0
  0
VERTEX
  8
0
 10
876.97487
 20
260.95321
 30
0.0
  0
VERTEX
  8
0
 10
876.983110
 20
260.95321
 30
0.0
  0
VERTEX
  8
0
 10
877.007860
 20
260.963210
 30
0.0
  0
VERTEX
  8
0
 10
877.0326
 20
260.983210
 30
0.0
  0
VERTEX
  8
0
 10
877.0491
 20
261.003215
 30
0.0
  0
VERTEX
  8
0
 10
877.05735
 20
261.023215
 30
0.0
  0
VERTEX
  8
0
 10
877.0491
 20
261.06322
 30
0.0
  0
VERTEX
  8
0
 10
877.040850
 20
261.07322
 30
0.0
  0
VERTEX
  8
0
 10
877.0326
 20
261.093220
 30
0.0
  0
VERTEX
  8
0
 10
877.02436
 20
261.103225
 30
0.0
  0
VERTEX
  8
0
 10
876.99136
 20
261.103225
 30
0.0
  0
VERTEX
  8
0
 10
876.97487
 20
261.113225
 30
0.0
  0
VERTEX
  8
0
 10
876.96662
 20
261.113225
 30
0.0
  0
VERTEX
  8
0
 10
876.93362
 20
261.103225
 30
0.0
  0
SEQEND
  8
0
 62
     1
  0
POLYLINE
  8
0
  6
CONTINUOUS
 62
     1
 66
     1
  0
VERTEX
  8
0
 10
872.009380
 20
261.98331
 30
0.0
  0
VERTEX
  8
0
 10
871.99288
 20
261.973305
 30
0.0
  0
VERTEX
  8
0
 10
871.98463
 20
261.953305
 30
0.0
  0
VERTEX
  8
0
 10
871.976380
 20
261.943305
 30
0.0
  0
VERTEX
  8
0
 10
871.976380
 20
261.9033
 30
0.0
  0
VERTEX
  8
0
 10
871.98463
 20
261.8833
 30
0.0
  0
VERTEX
  8
0
 10
872.00113
 20
261.853295
 30
0.0
  0
VERTEX
  8
0
 10
872.009380
 20
261.843295
 30
0.0
  0
VERTEX
  8
0
 10
872.050620
 20
261.833295
 30
0.0
  0
VERTEX
  8
0
 10
872.05887
 20
261.833295
 30
0.0
  0
VERTEX
  8
0
 10
872.083610
 20
261.843295
 30
0.0
  0
VERTEX
  8
0
 10
872.10836
 20
261.863295
 30
0.0
  0
VERTEX
  8
0
 10
872.12485
 20
261.8833
 30
0.0
  0
VERTEX
  8
0
 10
872.1331
 20
261.9033
 30
0.0
  0
VERTEX
  8
0
 10
872.12485
 20
261.943305
 30
0.0
  0
VERTEX
  8
0
 10
872.116610
 20
261.953305
 30
0.0
  0
VERTEX
  8
0
 10
872.10836
 20
261.973305
 30
0.0
  0
VERTEX
  8
0
 10
872.10011
 20
261.98331
 30
0.0
  0
VERTEX
  8
0
 10
872.06712
 20
261.98331
 30
0.0
  0
VERTEX
  8
0
 10
872.050620
 20
261.99331
 30
0.0
  0
VERTEX
  8
0
 10
872.04237
 20
261.99331
 30
0.0
  0
VERTEX
  8
0
 10
872.009380
 20
261.98331
 30
0.0
  0
SEQEND
  8
0
 62
     1
  0
POLYLINE
  8
0
  6
CONTINUOUS
 62
     1
 66
     1
  0
VERTEX
  8
0
 10
871.399
 20
258.59298
 30
0.0
  0
VERTEX
  8
0
 10
871.38251
 20
258.582980
 30
0.0
  0
VERTEX
  8
0
 10
871.37426
 20
258.562980
 30
0.0
  0
VERTEX
  8
0
 10
871.36601
 20
258.552975
 30
0.0
  0
VERTEX
  8
0
 10
871.36601
 20
258.512975
 30
0.0
  0
VERTEX
  8
0
 10
871.37426
 20
258.49297
 30
0.0
  0
VERTEX
  8
0
 10
871.390750
 20
258.462970
 30
0.0
  0
VERTEX
  8
0
 10
871.399
 20
258.452965
 30
0.0
  0
VERTEX
  8
0
 10
871.44024
 20
258.442965
 30
0.0
  0
VERTEX
  8
0
 10
871.448490
 20
258.442965
 30
0.0
  0
VERTEX
  8
0
 10
871.47324
 20
258.452965
 30
0.0
  0
VERTEX
  8
0
 10
871.49798
 20
258.472970
 30
0.0
  0
VERTEX
  8
0
 10
871.51448
 20
258.49297
 30
0.0
  0
VERTEX
  8
0
 10
871.52273
 20
258.512975
 30
0.0
  0
VERTEX
  8
0
 10
871.51448
 20
258.552975
 30
0.0
  0
VERTEX
  8
0
 10
871.50623
 20
258.562980
 30
0.0
  0
VERTEX
  8
0
 10
871.49798
 20
258.582980
 30
0.0
  0
VERTEX
  8
0
 10
871.48973
 20
258.59298
 30
0.0
  0
VERTEX
  8
0
 10
871.45674
 20
258.59298
 30
0.0
  0
VERTEX
  8
0
 10
871.44024
 20
258.602980
 30
0.0
  0
VERTEX
  8
0
 10
871.432
 20
258.602980
 30
0.0
  0
VERTEX
  8
0
 10
871.399
 20
258.59298
 30
0.0
  0
SEQEND
  8
0
 62
     1
  0
POLYLINE
  8
0
  6
CONTINUOUS
 62
     1
 66
     1
  0
VERTEX
  8
0
 10
866.46651
 20
259.483065
 30
0.0
  0
VERTEX
  8
0
 10
866.450010
 20
259.473065
 30
0.0
  0
VERTEX
  8
0
 10
866.44176
 20
259.453065
 30
0.0
  0
VERTEX
  8
0
 10
866.43351
 20
259.443065
 30
0.0
  0
VERTEX
  8
0
 10
866.43351
 20
259.40306
 30
0.0
  0
VERTEX
  8
0
 10
866.44176
 20
259.383055
 30
0.0
  0
VERTEX
  8
0
 10
866.45826
 20
259.353055
 30
0.0
  0
VERTEX
  8
0
 10
866.46651
 20
259.343055
 30
0.0
  0
VERTEX
  8
0
 10
866.50775
 20
259.33305
 30
0.0
  0
VERTEX
  8
0
 10
866.516
 20
259.33305
 30
0.0
  0
VERTEX
  8
0
 10
866.54074
 20
259.343055
 30
0.0
  0
VERTEX
  8
0
 10
866.56549
 20
259.363055
 30
0.0
  0
VERTEX
  8
0
 10
866.58198
 20
259.383055
 30
0.0
  0
VERTEX
  8
0
 10
866.59023
 20
259.40306
 30
0.0
  0
VERTEX
  8
0
 10
866.58198
 20
259.443065
 30
0.0
  0
VERTEX
  8
0
 10
866.57374
 20
259.453065
 30
0.0
  0
VERTEX
  8
0
 10
866.56549
 20
259.473065
 30
0.0
  0
VERTEX
  8
0
 10
866.557240
 20
259.483065
 30
0.0
  0
VERTEX
  8
0
 10
866.52425
 20
259.483065
 30
0.0
  0
VERTEX
  8
0
 10
866.50775
 20
259.493065
 30
0.0
  0
VERTEX
  8
0
 10
866.499500
 20
259.493065
 30
0.0
  0
VERTEX
  8
0
 10
866.46651
 20
259.483065
 30
0.0
  0
SEQEND
  8
0
 62
     1
  0
POLYLINE
  8
0
  6
CONTINUOUS
 62
     1
 66
     1
  0
VERTEX
  8
0
 10
867.08513
 20
262.9134
 30
0.0
  0
VERTEX
  8
0
 10
867.06863
 20
262.903395
 30
0.0
  0
VERTEX
  8
0
 10
867.06039
 20
262.883395
 30
0.0
  0
VERTEX
  8
0
 10
867.052140
 20
262.873395
 30
0.0
  0
VERTEX
  8
0
 10
867.052140
 20
262.833390
 30
0.0
  0
VERTEX
  8
0
 10
867.06039
 20
262.813390
 30
0.0
  0
VERTEX
  8
0
 10
867.076880
 20
262.783385
 30
0.0
  0
VERTEX
  8
0
 10
867.08513
 20
262.773385
 30
0.0
  0
VERTEX
  8
0
 10
867.12637
 20
262.763385
 30
0.0
  0
VERTEX
  8
0
 10
867.13462
 20
262.763385
 30
0.0
  0
VERTEX
  8
0
 10
867.15937
 20
262.773385
 30
0.0
  0
VERTEX
  8
0
 10
867.184110
 20
262.793385
 30
0.0
  0
VERTEX
  8
0
 10
867.20061
 20
262.813390
 30
0.0
  0
VERTEX
  8
0
 10
867.20886
 20
262.833390
 30
0.0
  0
VERTEX
  8
0
 10
867.20061
 20
262.873395
 30
0.0
  0
VERTEX
  8
0
 10
867.192360
 20
262.883395
 30
0.0
  0
VERTEX
  8
0
 10
867.184110
 20
262.903395
 30
0.0
  0
VERTEX
  8
0
 10
867.17586
 20
262.9134
 30
0.0
  0
VERTEX
  8
0
 10
867.142870
 20
262.9134
 30
0.0
  0
VERTEX
  8
0
 10
867.12637
 20
262.9234
 30
0.0
  0
VERTEX
  8
0
 10
867.11812
 20
262.9234
 30
0.0
  0
VERTEX
  8
0
 10
867.08513
 20
262.9134
 30
0.0
  0
SEQEND
  8
0
 62
     1
  0
POLYLINE
  8
0
  6
CONTINUOUS
 62
     1
 66
     1
  0
VERTEX
  8
0
 10
862.16913
 20
263.793485
 30
0.0
  0
VERTEX
  8
0
 10
862.152640
 20
263.783480
 30
0.0
  0
VERTEX
  8
0
 10
862.14439
 20
263.763480
 30
0.0
  0
VERTEX
  8
0
 10
862.13614
 20
263.753480
 30
0.0
  0
VERTEX
  8
0
 10
862.13614
 20
263.713475
 30
0.0
  0
VERTEX
  8
0
 10
862.14439
 20
263.693475
 30
0.0
  0
VERTEX
  8
0
 10
862.16088
 20
263.66347
 30
0.0
  0
VERTEX
  8
0
 10
862.16913
 20
263.65347
 30
0.0
  0
VERTEX
  8
0
 10
862.21037
 20
263.643470
 30
0.0
  0
VERTEX
  8
0
 10
862.21862
 20
263.643470
 30
0.0
  0
VERTEX
  8
0
 10
862.24337
 20
263.65347
 30
0.0
  0
VERTEX
  8
0
 10
862.26811
 20
263.67347
 30
0.0
  0
VERTEX
  8
0
 10
862.284610
 20
263.693475
 30
0.0
  0
VERTEX
  8
0
 10
862.292860
 20
263.713475
 30
0.0
  0
VERTEX
  8
0
 10
862.284610
 20
263.753480
 30
0.0
  0
VERTEX
  8
0
 10
862.27636
 20
263.763480
 30
0.0
  0
VERTEX
  8
0
 10
862.26811
 20
263.783480
 30
0.0
  0
VERTEX
  8
0
 10
862.259860
 20
263.793485
 30
0.0
  0
VERTEX
  8
0
 10
862.226870
 20
263.793485
 30
0.0
  0
VERTEX
  8
0
 10
862.21037
 20
263.803485
 30
0.0
  0
VERTEX
  8
0
 10
862.20213
 20
263.803485
 30
0.0
  0
VERTEX
  8
0
 10
862.16913
 20
263.793485
 30
0.0
  0
SEQEND
  8
0
 62
     1
  0
POLYLINE
  8
0
  6
CONTINUOUS
 62
     1
 66
     1
  0
VERTEX
  8
0
 10
861.55876
 20
260.36315
 30
0.0
  0
VERTEX
  8
0
 10
861.54226
 20
260.35315
 30
0.0
  0
VERTEX
  8
0
 10
861.53401
 20
260.33315
 30
0.0
  0
VERTEX
  8
0
 10
861.52576
 20
260.32315
 30
0.0
  0
VERTEX
  8
0
 10
861.52576
 20
260.283145
 30
0.0
  0
VERTEX
  8
0
 10
861.53401
 20
260.263140
 30
0.0
  0
VERTEX
  8
0
 10
861.55051
 20
260.23314
 30
0.0
  0
VERTEX
  8
0
 10
861.55876
 20
260.223140
 30
0.0
  0
VERTEX
  8
0
 10
861.6
 20
260.213135
 30
0.0
  0
VERTEX
  8
0
 10
861.608250
 20
260.213135
 30
0.0
  0
VERTEX
  8
0
 10
861.632990
 20
260.223140
 30
0.0
  0
VERTEX
  8
0
 10
861.65774
 20
260.24314
 30
0.0
  0
VERTEX
  8
0
 10
861.67423
 20
260.263140
 30
0.0
  0
VERTEX
  8
0
 10
861.68248
 20
260.283145
 30
0.0
  0
VERTEX
  8
0
 10
861.67423
 20
260.32315
 30
0.0
  0
VERTEX
  8
0
 10
861.665990
 20
260.33315
 30
0.0
  0
VERTEX
  8
0
 10
861.65774
 20
260.35315
 30
0.0
  0
VERTEX
  8
0
 10
861.64949
 20
260.36315
 30
0.0
  0
VERTEX
  8
0
 10
861.6165
 20
260.36315
 30
0.0
  0
VERTEX
  8
0
 10
861.6
 20
260.37315
 30
0.0
  0
VERTEX
  8
0
 10
861.591750
 20
260.37315
 30
0.0
  0
VERTEX
  8
0
 10
861.55876
 20
260.36315
 30
0.0
  0
SEQEND
  8
0
 62
     1
  0
POLYLINE
  8
0
  6
CONTINUOUS
 62
     1
 66
     1
  0
VERTEX
  8
0
 10
856.642760
 20
261.243235
 30
0.0
  0
VERTEX
  8
0
 10
856.62626
 20
261.233235
 30
0.0
  0
VERTEX
  8
0
 10
856.61801
 20
261.213235
 30
0.0
  0
VERTEX
  8
0
 10
856.60977
 20
261.203235
 30
0.0
  0
VERTEX
  8
0
 10
856.60977
 20
261.163230
 30
0.0
  0
VERTEX
  8
0
 10
856.61801
 20
261.143225
 30
0.0
  0
VERTEX
  8
0
 10
856.63451
 20
261.113225
 30
0.0
  0
VERTEX
  8
0
 10
856.642760
 20
261.103225
 30
0.0
  0
VERTEX
  8
0
 10
856.684
 20
261.093220
 30
0.0
  0
VERTEX
  8
0
 10
856.692250
 20
261.093220
 30
0.0
  0
VERTEX
  8
0
 10
856.71699
 20
261.103225
 30
0.0
  0
VERTEX
  8
0
 10
856.74174
 20
261.123225
 30
0.0
  0
VERTEX
  8
0
 10
856.75824
 20
261.143225
 30
0.0
  0
VERTEX
  8
0
 10
856.76648
 20
261.163230
 30
0.0
  0
VERTEX
  8
0
 10
856.75824
 20
261.203235
 30
0.0
  0
VERTEX
  8
0
 10
856.74999
 20
261.213235
 30
0.0
  0
VERTEX
  8
0
 10
856.74174
 20
261.233235
 30
0.0
  0
VERTEX
  8
0
 10
856.73349
 20
261.243235
 30
0.0
  0
VERTEX
  8
0
 10
856.700500
 20
261.243235
 30
0.0
  0
VERTEX
  8
0
 10
856.684
 20
261.253235
 30
0.0
  0
VERTEX
  8
0
 10
856.67575
 20
261.253235
 30
0.0
  0
VERTEX
  8
0
 10
856.642760
 20
261.243235
 30
0.0
  0
SEQEND
  8
0
 62
     1
  0
POLYLINE
  8
0
  6
CONTINUOUS
 62
     1
 66
     1
  0
VERTEX
  8
0
 10
857.269630
 20
264.663565
 30
0.0
  0
VERTEX
  8
0
 10
857.25313
 20
264.653565
 30
0.0
  0
VERTEX
  8
0
 10
857.244890
 20
264.633565
 30
0.0
  0
VERTEX
  8
0
 10
857.236640
 20
264.623565
 30
0.0
  0
VERTEX
  8
0
 10
857.236640
 20
264.58356
 30
0.0
  0
VERTEX
  8
0
 10
857.244890
 20
264.563555
 30
0.0
  0
VERTEX
  8
0
 10
857.26138
 20
264.533555
 30
0.0
  0
VERTEX
  8
0
 10
857.269630
 20
264.523555
 30
0.0
  0
VERTEX
  8
0
 10
857.31087
 20
264.513550
 30
0.0
  0
VERTEX
  8
0
 10
857.31912
 20
264.513550
 30
0.0
  0
VERTEX
  8
0
 10
857.34387
 20
264.523555
 30
0.0
  0
VERTEX
  8
0
 10
857.368610
 20
264.543555
 30
0.0
  0
VERTEX
  8
0
 10
857.38511
 20
264.563555
 30
0.0
  0
VERTEX
  8
0
 10
857.393360
 20
264.58356
 30
0.0
  0
VERTEX
  8
0
 10
857.38511
 20
264.623565
 30
0.0
  0
VERTEX
  8
0
 10
857.376860
 20
264.633565
 30
0.0
  0
VERTEX
  8
0
 10
857.368610
 20
264.653565
 30
0.0
  0
VERTEX
  8
0
 10
857.360360
 20
264.663565
 30
0.0
  0
VERTEX
  8
0
 10
857.32737
 20
264.663565
 30
0.0
  0
VERTEX
  8
0
 10
857.31087
 20
264.673570
 30
0.0
  0
VERTEX
  8
0
 10
857.30262
 20
264.673570
 30
0.0
  0
VERTEX
  8
0
 10
857.269630
 20
264.663565
 30
0.0
  0
SEQEND
  8
0
 62
     1
  0
POLYLINE
  8
0
  6
CONTINUOUS
 62
     1
 66
     1
  0
VERTEX
  8
0
 10
852.23816
 20
265.623660
 30
0.0
  0
VERTEX
  8
0
 10
852.22166
 20
265.613660
 30
0.0
  0
VERTEX
  8
0
 10
852.21341
 20
265.593655
 30
0.0
  0
VERTEX
  8
0
 10
852.20516
 20
265.583655
 30
0.0
  0
VERTEX
  8
0
 10
852.20516
 20
265.54365
 30
0.0
  0
VERTEX
  8
0
 10
852.21341
 20
265.523650
 30
0.0
  0
VERTEX
  8
0
 10
852.229910
 20
265.493645
 30
0.0
  0
VERTEX
  8
0
 10
852.23816
 20
265.483645
 30
0.0
  0
VERTEX
  8
0
 10
852.2794
 20
265.473645
 30
0.0
  0
VERTEX
  8
0
 10
852.28765
 20
265.473645
 30
0.0
  0
VERTEX
  8
0
 10
852.31239
 20
265.483645
 30
0.0
  0
VERTEX
  8
0
 10
852.337140
 20
265.50365
 30
0.0
  0
VERTEX
  8
0
 10
852.35363
 20
265.523650
 30
0.0
  0
VERTEX
  8
0
 10
852.361880
 20
265.54365
 30
0.0
  0
VERTEX
  8
0
 10
852.35363
 20
265.583655
 30
0.0
  0
VERTEX
  8
0
 10
852.34539
 20
265.593655
 30
0.0
  0
VERTEX
  8
0
 10
852.337140
 20
265.613660
 30
0.0
  0
VERTEX
  8
0
 10
852.328890
 20
265.623660
 30
0.0
  0
VERTEX
  8
0
 10
852.2959
 20
265.623660
 30
0.0
  0
VERTEX
  8
0
 10
852.2794
 20
265.633660
 30
0.0
  0
VERTEX
  8
0
 10
852.271150
 20
265.633660
 30
0.0
  0
VERTEX
  8
0
 10
852.23816
 20
265.623660
 30
0.0
  0
SEQEND
  8
0
 62
     1
  0
POLYLINE
  8
0
  6
CONTINUOUS
 62
     1
 66
     1
  0
VERTEX
  8
0
 10
851.594790
 20
262.20333
 30
0.0
  0
VERTEX
  8
0
 10
851.57829
 20
262.193330
 30
0.0
  0
VERTEX
  8
0
 10
851.57004
 20
262.173325
 30
0.0
  0
VERTEX
  8
0
 10
851.561790
 20
262.163325
 30
0.0
  0
VERTEX
  8
0
 10
851.561790
 20
262.123320
 30
0.0
  0
VERTEX
  8
0
 10
851.57004
 20
262.103320
 30
0.0
  0
VERTEX
  8
0
 10
851.58654
 20
262.073315
 30
0.0
  0
VERTEX
  8
0
 10
851.594790
 20
262.063315
 30
0.0
  0
VERTEX
  8
0
 10
851.63603
 20
262.053315
 30
0.0
  0
VERTEX
  8
0
 10
851.64428
 20
262.053315
 30
0.0
  0
VERTEX
  8
0
 10
851.66902
 20
262.063315
 30
0.0
  0
VERTEX
  8
0
 10
851.69377
 20
262.083315
 30
0.0
  0
VERTEX
  8
0
 10
851.71026
 20
262.103320
 30
0.0
  0
VERTEX
  8
0
 10
851.718510
 20
262.123320
 30
0.0
  0
VERTEX
  8
0
 10
851.71026
 20
262.163325
 30
0.0
  0
VERTEX
  8
0
 10
851.70202
 20
262.173325
 30
0.0
  0
VERTEX
  8
0
 10
851.69377
 20
262.193330
 30
0.0
  0
VERTEX
  8
0
 10
851.68552
 20
262.20333
 30
0.0
  0
VERTEX
  8
0
 10
851.65253
 20
262.20333
 30
0.0
  0
VERTEX
  8
0
 10
851.63603
 20
262.21333
 30
0.0
  0
VERTEX
  8
0
 10
851.627780
 20
262.21333
 30
0.0
  0
VERTEX
  8
0
 10
851.594790
 20
262.20333
 30
0.0
  0
SEQEND
  8
0
 62
     1
  0
POLYLINE
  8
0
  6
CONTINUOUS
 62
     1
 66
     1
  0
VERTEX
  8
0
 10
846.70353
 20
263.053410
 30
0.0
  0
VERTEX
  8
0
 10
846.68704
 20
263.043410
 30
0.0
  0
VERTEX
  8
0
 10
846.678790
 20
263.023410
 30
0.0
  0
VERTEX
  8
0
 10
846.670540
 20
263.013405
 30
0.0
  0
VERTEX
  8
0
 10
846.670540
 20
262.973405
 30
0.0
  0
VERTEX
  8
0
 10
846.678790
 20
262.953400
 30
0.0
  0
VERTEX
  8
0
 10
846.69529
 20
262.9234
 30
0.0
  0
VERTEX
  8
0
 10
846.70353
 20
262.9134
 30
0.0
  0
VERTEX
  8
0
 10
846.74478
 20
262.903395
 30
0.0
  0
VERTEX
  8
0
 10
846.75302
 20
262.903395
 30
0.0
  0
VERTEX
  8
0
 10
846.77777
 20
262.9134
 30
0.0
  0
VERTEX
  8
0
 10
846.80251
 20
262.933400
 30
0.0
  0
VERTEX
  8
0
 10
846.81901
 20
262.953400
 30
0.0
  0
VERTEX
  8
0
 10
846.82726
 20
262.973405
 30
0.0
  0
VERTEX
  8
0
 10
846.81901
 20
263.013405
 30
0.0
  0
VERTEX
  8
0
 10
846.81076
 20
263.023410
 30
0.0
  0
VERTEX
  8
0
 10
846.80251
 20
263.043410
 30
0.0
  0
VERTEX
  8
0
 10
846.79427
 20
263.053410
 30
0.0
  0
VERTEX
  8
0
 10
846.76127
 20
263.053410
 30
0.0
  0
VERTEX
  8
0
 10
846.74478
 20
263.063410
 30
0.0
  0
VERTEX
  8
0
 10
846.736530
 20
263.063410
 30
0.0
  0
VERTEX
  8
0
 10
846.70353
 20
263.053410
 30
0.0
  0
SEQEND
  8
0
 62
     1
  0
POLYLINE
  8
0
  6
CONTINUOUS
 62
     1
 66
     1
  0
VERTEX
  8
0
 10
847.30566
 20
266.54375
 30
0.0
  0
VERTEX
  8
0
 10
847.289170
 20
266.533745
 30
0.0
  0
VERTEX
  8
0
 10
847.280920
 20
266.513745
 30
0.0
  0
VERTEX
  8
0
 10
847.27267
 20
266.503745
 30
0.0
  0
VERTEX
  8
0
 10
847.27267
 20
266.46374
 30
0.0
  0
VERTEX
  8
0
 10
847.280920
 20
266.44374
 30
0.0
  0
VERTEX
  8
0
 10
847.29741
 20
266.413735
 30
0.0
  0
VERTEX
  8
0
 10
847.30566
 20
266.403735
 30
0.0
  0
VERTEX
  8
0
 10
847.3469
 20
266.393735
 30
0.0
  0
VERTEX
  8
0
 10
847.35515
 20
266.393735
 30
0.0
  0
VERTEX
  8
0
 10
847.3799
 20
266.403735
 30
0.0
  0
VERTEX
  8
0
 10
847.404640
 20
266.423735
 30
0.0
  0
VERTEX
  8
0
 10
847.42114
 20
266.44374
 30
0.0
  0
VERTEX
  8
0
 10
847.429390
 20
266.46374
 30
0.0
  0
VERTEX
  8
0
 10
847.42114
 20
266.503745
 30
0.0
  0
VERTEX
  8
0
 10
847.412890
 20
266.513745
 30
0.0
  0
VERTEX
  8
0
 10
847.404640
 20
266.533745
 30
0.0
  0
VERTEX
  8
0
 10
847.396390
 20
266.54375
 30
0.0
  0
VERTEX
  8
0
 10
847.3634
 20
266.54375
 30
0.0
  0
VERTEX
  8
0
 10
847.3469
 20
266.55375
 30
0.0
  0
VERTEX
  8
0
 10
847.33866
 20
266.55375
 30
0.0
  0
VERTEX
  8
0
 10
847.30566
 20
266.54375
 30
0.0
  0
SEQEND
  8
0
 62
     1
  0
POLYLINE
  8
0
  6
CONTINUOUS
 62
     1
 66
     1
  0
VERTEX
  8
0
 10
842.4474
 20
267.373830
 30
0.0
  0
VERTEX
  8
0
 10
842.43091
 20
267.363825
 30
0.0
  0
VERTEX
  8
0
 10
842.42266
 20
267.343825
 30
0.0
  0
VERTEX
  8
0
 10
842.41441
 20
267.333825
 30
0.0
  0
VERTEX
  8
0
 10
842.41441
 20
267.293820
 30
0.0
  0
VERTEX
  8
0
 10
842.42266
 20
267.273820
 30
0.0
  0
VERTEX
  8
0
 10
842.43915
 20
267.243815
 30
0.0
  0
VERTEX
  8
0
 10
842.4474
 20
267.233815
 30
0.0
  0
VERTEX
  8
0
 10
842.48864
 20
267.223815
 30
0.0
  0
VERTEX
  8
0
 10
842.49689
 20
267.223815
 30
0.0
  0
VERTEX
  8
0
 10
842.521640
 20
267.233815
 30
0.0
  0
VERTEX
  8
0
 10
842.546380
 20
267.253815
 30
0.0
  0
VERTEX
  8
0
 10
842.562880
 20
267.273820
 30
0.0
  0
VERTEX
  8
0
 10
842.57113
 20
267.293820
 30
0.0
  0
VERTEX
  8
0
 10
842.562880
 20
267.333825
 30
0.0
  0
VERTEX
  8
0
 10
842.55463
 20
267.343825
 30
0.0
  0
VERTEX
  8
0
 10
842.546380
 20
267.363825
 30
0.0
  0
VERTEX
  8
0
 10
842.53813
 20
267.373830
 30
0.0
  0
VERTEX
  8
0
 10
842.505140
 20
267.373830
 30
0.0
  0
VERTEX
  8
0
 10
842.48864
 20
267.38383
 30
0.0
  0
VERTEX
  8
0
 10
842.480400
 20
267.38383
 30
0.0
  0
VERTEX
  8
0
 10
842.4474
 20
267.373830
 30
0.0
  0
SEQEND
  8
0
 62
     1
  0
POLYLINE
  8
0
  6
CONTINUOUS
 62
     1
 66
     1
  0
VERTEX
  8
0
 10
841.754540
 20
263.9635
 30
0.0
  0
VERTEX
  8
0
 10
841.73805
 20
263.9535
 30
0.0
  0
VERTEX
  8
0
 10
841.729800
 20
263.933495
 30
0.0
  0
VERTEX
  8
0
 10
841.72155
 20
263.923495
 30
0.0
  0
VERTEX
  8
0
 10
841.72155
 20
263.88349
 30
0.0
  0
VERTEX
  8
0
 10
841.729800
 20
263.86349
 30
0.0
  0
VERTEX
  8
0
 10
841.7463
 20
263.833485
 30
0.0
  0
VERTEX
  8
0
 10
841.754540
 20
263.823485
 30
0.0
  0
VERTEX
  8
0
 10
841.79578
 20
263.813485
 30
0.0
  0
VERTEX
  8
0
 10
841.80403
 20
263.813485
 30
0.0
  0
VERTEX
  8
0
 10
841.82878
 20
263.823485
 30
0.0
  0
VERTEX
  8
0
 10
841.85352
 20
263.843485
 30
0.0
  0
VERTEX
  8
0
 10
841.87002
 20
263.86349
 30
0.0
  0
VERTEX
  8
0
 10
841.87827
 20
263.88349
 30
0.0
  0
VERTEX
  8
0
 10
841.87002
 20
263.923495
 30
0.0
  0
VERTEX
  8
0
 10
841.86177
 20
263.933495
 30
0.0
  0
VERTEX
  8
0
 10
841.85352
 20
263.9535
 30
0.0
  0
VERTEX
  8
0
 10
841.84527
 20
263.9635
 30
0.0
  0
VERTEX
  8
0
 10
841.812280
 20
263.9635
 30
0.0
  0
VERTEX
  8
0
 10
841.79578
 20
263.9735
 30
0.0
  0
VERTEX
  8
0
 10
841.787540
 20
263.9735
 30
0.0
  0
VERTEX
  8
0
 10
841.754540
 20
263.9635
 30
0.0
  0
SEQEND
  8
0
 62
     1
  0
POLYLINE
  8
0
  6
CONTINUOUS
 62
     1
 66
     1
  0
VERTEX
  8
0
 10
836.508610
 20
264.913590
 30
0.0
  0
VERTEX
  8
0
 10
836.49212
 20
264.903590
 30
0.0
  0
VERTEX
  8
0
 10
836.48387
 20
264.883590
 30
0.0
  0
VERTEX
  8
0
 10
836.475620
 20
264.873585
 30
0.0
  0
VERTEX
  8
0
 10
836.475620
 20
264.833585
 30
0.0
  0
VERTEX
  8
0
 10
836.48387
 20
264.813580
 30
0.0
  0
VERTEX
  8
0
 10
836.500360
 20
264.783580
 30
0.0
  0
VERTEX
  8
0
 10
836.508610
 20
264.773575
 30
0.0
  0
VERTEX
  8
0
 10
836.54985
 20
264.763575
 30
0.0
  0
VERTEX
  8
0
 10
836.5581
 20
264.763575
 30
0.0
  0
VERTEX
  8
0
 10
836.582850
 20
264.773575
 30
0.0
  0
VERTEX
  8
0
 10
836.607590
 20
264.793580
 30
0.0
  0
VERTEX
  8
0
 10
836.62409
 20
264.813580
 30
0.0
  0
VERTEX
  8
0
 10
836.63234
 20
264.833585
 30
0.0
  0
VERTEX
  8
0
 10
836.62409
 20
264.873585
 30
0.0
  0
VERTEX
  8
0
 10
836.61584
 20
264.883590
 30
0.0
  0
VERTEX
  8
0
 10
836.607590
 20
264.903590
 30
0.0
  0
VERTEX
  8
0
 10
836.59934
 20
264.913590
 30
0.0
  0
VERTEX
  8
0
 10
836.566350
 20
264.913590
 30
0.0
  0
VERTEX
  8
0
 10
836.54985
 20
264.923590
 30
0.0
  0
VERTEX
  8
0
 10
836.541610
 20
264.923590
 30
0.0
  0
VERTEX
  8
0
 10
836.508610
 20
264.913590
 30
0.0
  0
SEQEND
  8
0
 62
     1
  0
POLYLINE
  8
0
  6
CONTINUOUS
 62
     1
 66
     1
  0
VERTEX
  8
0
 10
837.20147
 20
268.323920
 30
0.0
  0
VERTEX
  8
0
 10
837.18497
 20
268.313920
 30
0.0
  0
VERTEX
  8
0
 10
837.17673
 20
268.293915
 30
0.0
  0
VERTEX
  8
0
 10
837.16848
 20
268.283915
 30
0.0
  0
VERTEX
  8
0
 10
837.16848
 20
268.243910
 30
0.0
  0
VERTEX
  8
0
 10
837.17673
 20
268.223910
 30
0.0
  0
VERTEX
  8
0
 10
837.193220
 20
268.193905
 30
0.0
  0
VERTEX
  8
0
 10
837.20147
 20
268.183905
 30
0.0
  0
VERTEX
  8
0
 10
837.24271
 20
268.173905
 30
0.0
  0
VERTEX
  8
0
 10
837.25096
 20
268.173905
 30
0.0
  0
VERTEX
  8
0
 10
837.27571
 20
268.183905
 30
0.0
  0
VERTEX
  8
0
 10
837.300450
 20
268.203910
 30
0.0
  0
VERTEX
  8
0
 10
837.316950
 20
268.223910
 30
0.0
  0
VERTEX
  8
0
 10
837.325200
 20
268.243910
 30
0.0
  0
VERTEX
  8
0
 10
837.316950
 20
268.283915
 30
0.0
  0
VERTEX
  8
0
 10
837.3087
 20
268.293915
 30
0.0
  0
VERTEX
  8
0
 10
837.300450
 20
268.313920
 30
0.0
  0
VERTEX
  8
0
 10
837.2922
 20
268.323920
 30
0.0
  0
VERTEX
  8
0
 10
837.25921
 20
268.323920
 30
0.0
  0
VERTEX
  8
0
 10
837.24271
 20
268.333920
 30
0.0
  0
VERTEX
  8
0
 10
837.23446
 20
268.333920
 30
0.0
  0
VERTEX
  8
0
 10
837.20147
 20
268.323920
 30
0.0
  0
SEQEND
  8
0
 62
     1
  0
POLYLINE
  8
0
  6
CONTINUOUS
 62
     1
 66
     1
  0
VERTEX
  8
0
 10
831.88955
 20
269.364020
 30
0.0
  0
VERTEX
  8
0
 10
831.87306
 20
269.354020
 30
0.0
  0
VERTEX
  8
0
 10
831.86481
 20
269.33402
 30
0.0
  0
VERTEX
  8
0
 10
831.85656
 20
269.324015
 30
0.0
  0
VERTEX
  8
0
 10
831.85656
 20
269.284015
 30
0.0
  0
VERTEX
  8
0
 10
831.86481
 20
269.26401
 30
0.0
  0
VERTEX
  8
0
 10
831.88131
 20
269.234010
 30
0.0
  0
VERTEX
  8
0
 10
831.88955
 20
269.224005
 30
0.0
  0
VERTEX
  8
0
 10
831.930800
 20
269.214005
 30
0.0
  0
VERTEX
  8
0
 10
831.93904
 20
269.214005
 30
0.0
  0
VERTEX
  8
0
 10
831.96379
 20
269.224005
 30
0.0
  0
VERTEX
  8
0
 10
831.98853
 20
269.24401
 30
0.0
  0
VERTEX
  8
0
 10
832.005030
 20
269.26401
 30
0.0
  0
VERTEX
  8
0
 10
832.013280
 20
269.284015
 30
0.0
  0
VERTEX
  8
0
 10
832.005030
 20
269.324015
 30
0.0
  0
VERTEX
  8
0
 10
831.996780
 20
269.33402
 30
0.0
  0
VERTEX
  8
0
 10
831.98853
 20
269.354020
 30
0.0
  0
VERTEX
  8
0
 10
831.980290
 20
269.364020
 30
0.0
  0
VERTEX
  8
0
 10
831.94729
 20
269.364020
 30
0.0
  0
VERTEX
  8
0
 10
831.930800
 20
269.374020
 30
0.0
  0
VERTEX
  8
0
 10
831.92255
 20
269.374020
 30
0.0
  0
VERTEX
  8
0
 10
831.88955
 20
269.364020
 30
0.0
  0
SEQEND
  8
0
 62
     1
  0
POLYLINE
  8
0
  6
CONTINUOUS
 62
     1
 66
     1
  0
VERTEX
  8
0
 10
831.246180
 20
265.73367
 30
0.0
  0
VERTEX
  8
0
 10
831.22969
 20
265.72367
 30
0.0
  0
VERTEX
  8
0
 10
831.22144
 20
265.703665
 30
0.0
  0
VERTEX
  8
0
 10
831.21319
 20
265.693665
 30
0.0
  0
VERTEX
  8
0
 10
831.21319
 20
265.653660
 30
0.0
  0
VERTEX
  8
0
 10
831.22144
 20
265.633660
 30
0.0
  0
VERTEX
  8
0
 10
831.23794
 20
265.603655
 30
0.0
  0
VERTEX
  8
0
 10
831.246180
 20
265.593655
 30
0.0
  0
VERTEX
  8
0
 10
831.287430
 20
265.583655
 30
0.0
  0
VERTEX
  8
0
 10
831.295670
 20
265.583655
 30
0.0
  0
VERTEX
  8
0
 10
831.32042
 20
265.593655
 30
0.0
  0
VERTEX
  8
0
 10
831.34516
 20
265.613660
 30
0.0
  0
VERTEX
  8
0
 10
831.361660
 20
265.633660
 30
0.0
  0
VERTEX
  8
0
 10
831.36991
 20
265.653660
 30
0.0
  0
VERTEX
  8
0
 10
831.361660
 20
265.693665
 30
0.0
  0
VERTEX
  8
0
 10
831.353410
 20
265.703665
 30
0.0
  0
VERTEX
  8
0
 10
831.34516
 20
265.72367
 30
0.0
  0
VERTEX
  8
0
 10
831.33692
 20
265.73367
 30
0.0
  0
VERTEX
  8
0
 10
831.30392
 20
265.73367
 30
0.0
  0
VERTEX
  8
0
 10
831.287430
 20
265.74367
 30
0.0
  0
VERTEX
  8
0
 10
831.279180
 20
265.74367
 30
0.0
  0
VERTEX
  8
0
 10
831.246180
 20
265.73367
 30
0.0
  0
SEQEND
  8
0
 62
     1
  0
POLYLINE
  8
0
  6
CONTINUOUS
 62
     1
 66
     1
  0
VERTEX
  8
0
 10
825.88478
 20
266.883780
 30
0.0
  0
VERTEX
  8
0
 10
825.86828
 20
266.87378
 30
0.0
  0
VERTEX
  8
0
 10
825.86003
 20
266.85378
 30
0.0
  0
VERTEX
  8
0
 10
825.85178
 20
266.843775
 30
0.0
  0
VERTEX
  8
0
 10
825.85178
 20
266.803775
 30
0.0
  0
VERTEX
  8
0
 10
825.86003
 20
266.78377
 30
0.0
  0
VERTEX
  8
0
 10
825.876530
 20
266.75377
 30
0.0
  0
VERTEX
  8
0
 10
825.88478
 20
266.743765
 30
0.0
  0
VERTEX
  8
0
 10
825.926020
 20
266.733765
 30
0.0
  0
VERTEX
  8
0
 10
825.93427
 20
266.733765
 30
0.0
  0
VERTEX
  8
0
 10
825.959010
 20
266.743765
 30
0.0
  0
VERTEX
  8
0
 10
825.983760
 20
266.76377
 30
0.0
  0
VERTEX
  8
0
 10
826.000250
 20
266.78377
 30
0.0
  0
VERTEX
  8
0
 10
826.0085
 20
266.803775
 30
0.0
  0
VERTEX
  8
0
 10
826.000250
 20
266.843775
 30
0.0
  0
VERTEX
  8
0
 10
825.992010
 20
266.85378
 30
0.0
  0
VERTEX
  8
0
 10
825.983760
 20
266.87378
 30
0.0
  0
VERTEX
  8
0
 10
825.97551
 20
266.883780
 30
0.0
  0
VERTEX
  8
0
 10
825.94252
 20
266.883780
 30
0.0
  0
VERTEX
  8
0
 10
825.926020
 20
266.89378
 30
0.0
  0
VERTEX
  8
0
 10
825.91777
 20
266.89378
 30
0.0
  0
VERTEX
  8
0
 10
825.88478
 20
266.883780
 30
0.0
  0
SEQEND
  8
0
 62
     1
  0
POLYLINE
  8
0
  6
CONTINUOUS
 62
     1
 66
     1
  0
VERTEX
  8
0
 10
826.5199
 20
270.324115
 30
0.0
  0
VERTEX
  8
0
 10
826.503400
 20
270.314110
 30
0.0
  0
VERTEX
  8
0
 10
826.495150
 20
270.294110
 30
0.0
  0
VERTEX
  8
0
 10
826.4869
 20
270.284110
 30
0.0
  0
VERTEX
  8
0
 10
826.4869
 20
270.244105
 30
0.0
  0
VERTEX
  8
0
 10
826.495150
 20
270.224105
 30
0.0
  0
VERTEX
  8
0
 10
826.511650
 20
270.1941
 30
0.0
  0
VERTEX
  8
0
 10
826.5199
 20
270.1841
 30
0.0
  0
VERTEX
  8
0
 10
826.56114
 20
270.1741
 30
0.0
  0
VERTEX
  8
0
 10
826.56939
 20
270.1741
 30
0.0
  0
VERTEX
  8
0
 10
826.594130
 20
270.1841
 30
0.0
  0
VERTEX
  8
0
 10
826.61888
 20
270.2041
 30
0.0
  0
VERTEX
  8
0
 10
826.63537
 20
270.224105
 30
0.0
  0
VERTEX
  8
0
 10
826.64362
 20
270.244105
 30
0.0
  0
VERTEX
  8
0
 10
826.63537
 20
270.284110
 30
0.0
  0
VERTEX
  8
0
 10
826.62713
 20
270.294110
 30
0.0
  0
VERTEX
  8
0
 10
826.61888
 20
270.314110
 30
0.0
  0
VERTEX
  8
0
 10
826.610630
 20
270.324115
 30
0.0
  0
VERTEX
  8
0
 10
826.577640
 20
270.324115
 30
0.0
  0
VERTEX
  8
0
 10
826.56114
 20
270.334115
 30
0.0
  0
VERTEX
  8
0
 10
826.552890
 20
270.334115
 30
0.0
  0
VERTEX
  8
0
 10
826.5199
 20
270.324115
 30
0.0
  0
SEQEND
  8
0
 62
     1
  0
POLYLINE
  8
0
  6
CONTINUOUS
 62
     1
 66
     1
  0
VERTEX
  8
0
 10
821.21623
 20
271.294205
 30
0.0
  0
VERTEX
  8
0
 10
821.19973
 20
271.284205
 30
0.0
  0
VERTEX
  8
0
 10
821.191480
 20
271.264205
 30
0.0
  0
VERTEX
  8
0
 10
821.18324
 20
271.254205
 30
0.0
  0
VERTEX
  8
0
 10
821.18324
 20
271.214200
 30
0.0
  0
VERTEX
  8
0
 10
821.191480
 20
271.194195
 30
0.0
  0
VERTEX
  8
0
 10
821.20798
 20
271.164195
 30
0.0
  0
VERTEX
  8
0
 10
821.21623
 20
271.154195
 30
0.0
  0
VERTEX
  8
0
 10
821.25747
 20
271.14419
 30
0.0
  0
VERTEX
  8
0
 10
821.26572
 20
271.14419
 30
0.0
  0
VERTEX
  8
0
 10
821.29046
 20
271.154195
 30
0.0
  0
VERTEX
  8
0
 10
821.31521
 20
271.174195
 30
0.0
  0
VERTEX
  8
0
 10
821.33171
 20
271.194195
 30
0.0
  0
VERTEX
  8
0
 10
821.33995
 20
271.214200
 30
0.0
  0
VERTEX
  8
0
 10
821.33171
 20
271.254205
 30
0.0
  0
VERTEX
  8
0
 10
821.32346
 20
271.264205
 30
0.0
  0
VERTEX
  8
0
 10
821.31521
 20
271.284205
 30
0.0
  0
VERTEX
  8
0
 10
821.30696
 20
271.294205
 30
0.0
  0
VERTEX
  8
0
 10
821.27397
 20
271.294205
 30
0.0
  0
VERTEX
  8
0
 10
821.25747
 20
271.30421
 30
0.0
  0
VERTEX
  8
0
 10
821.249220
 20
271.30421
 30
0.0
  0
VERTEX
  8
0
 10
821.21623
 20
271.294205
 30
0.0
  0
SEQEND
  8
0
 62
     1
  0
POLYLINE
  8
0
  6
CONTINUOUS
 62
     1
 66
     1
  0
VERTEX
  8
0
 10
820.589360
 20
267.843875
 30
0.0
  0
VERTEX
  8
0
 10
820.572860
 20
267.833875
 30
0.0
  0
VERTEX
  8
0
 10
820.56461
 20
267.81387
 30
0.0
  0
VERTEX
  8
0
 10
820.556360
 20
267.80387
 30
0.0
  0
VERTEX
  8
0
 10
820.556360
 20
267.763865
 30
0.0
  0
VERTEX
  8
0
 10
820.56461
 20
267.743865
 30
0.0
  0
VERTEX
  8
0
 10
820.581110
 20
267.713860
 30
0.0
  0
VERTEX
  8
0
 10
820.589360
 20
267.703860
 30
0.0
  0
VERTEX
  8
0
 10
820.6306
 20
267.693860
 30
0.0
  0
VERTEX
  8
0
 10
820.638850
 20
267.693860
 30
0.0
  0
VERTEX
  8
0
 10
820.66359
 20
267.703860
 30
0.0
  0
VERTEX
  8
0
 10
820.68834
 20
267.723860
 30
0.0
  0
VERTEX
  8
0
 10
820.70483
 20
267.743865
 30
0.0
  0
VERTEX
  8
0
 10
820.713080
 20
267.763865
 30
0.0
  0
VERTEX
  8
0
 10
820.70483
 20
267.80387
 30
0.0
  0
VERTEX
  8
0
 10
820.69658
 20
267.81387
 30
0.0
  0
VERTEX
  8
0
 10
820.68834
 20
267.833875
 30
0.0
  0
VERTEX
  8
0
 10
820.68009
 20
267.843875
 30
0.0
  0
VERTEX
  8
0
 10
820.64709
 20
267.843875
 30
0.0
  0
VERTEX
  8
0
 10
820.6306
 20
267.853875
 30
0.0
  0
VERTEX
  8
0
 10
820.62235
 20
267.853875
 30
0.0
  0
VERTEX
  8
0
 10
820.589360
 20
267.843875
 30
0.0
  0
SEQEND
  8
0
 62
     1
  0
POLYLINE
  8
0
  6
CONTINUOUS
 62
     1
 66
     1
  0
VERTEX
  8
0
 10
891.16197
 20
238.311020
 30
0.0
  0
VERTEX
  8
0
 10
891.20322
 20
238.211015
 30
0.0
  0
VERTEX
  8
0
 10
891.37643
 20
238.161010
 30
0.0
  0
VERTEX
  8
0
 10
891.49191
 20
238.261020
 30
0.0
  0
VERTEX
  8
0
 10
891.49191
 20
238.411030
 30
0.0
  0
VERTEX
  8
0
 10
891.368180
 20
238.481040
 30
0.0
  0
VERTEX
  8
0
 10
891.21971
 20
238.451035
 30
0.0
  0
VERTEX
  8
0
 10
891.16197
 20
238.311020
 30
0.0
  0
SEQEND
  8
0
 62
     1
  0
POLYLINE
  8
0
  6
CONTINUOUS
 62
     1
 66
     1
  0
VERTEX
  8
0
 10
910.75998
 20
215.058780
 30
0.0
  0
VERTEX
  8
0
 10
910.586770
 20
214.13869
 30
0.0
  0
VERTEX
  8
0
 10
911.584810
 20
213.938670
 30
0.0
  0
VERTEX
  8
0
 10
911.749780
 20
214.848755
 30
0.0
  0
VERTEX
  8
0
 10
910.75998
 20
215.058780
 30
0.0
  0
SEQEND
  8
0
 62
     1
  0
POLYLINE
  8
0
  6
CONTINUOUS
 62
     1
 66
     1
  0
VERTEX
  8
0
 10
901.455880
 20
207.858080
 30
0.0
  0
VERTEX
  8
0
 10
901.28266
 20
206.937995
 30
0.0
  0
VERTEX
  8
0
 10
902.28071
 20
206.737975
 30
0.0
  0
VERTEX
  8
0
 10
902.445670
 20
207.648060
 30
0.0
  0
VERTEX
  8
0
 10
901.455880
 20
207.858080
 30
0.0
  0
SEQEND
  8
0
 62
     1
  0
POLYLINE
  8
0
  6
CONTINUOUS
 62
     1
 66
     1
  0
VERTEX
  8
0
 10
819.426340
 20
264.723570
 30
0.0
  0
VERTEX
  8
0
 10
819.40985
 20
264.513550
 30
0.0
  0
VERTEX
  8
0
 10
822.76691
 20
263.923495
 30
0.0
  0
VERTEX
  8
0
 10
822.74217
 20
264.08351
 30
0.0
  0
VERTEX
  8
0
 10
819.426340
 20
264.723570
 30
0.0
  0
SEQEND
  8
0
 62
     1
  0
POLYLINE
  8
0
  6
CONTINUOUS
 62
     1
 66
     1
  0
VERTEX
  8
0
 10
973.562680
 20
250.252175
 30
0.0
  0
VERTEX
  8
0
 10
974.34627
 20
250.552205
 30
0.0
  0
VERTEX
  8
0
 10
974.865920
 20
251.46229
 30
0.0
  0
VERTEX
  8
0
 10
975.129860
 20
252.08235
 30
0.0
  0
VERTEX
  8
0
 10
975.129860
 20
253.5925
 30
0.0
  0
VERTEX
  8
0
 10
974.865920
 20
254.492585
 30
0.0
  0
VERTEX
  8
0
 10
974.08233
 20
255.412675
 30
0.0
  0
VERTEX
  8
0
 10
973.562680
 20
256.01273
 30
0.0
  0
VERTEX
  8
0
 10
972.25945
 20
256.31276
 30
0.0
  0
VERTEX
  8
0
 10
971.195410
 20
256.31276
 30
0.0
  0
VERTEX
  8
0
 10
970.15613
 20
256.01273
 30
0.0
  0
VERTEX
  8
0
 10
969.372540
 20
255.112645
 30
0.0
  0
VERTEX
  8
0
 10
968.58895
 20
254.492585
 30
0.0
  0
VERTEX
  8
0
 10
968.325
 20
253.5925
 30
0.0
  0
VERTEX
  8
0
 10
968.58895
 20
252.08235
 30
0.0
  0
VERTEX
  8
0
 10
968.844640
 20
251.46229
 30
0.0
  0
VERTEX
  8
0
 10
969.372540
 20
250.862235
 30
0.0
  0
VERTEX
  8
0
 10
969.892180
 20
250.252175
 30
0.0
  0
VERTEX
  8
0
 10
970.93972
 20
250.252175
 30
0.0
  0
VERTEX
  8
0
 10
971.73155
 20
249.952145
 30
0.0
  0
VERTEX
  8
0
 10
972.51515
 20
249.952145
 30
0.0
  0
VERTEX
  8
0
 10
973.562680
 20
250.252175
 30
0.0
  0
SEQEND
  8
0
 62
     1
  0
POLYLINE
  8
0
  6
CONTINUOUS
 62
     1
 66
     1
  0
VERTEX
  8
0
 10
860.47823
 20
256.7128
 30
0.0
  0
VERTEX
  8
0
 10
860.28027
 20
255.532685
 30
0.0
  0
VERTEX
  8
0
 10
860.651440
 20
255.47268
 30
0.0
  0
VERTEX
  8
0
 10
860.766920
 20
256.142745
 30
0.0
  0
VERTEX
  8
0
 10
862.433080
 20
255.852715
 30
0.0
  0
VERTEX
  8
0
 10
862.119640
 20
254.072545
 30
0.0
  0
VERTEX
  8
0
 10
860.50297
 20
254.342570
 30
0.0
  0
VERTEX
  8
0
 10
860.58546
 20
254.892625
 30
0.0
  0
VERTEX
  8
0
 10
860.18954
 20
254.96263
 30
0.0
  0
VERTEX
  8
0
 10
859.95034
 20
253.512490
 30
0.0
  0
SEQEND
  8
0
 62
     1
  0
POLYLINE
  8
0
  6
CONTINUOUS
 62
     1
 66
     1
  0
VERTEX
  8
0
 10
812.91017
 20
276.324690
 30
0.0
  0
VERTEX
  8
0
 10
813.31434
 20
276.254685
 30
0.0
  0
VERTEX
  8
0
 10
813.33084
 20
276.424700
 30
0.0
  0
VERTEX
  8
0
 10
812.976160
 20
276.474705
 30
0.0
  0
VERTEX
  8
0
 10
813.16587
 20
278.17487
 30
0.0
  0
VERTEX
  8
0
 10
814.964000
 20
277.97485
 30
0.0
  0
VERTEX
  8
0
 10
814.733050
 20
276.264685
 30
0.0
  0
VERTEX
  8
0
 10
814.271140
 20
276.314690
 30
0.0
  0
VERTEX
  8
0
 10
814.23815
 20
276.134675
 30
0.0
  0
VERTEX
  8
0
 10
815.77234
 20
275.90465
 30
0.0
  0
VERTEX
  8
0
 10
815.87132
 20
276.004660
 30
0.0
  0
SEQEND
  8
0
 62
     1
  0
POLYLINE
  8
0
  6
CONTINUOUS
 62
     1
 66
     1
  0
VERTEX
  8
0
 10
966.28766
 20
263.803485
 30
0.0
  0
VERTEX
  8
0
 10
963.945140
 20
270.37412
 30
0.0
  0
VERTEX
  8
0
 10
964.72873
 20
275.18458
 30
0.0
  0
VERTEX
  8
0
 10
967.970320
 20
292.15622
 30
0.0
  0
SEQEND
  8
0
 62
     1
  0
POLYLINE
  8
0
  6
CONTINUOUS
 62
     1
 66
     1
  0
VERTEX
  8
0
 10
980.02112
 20
186.356005
 30
0.0
  0
VERTEX
  8
0
 10
977.604360
 20
171.58458
 30
0.0
  0
SEQEND
  8
0
 62
     1
  0
POLYLINE
  8
0
  6
CONTINUOUS
 62
     1
 66
     1
  0
VERTEX
  8
0
 10
897.24923
 20
184.475825
 30
0.0
  0
VERTEX
  8
0
 10
896.515130
 20
180.16541
 30
0.0
  0
SEQEND
  8
0
 62
     1
  0
ENDSEC
  0
EOF
